<svg id="Layer_1" data-name="Layer 1" xmlns="http://www.w3.org/2000/svg" xmlns:xlink="http://www.w3.org/1999/xlink" viewBox="0 0 647.25 169.51"><defs><style>.cls-1{fill:#3fc;}.cls-2{fill:#000;}.cls-3{opacity:0.68;fill:url(#linear-gradient);}</style><linearGradient id="linear-gradient" x1="272.06" y1="153.49" x2="102.55" y2="153.49" gradientTransform="translate(-53.67 177.4) rotate(-45)" gradientUnits="userSpaceOnUse"><stop offset="0" stop-color="#652ee3"/><stop offset="0.55" stop-color="#4662e4"/><stop offset="1" stop-color="#48a2e5"/></linearGradient></defs><rect class="cls-1" x="96.93" y="102.53" width="108.78" height="108.78" rx="12" transform="translate(75.89 -129.77) rotate(45)"/><path class="cls-2" d="M713.64,199H648.56a13,13,0,0,1-13-13V121a13,13,0,0,1,13-13h65.08a13,13,0,0,1,13,13V186A13,13,0,0,1,713.64,199ZM648.56,110a11,11,0,0,0-11,11V186a11,11,0,0,0,11,11h65.08a11,11,0,0,0,11-11V121a11,11,0,0,0-11-11Z" transform="translate(-79.39 -68.73)"/><path class="cls-2" d="M334.21,190.48a43.94,43.94,0,0,1-14.59-6.86l6.44-14.29a44.25,44.25,0,0,0,12.54,6.21,47.21,47.21,0,0,0,14.53,2.34q8.1,0,12-2.4a7.26,7.26,0,0,0,3.87-6.39,6.12,6.12,0,0,0-2.29-4.86,17.29,17.29,0,0,0-5.86-3.11q-3.57-1.17-9.67-2.58a133.42,133.42,0,0,1-15.35-4.45,25,25,0,0,1-10.26-7.15q-4.27-4.92-4.27-13.13a22.91,22.91,0,0,1,3.86-13,26.11,26.11,0,0,1,11.67-9.2q7.79-3.39,19-3.4a63.07,63.07,0,0,1,15.35,1.88,45.49,45.49,0,0,1,13.13,5.39L378.45,130q-11.37-6.45-22.74-6.45-8,0-11.78,2.58a7.86,7.86,0,0,0-3.8,6.8q0,4.22,4.39,6.27a69.61,69.61,0,0,0,13.42,4,135.47,135.47,0,0,1,15.35,4.45,25.54,25.54,0,0,1,10.26,7q4.27,4.82,4.28,13a22.41,22.41,0,0,1-3.93,12.84,26.5,26.5,0,0,1-11.78,9.2q-7.86,3.39-19.1,3.4A67,67,0,0,1,334.21,190.48Z" transform="translate(-79.39 -68.73)"/><path class="cls-2" d="M447.48,134.69q7.84,7,7.85,21v36H438.22v-7.85q-5.16,8.79-19.22,8.79a29.81,29.81,0,0,1-12.6-2.46,18.8,18.8,0,0,1-8.15-6.8,17.73,17.73,0,0,1-2.81-9.85,16.45,16.45,0,0,1,6.62-13.83q6.63-5,20.45-5h14.54q0-6-3.64-9.19t-10.9-3.23a31.93,31.93,0,0,0-9.9,1.58,26.41,26.41,0,0,0-8.26,4.28l-6.56-12.77a39.53,39.53,0,0,1,12.36-5.63,55.37,55.37,0,0,1,14.83-2Q439.62,127.72,447.48,134.69Zm-15.59,43.48a11.87,11.87,0,0,0,5.16-6.38v-6.45H424.51q-11.25,0-11.25,7.38a6.56,6.56,0,0,0,2.75,5.57,12.38,12.38,0,0,0,7.56,2.05A15.89,15.89,0,0,0,431.89,178.17Z" transform="translate(-79.39 -68.73)"/><path class="cls-2" d="M519.79,134.69q7.85,7,7.85,21v36H510.53v-7.85q-5.16,8.79-19.22,8.79a29.81,29.81,0,0,1-12.6-2.46,18.8,18.8,0,0,1-8.15-6.8,17.73,17.73,0,0,1-2.81-9.85,16.45,16.45,0,0,1,6.62-13.83q6.63-5,20.45-5h14.54q0-6-3.64-9.19t-10.9-3.23a31.93,31.93,0,0,0-9.9,1.58,26.41,26.41,0,0,0-8.26,4.28l-6.56-12.77a39.53,39.53,0,0,1,12.36-5.63,55.31,55.31,0,0,1,14.83-2Q511.93,127.72,519.79,134.69ZM504.2,178.17a11.87,11.87,0,0,0,5.16-6.38v-6.45H496.82q-11.25,0-11.25,7.38a6.56,6.56,0,0,0,2.75,5.57,12.36,12.36,0,0,0,7.56,2.05A15.89,15.89,0,0,0,504.2,178.17Z" transform="translate(-79.39 -68.73)"/><path class="cls-2" d="M553.6,190.48A43.94,43.94,0,0,1,539,183.62l6.44-14.29A44.25,44.25,0,0,0,558,175.54a47.22,47.22,0,0,0,14.54,2.34q8.09,0,12-2.4a7.26,7.26,0,0,0,3.87-6.39,6.09,6.09,0,0,0-2.29-4.86,17.19,17.19,0,0,0-5.86-3.11q-3.57-1.17-9.67-2.58a134,134,0,0,1-15.35-4.45,24.92,24.92,0,0,1-10.25-7.15q-4.29-4.92-4.28-13.13a22.84,22.84,0,0,1,3.87-13q3.86-5.79,11.66-9.2t19-3.4a63,63,0,0,1,15.35,1.88,45.49,45.49,0,0,1,13.13,5.39L597.84,130q-11.37-6.45-22.74-6.45-8,0-11.77,2.58a7.87,7.87,0,0,0-3.81,6.8q0,4.22,4.39,6.27a69.61,69.61,0,0,0,13.42,4,135.47,135.47,0,0,1,15.35,4.45,25.48,25.48,0,0,1,10.26,7q4.27,4.82,4.28,13a22.41,22.41,0,0,1-3.93,12.84,26.45,26.45,0,0,1-11.78,9.2q-7.85,3.39-19.1,3.4A67,67,0,0,1,553.6,190.48Z" transform="translate(-79.39 -68.73)"/><path class="cls-2" d="M659.05,170.16q-4.45-4.57-4.46-13.3v-23.5h4.34v23.32q0,7.15,3.22,10.66t9.32,3.52q6.15,0,9.38-3.52t3.22-10.66V133.36h4.22v23.5q0,8.73-4.43,13.3t-12.39,4.57Q663.5,174.73,659.05,170.16Z" transform="translate(-79.39 -68.73)"/><path class="cls-2" d="M701.36,133.36h4.33v41h-4.33Z" transform="translate(-79.39 -68.73)"/><rect class="cls-3" x="123.85" y="90.03" width="126.91" height="126.91" rx="12" transform="translate(84.01 -156.23) rotate(45)"/></svg>