<svg width="250" height="141" viewBox="0 0 250 141" fill="none" xmlns="http://www.w3.org/2000/svg">
<g clip-path="url(#clip0_4591_38661)">
<path d="M58 44.5C58 41.1863 60.6863 38.5 64 38.5H186C189.314 38.5 192 41.1863 192 44.5V96.5C192 99.8137 189.314 102.5 186 102.5H64C60.6863 102.5 58 99.8137 58 96.5V44.5Z" fill="white"/>
<path d="M192 52.5H58V54.5H192V52.5Z" fill="#E7E7E8" mask="url(#path-3-inside-1_4591_38661)"/>
<rect x="66" y="44.5" width="31" height="3" rx="1.5" fill="#D3D4D5"/>
<rect x="73" y="61.5" width="33" height="3" rx="1.5" fill="#ABADAF"/>
<rect x="168" y="61.5" width="9" height="3" rx="1.5" fill="#D3D4D5"/>
<path d="M65 74.5C65 72.2909 66.7909 70.5 69 70.5H181C183.209 70.5 185 72.2909 185 74.5V81.5C185 83.7091 183.209 85.5 181 85.5H69C66.7909 85.5 65 83.7091 65 81.5V74.5Z" fill="#8952E0"/>
<rect x="73" y="76.5" width="33" height="3" rx="1.5" fill="white"/>
<rect x="168" y="76.5" width="9" height="3" rx="1.5" fill="white"/>
<rect x="73" y="91.5" width="33" height="3" rx="1.5" fill="#ABADAF"/>
<rect x="168" y="91.5" width="9" height="3" rx="1.5" fill="#D3D4D5"/>
</g>
<path d="M58.5 44.5C58.5 41.4624 60.9624 39 64 39H186C189.038 39 191.5 41.4624 191.5 44.5V96.5C191.5 99.5376 189.038 102 186 102H64C60.9624 102 58.5 99.5376 58.5 96.5V44.5Z" stroke="#D3D4D5"/>
<defs>
<clipPath id="clip0_4591_38661">
<path d="M58 44.5C58 41.1863 60.6863 38.5 64 38.5H186C189.314 38.5 192 41.1863 192 44.5V96.5C192 99.8137 189.314 102.5 186 102.5H64C60.6863 102.5 58 99.8137 58 96.5V44.5Z" fill="white"/>
</clipPath>
</defs>
</svg>
