<svg width="250" height="141" viewBox="0 0 250 141" fill="none" xmlns="http://www.w3.org/2000/svg">
<g clip-path="url(#clip0_4704_10742)">
<g clip-path="url(#clip1_4704_10742)">
<path d="M41.5 47C41.5 43.6863 44.1863 41 47.5 41H203.5C206.814 41 209.5 43.6863 209.5 47V146C209.5 149.314 206.814 152 203.5 152H47.5C44.1863 152 41.5 149.314 41.5 146V47Z" fill="#1D2025"/>
<mask id="path-3-inside-1_4704_10742" fill="white">
<path d="M41.5 41H209.5V53H41.5V41Z"/>
</mask>
<path d="M41.5 41H209.5V53H41.5V41Z" fill="#33373D"/>
<path d="M209.5 52H41.5V54H209.5V52Z" fill="#1D2025" mask="url(#path-3-inside-1_4704_10742)"/>
<rect x="47.5" y="45" width="4" height="4" rx="2" fill="#E53E3E"/>
<rect x="54.5" y="45" width="4" height="4" rx="2" fill="#FBC434"/>
<rect x="61.5" y="45" width="4" height="4" rx="2" fill="#0EA371"/>
<mask id="path-8-outside-2_4704_10742" maskUnits="userSpaceOnUse" x="156.5" y="53" width="53" height="96" fill="black">
<rect fill="white" x="156.5" y="53" width="53" height="96"/>
<path d="M157.5 53H209.5V149H157.5V53Z"/>
</mask>
<path d="M157.5 53H209.5V149H157.5V53Z" fill="#1D2025"/>
<path d="M158.5 149V53H156.5V149H158.5Z" fill="#33373D" mask="url(#path-8-outside-2_4704_10742)"/>
<path d="M204.758 56.5195L203.527 57.75L204.758 58.9922C204.91 59.1328 204.91 59.3789 204.758 59.5195C204.617 59.6719 204.371 59.6719 204.23 59.5195L203 58.2891L201.758 59.5195C201.617 59.6719 201.371 59.6719 201.23 59.5195C201.078 59.3789 201.078 59.1328 201.23 58.9922L202.461 57.75L201.23 56.5195C201.078 56.3789 201.078 56.1328 201.23 55.9922C201.371 55.8398 201.617 55.8398 201.758 55.9922L203 57.2227L204.23 55.9922C204.371 55.8398 204.617 55.8398 204.758 55.9922C204.91 56.1328 204.91 56.3789 204.758 56.5195Z" fill="#33373D"/>
<rect x="163.5" y="66" width="23" height="3" rx="1.5" fill="#52555A"/>
<rect x="163.5" y="72" width="16" height="3" rx="1.5" fill="#33373D"/>
<rect x="163.5" y="83" width="23" height="3" rx="1.5" fill="#52555A"/>
<rect x="163.5" y="89" width="16" height="3" rx="1.5" fill="#33373D"/>
<rect x="163.5" y="100" width="23" height="3" rx="1.5" fill="#52555A"/>
<rect x="163.5" y="106" width="16" height="3" rx="1.5" fill="#33373D"/>
</g>
<path d="M42 47C42 43.9624 44.4624 41.5 47.5 41.5H203.5C206.538 41.5 209 43.9624 209 47V146C209 149.038 206.538 151.5 203.5 151.5H47.5C44.4624 151.5 42 149.038 42 146V47Z" stroke="#33373D"/>
</g>
<defs>
<clipPath id="clip0_4704_10742">
<rect width="249" height="141" fill="white" transform="translate(0.5)"/>
</clipPath>
<clipPath id="clip1_4704_10742">
<path d="M41.5 47C41.5 43.6863 44.1863 41 47.5 41H203.5C206.814 41 209.5 43.6863 209.5 47V146C209.5 149.314 206.814 152 203.5 152H47.5C44.1863 152 41.5 149.314 41.5 146V47Z" fill="white"/>
</clipPath>
</defs>
</svg>
