<svg width="250" height="141" viewBox="0 0 250 141" fill="none" xmlns="http://www.w3.org/2000/svg">
<path d="M72.5 60.5H177.5C180.538 60.5 183 62.9624 183 66V75C183 78.0376 180.538 80.5 177.5 80.5H72.5C69.4624 80.5 67 78.0376 67 75V66C67 62.9624 69.4624 60.5 72.5 60.5Z" fill="white"/>
<path d="M72.5 60.5H177.5C180.538 60.5 183 62.9624 183 66V75C183 78.0376 180.538 80.5 177.5 80.5H72.5C69.4624 80.5 67 78.0376 67 75V66C67 62.9624 69.4624 60.5 72.5 60.5Z" stroke="#D3D4D5"/>
<rect x="77.5" y="69" width="25" height="3" rx="1.5" fill="#8952E0"/>
<rect x="113.5" y="69" width="25" height="3" rx="1.5" fill="#D3D4D5"/>
<rect x="149.5" y="69" width="23" height="3" rx="1.5" fill="#D3D4D5"/>
<path d="M73.5 81C73.5 79.8954 74.3954 79 75.5 79H104.5C105.605 79 106.5 79.8954 106.5 81V81H73.5V81Z" fill="#8952E0"/>
</svg>
