<svg width="250" height="141" viewBox="0 0 250 141" fill="none" xmlns="http://www.w3.org/2000/svg">
<path d="M73 39C73 35.9624 75.4624 33.5 78.5 33.5H171.5C174.538 33.5 177 35.9624 177 39V44C177 47.0376 174.538 49.5 171.5 49.5H78.5C75.4624 49.5 73 47.0376 73 44V39Z" fill="white"/>
<path d="M73 39C73 35.9624 75.4624 33.5 78.5 33.5H171.5C174.538 33.5 177 35.9624 177 39V44C177 47.0376 174.538 49.5 171.5 49.5H78.5C75.4624 49.5 73 47.0376 73 44V39Z" stroke="#D3D4D5"/>
<rect x="78.5" y="40" width="29" height="3" rx="1.5" fill="#E7E7E8"/>
<path d="M168.141 43.3594L166.141 41.3594C166 41.2188 165.953 41 166.031 40.8125C166.109 40.625 166.297 40.5 166.5 40.5H170.5C170.703 40.5 170.875 40.625 170.953 40.8125C171.031 41 170.984 41.2188 170.844 41.3594L168.844 43.3594C168.656 43.5625 168.328 43.5625 168.141 43.3594Z" fill="#171A1D"/>
<path d="M73 60C73 56.9624 75.4624 54.5 78.5 54.5H171.5C174.538 54.5 177 56.9624 177 60V102C177 105.038 174.538 107.5 171.5 107.5H78.5C75.4624 107.5 73 105.038 73 102V60Z" fill="white"/>
<path d="M73 60C73 56.9624 75.4624 54.5 78.5 54.5H171.5C174.538 54.5 177 56.9624 177 60V102C177 105.038 174.538 107.5 171.5 107.5H78.5C75.4624 107.5 73 105.038 73 102V60Z" stroke="#D3D4D5"/>
<rect x="80.5" y="58.5" width="9" height="9" rx="4.5" fill="#ABADAF"/>
<rect x="94.5" y="58" width="33" height="3" rx="1.5" fill="#ABADAF"/>
<rect x="94.5" y="65" width="16" height="3" rx="1.5" fill="#D3D4D5"/>
<path d="M72.5 72H177.5V90H72.5V72Z" fill="#8952E0"/>
<rect x="80.5" y="76.5" width="9" height="9" rx="4.5" fill="white"/>
<rect x="94.5" y="76" width="33" height="3" rx="1.5" fill="white"/>
<rect x="94.5" y="83" width="16" height="3" rx="1.5" fill="#A379E7"/>
<rect x="80.5" y="94.5" width="9" height="9" rx="4.5" fill="#ABADAF"/>
<rect x="94.5" y="94" width="33" height="3" rx="1.5" fill="#ABADAF"/>
<rect x="94.5" y="101" width="16" height="3" rx="1.5" fill="#D3D4D5"/>
</svg>
