<svg width="250" height="141" viewBox="0 0 250 141" fill="none" xmlns="http://www.w3.org/2000/svg">
<path d="M64.5 42.5H185.5C188.538 42.5 191 44.9624 191 48V93C191 96.0376 188.538 98.5 185.5 98.5H64.5C61.4624 98.5 59 96.0376 59 93V48C59 44.9624 61.4624 42.5 64.5 42.5Z" fill="white"/>
<path d="M64.5 42.5H185.5C188.538 42.5 191 44.9624 191 48V93C191 96.0376 188.538 98.5 185.5 98.5H64.5C61.4624 98.5 59 96.0376 59 93V48C59 44.9624 61.4624 42.5 64.5 42.5Z" stroke="#D3D4D5"/>
<rect x="67.5" y="51" width="37" height="3" rx="1.5" fill="#ABADAF"/>
<rect x="67.5" y="60" width="100" height="3" rx="1.5" fill="#D3D4D5"/>
<rect x="67.5" y="67" width="100" height="3" rx="1.5" fill="#D3D4D5"/>
<path d="M109 81C109 80.1716 109.672 79.5 110.5 79.5H131.5C132.328 79.5 133 80.1716 133 81V87C133 87.8284 132.328 88.5 131.5 88.5H110.5C109.672 88.5 109 87.8284 109 87V81Z" fill="white"/>
<path d="M109 81C109 80.1716 109.672 79.5 110.5 79.5H131.5C132.328 79.5 133 80.1716 133 81V87C133 87.8284 132.328 88.5 131.5 88.5H110.5C109.672 88.5 109 87.8284 109 87V81Z" stroke="#D3D4D5"/>
<rect x="112.5" y="83" width="17" height="2" rx="1" fill="#D3D4D5"/>
<path d="M140.5 81C140.5 79.8954 141.395 79 142.5 79H165.5C166.605 79 167.5 79.8954 167.5 81V87C167.5 88.1046 166.605 89 165.5 89H142.5C141.395 89 140.5 88.1046 140.5 87V81Z" fill="#8952E0"/>
<rect x="144.5" y="83" width="19" height="2" rx="1" fill="white"/>
<path d="M180.258 51.5195L179.027 52.75L180.258 53.9922C180.41 54.1328 180.41 54.3789 180.258 54.5195C180.117 54.6719 179.871 54.6719 179.73 54.5195L178.5 53.2891L177.258 54.5195C177.117 54.6719 176.871 54.6719 176.73 54.5195C176.578 54.3789 176.578 54.1328 176.73 53.9922L177.961 52.75L176.73 51.5195C176.578 51.3789 176.578 51.1328 176.73 50.9922C176.871 50.8398 177.117 50.8398 177.258 50.9922L178.5 52.2227L179.73 50.9922C179.871 50.8398 180.117 50.8398 180.258 50.9922C180.41 51.1328 180.41 51.3789 180.258 51.5195Z" fill="#ABADAF"/>
</svg>
