<svg width="249" height="141" viewBox="0 0 249 141" fill="none" xmlns="http://www.w3.org/2000/svg">
<rect width="249" height="141" fill="#F1F1F2"/>
<g filter="url(#filter0_d_4524_36126)">
<path d="M66 66C66 62.6863 68.6863 60 72 60H177C180.314 60 183 62.6863 183 66V75C183 78.3137 180.314 81 177 81H72C68.6863 81 66 78.3137 66 75V66Z" fill="white"/>
<path d="M66.5 66C66.5 62.9624 68.9624 60.5 72 60.5H177C180.038 60.5 182.5 62.9624 182.5 66V75C182.5 78.0376 180.038 80.5 177 80.5H72C68.9624 80.5 66.5 78.0376 66.5 75V66Z" stroke="#D3D4D5"/>
<rect x="77" y="69" width="25" height="3" rx="1.5" fill="#8952E0"/>
<rect x="113" y="69" width="25" height="3" rx="1.5" fill="#D3D4D5"/>
<rect x="149" y="69" width="23" height="3" rx="1.5" fill="#D3D4D5"/>
<path d="M73 81C73 79.8954 73.8954 79 75 79H104C105.105 79 106 79.8954 106 81H73Z" fill="#8952E0"/>
</g>
<defs>
<filter id="filter0_d_4524_36126" x="64" y="59" width="121" height="25" filterUnits="userSpaceOnUse" color-interpolation-filters="sRGB">
<feFlood flood-opacity="0" result="BackgroundImageFix"/>
<feColorMatrix in="SourceAlpha" type="matrix" values="0 0 0 0 0 0 0 0 0 0 0 0 0 0 0 0 0 0 127 0" result="hardAlpha"/>
<feOffset dy="1"/>
<feGaussianBlur stdDeviation="1"/>
<feColorMatrix type="matrix" values="0 0 0 0 0 0 0 0 0 0 0 0 0 0 0 0 0 0 0.05 0"/>
<feBlend mode="normal" in2="BackgroundImageFix" result="effect1_dropShadow_4524_36126"/>
<feBlend mode="normal" in="SourceGraphic" in2="effect1_dropShadow_4524_36126" result="shape"/>
</filter>
</defs>
</svg>
