<svg fill="none" height="1000" width="2500" xmlns="http://www.w3.org/2000/svg" viewBox="0.241 0.7820522194278111 164.402 64.98289556114437"><path d="M104.292 56.033c0 .375-.086.63-.256.767-.136.136-.409.205-.818.205h-3.477c-.34 0-.58-.052-.716-.154-.136-.136-.204-.358-.204-.665l.102-36.354c0-.51.221-.767.665-.767h4.039l.665.002zm-39.939.975c-.238 0-.426-.068-.562-.205a.694.694 0 0 1-.205-.51V19.937c0-.58.273-.869.818-.869H76.83c4.704 0 8.317.852 10.84 2.557 2.522 1.67 3.783 4.107 3.783 7.311 0 2.011-.528 3.716-1.585 5.113-1.056 1.364-2.76 2.472-5.113 3.324-.136.034-.204.12-.204.255 0 .103.068.17.204.205 2.523.682 4.415 1.755 5.676 3.221 1.295 1.466 1.943 3.392 1.943 5.778 0 3.409-1.279 5.965-3.835 7.67-2.557 1.67-6.306 2.505-11.249 2.505H64.353zm13.192-21.424c2.147 0 3.971-.477 5.47-1.431 1.5-.955 2.25-2.455 2.25-4.5s-.75-3.596-2.25-4.653c-1.465-1.056-3.493-1.585-6.084-1.585H70.54c-.511 0-.767.222-.767.665v10.788c0 .478.187.716.562.716zm-.511 17.078c5.93 0 8.896-2.062 8.896-6.187 0-2.147-.767-3.75-2.3-4.806-1.534-1.057-3.563-1.585-6.085-1.585H70.59c-.307 0-.528.05-.665.153-.102.102-.153.273-.153.511v11.147c0 .511.187.767.562.767h6.699zm65.673 4.2c.103.103.29.154.563.154h20.606c.511 0 .767-.239.767-.716v-2.966h-14.777c-.273 0-.409-.085-.409-.255 0-.102.051-.222.153-.358l14.266-18.867c.375-.58.562-1.091.562-1.534v-2.406l-.562.002h-19.635c-.375 0-.562.205-.562.614v2.301c0 .273.034.46.102.562.102.103.29.154.563.154h12.731c.307 0 .46.085.46.256l-.153.306-14.163 18.867c-.273.376-.46.665-.563.87a2.46 2.46 0 0 0-.102.767V56.3c0 .273.051.46.153.562zm-25.778-37.794h-5.419v8.7a5.42 5.42 0 0 0 5.419-5.42zm-.003 36.963c0 .375-.085.63-.256.767-.136.136-.392.204-.767.204h-3.476c-.341 0-.58-.05-.716-.153-.137-.136-.205-.358-.205-.665V30.67c0-.273.051-.46.154-.563.102-.136.289-.204.562-.204h4.806zm15.257-21.717c0-.341.153-.512.46-.512h6.136c.477 0 .716-.204.716-.613v-3.273h-6.75c-.306 0-.46-.153-.46-.46v-8.743h-4.192c-.341 0-.546.238-.614.716l-.614 8.027c0 .307-.136.46-.409.46h-4.09c-.409 0-.614.188-.614.563v2.71c0 .409.222.613.665.613h3.835c.341 0 .511.205.511.614v16.208c0 2.182.546 3.801 1.636 4.858 1.091 1.023 2.761 1.534 5.011 1.534 2.386 0 4.125-.085 5.215-.256.512-.102.767-.392.767-.87v-2.81h-3.885c-1.159 0-2.012-.273-2.557-.818-.511-.546-.767-1.534-.767-2.966zM.241 33.264h10.733a13 13 0 0 1 10.387 5.183l10.587 14.07c.2.265.23.622.078.918l-6.103 11.824a.867.867 0 0 1-1.462.124zm42.232.018H31.74A13 13 0 0 1 21.353 28.1L10.766 14.03a.867.867 0 0 1-.078-.918l6.103-11.824a.867.867 0 0 1 1.462-.124l24.22 32.12z" fill="#6102db"/></svg>