<svg
  version="1.1"
  xmlns="http://www.w3.org/2000/svg"
  x="0"
  y="0"
  viewBox="-144.1 342.6 230.3 97"
  xml:space="preserve"
>
  <!-- <path
    d="M-144.1 390.9c0 8.1 8 15.8 20.5 20-2.5 12.6-.4 22.8 6.4 26.7 7.1 4.1 17.6 1.3 27.5-7.5 9.7 8.4 19.6 11.7 26.4 7.7 7.1-4.1 9.2-14.9 6.6-27.9 13.1-4.3 20.4-10.8 20.4-19.1 0-8-8-14.8-20.3-19.1 2.8-13.5.4-23.5-6.7-27.6-6.9-4-16.8-.5-26.7 8.1-10.3-9.1-20.1-11.9-27.3-7.8-6.9 4-8.9 14.3-6.3 27.2-12.2 4.4-20.5 11.4-20.5 19.3z"
  /> -->
  <path
    fill="white"
    d="M-59.2 376.1c-1-.3-2-.7-3.1-1 .2-.7.3-1.4.5-2.1 2.3-11.3.8-20.5-4.4-23.5-5-2.9-13.2.1-21.4 7.3-.8.7-1.6 1.4-2.4 2.2-.5-.5-1-1-1.6-1.5-8.6-7.7-17.3-10.9-22.5-7.9-5 2.9-6.5 11.5-4.4 22.2.2 1.1.4 2.1.7 3.2-1.2.3-2.4.7-3.5 1.1-10.1 3.5-16.6 9.1-16.6 14.8 0 5.9 7 11.9 17.5 15.5.9.3 1.7.6 2.6.8-.3 1.1-.5 2.3-.8 3.4-2 10.6-.4 18.9 4.5 21.8 5.1 3 13.8-.1 22.2-7.4.7-.6 1.3-1.2 2-1.8.8.8 1.7 1.6 2.6 2.4 8.1 7 16.2 9.8 21.2 7 5.1-3 6.8-12 4.6-22.9-.2-.8-.4-1.7-.6-2.6l1.8-.6c11-3.6 18.1-9.5 18.1-15.5 0-5.7-6.7-11.3-17-14.9z"
  />
  <path
    class="st0"
    fill="black"
    d="M-61.6 402.7c-.5.2-1.1.3-1.6.5-1.3-4.2-3-8.2-4.8-12.1 1.8-3.9 3.4-7.9 4.7-12 1 .3 1.9.6 2.8.9 8.9 3 14.3 7.6 14.3 11-.1 3.7-5.9 8.5-15.4 11.7zm-3.9 7.8c.9 4.2 1.1 8.4.5 12.6-.6 3.1-1.7 5.1-3.1 5.9-3 1.7-9.5-.5-16.4-6.5-.8-.7-1.6-1.4-2.4-2.2 2.9-3.2 5.6-6.6 8-10.2 4.4-.4 8.7-1 13-2 0 .9.2 1.6.4 2.4zm-39.8 18.3c-2.9 1-5.3 1.1-6.7.3-3-1.7-4.3-8.5-2.6-17.5.2-1.1.4-2.1.7-3.2 4.3.9 8.6 1.5 12.9 1.9 2.5 3.6 5.3 7 8.2 10.2-.6.6-1.2 1.1-1.8 1.7-3.1 2.7-6.8 5-10.7 6.6zm-13.8-26.1c-4.1-1.3-7.8-3.3-11.2-5.9-2.4-2-3.6-4.1-3.6-5.7 0-3.5 5.2-7.9 13.9-11 1.1-.4 2.2-.7 3.3-1 1.3 4.1 2.8 8.2 4.7 12.1-1.8 4-3.4 8.1-4.7 12.3-.9-.3-1.7-.6-2.4-.8zm4.6-31.6c-1.8-9.2-.6-16.1 2.4-17.9 3.2-1.9 10.3.8 17.8 7.4.5.4 1 .9 1.4 1.3-2.9 3.2-5.7 6.6-8.2 10.1-4.3.4-8.6 1-12.8 2-.2-.9-.4-1.9-.6-2.9zm41.3 10.2c-.9-1.6-1.9-3.2-2.9-4.8 3.1.4 6 .9 8.7 1.5-.9 2.8-1.9 5.6-3.1 8.2-.8-1.6-1.7-3.2-2.7-4.9zM-90 364.9c2 2.2 3.9 4.4 5.6 6.8-3.8-.2-7.5-.2-11.3 0 1.8-2.3 3.7-4.6 5.7-6.8zm-17 16.5c-.9 1.6-1.8 3.3-2.7 5-1.1-2.7-2.2-5.5-3-8.3 2.9-.6 5.8-1.1 8.7-1.5a38.8 38.8 0 0 0-3 4.8zm3 24.4c-3-.3-5.9-.8-8.8-1.4.9-2.9 1.9-5.7 3.1-8.5.9 1.7 1.8 3.3 2.7 5 1 1.7 2 3.3 3 4.9zm14.1 11.6c-2-2.2-4-4.5-5.8-6.9 1.8.1 3.7.1 5.6.1 2 0 3.9 0 5.8-.1-1.8 2.4-3.6 4.7-5.6 6.9zm19.5-21.6c1.2 2.8 2.3 5.6 3.2 8.4-3 .7-5.9 1.2-8.9 1.5 1-1.6 2-3.2 2.9-4.9 1-1.6 1.9-3.3 2.8-5zm-6.3 3c-1.5 2.5-3 5-4.6 7.4-2.8.2-5.8.3-8.8.3-3 0-5.9-.1-8.7-.3-1.7-2.4-3.2-4.9-4.7-7.4s-2.8-5.1-4.1-7.7c1.3-2.6 2.6-5.2 4.1-7.7 1.5-2.5 3-5 4.6-7.4 5.8-.4 11.6-.4 17.5 0 1.6 2.4 3.2 4.9 4.6 7.4 1.5 2.5 2.8 5.1 4.1 7.7-1.2 2.6-2.6 5.2-4 7.7zm8.4-45.7c3.2 1.9 4.5 9.3 2.4 19.1-.1.6-.3 1.3-.4 1.9-4.2-1-8.5-1.6-12.8-2-2.5-3.5-5.2-6.9-8.1-10.1.7-.7 1.5-1.4 2.2-2 7.1-6.2 13.7-8.6 16.7-6.9z"
  />
  <path
    class="st1"
    fill="white"
    d="M-90.1 382.6c4.7 0 8.6 3.8 8.6 8.6 0 4.7-3.8 8.6-8.6 8.6-4.7 0-8.6-3.8-8.6-8.6.1-4.8 3.9-8.6 8.6-8.6m76.9 8.7h-8.9v13h-4v-32.5h12c6.3 0 10.8 3 10.8 9.2v1.1c0 4.4-2.3 7.2-5.8 8.4l7.7 13.8h-4.5l-7.3-13zm-1.1-3.6c4.1 0 7-1.9 7-5.6v-1c0-3.8-2.9-5.7-7-5.7h-7.8v12.3h7.8zm20 7.3c0 3.7 2.3 6.6 6.3 6.6 3.3 0 5.3-1.7 5.6-4.2h3.8c-.4 4.3-4.1 7.4-9.3 7.4-6.2 0-10.1-4-10.1-10.7v-1.5c0-6.6 3.8-10.7 10-10.7 6 0 9.5 3.9 9.5 10.2v2.5H5.7v.4zm0-3.8v.2h11.9v-.5c0-3.2-1.7-5.9-5.7-5.9-3.2-.2-6 2.3-6.2 5.5v.7zm38.1-.3v13.5H40v-2.3c-1.8 1.8-4.3 2.8-6.9 2.7-4 0-7-2.3-7-6.4 0-4.8 3.8-6.6 8.7-6.6 1.7 0 3.4.1 5.1.3v-1.7c0-3.2-1.4-5.3-4.6-5.3-2.6-.1-4.8 1.8-4.9 4.4v.4h-3.8c0-4 3.1-7.9 8.6-7.9 5.8-.2 8.6 3.2 8.6 8.9zm-13.9 7.3c0 2.2 1.6 3.4 4.3 3.4 2.3-.1 4.4-1.1 5.9-2.8v-3.6c-1.6-.2-3.3-.3-4.9-.3-3.3-.1-5.3 1-5.3 3.3zm39.3-7.8h-3.5c-.1-3-2.6-5.4-5.6-5.4h-.2c-4.1 0-6.4 2.9-6.4 7.4v1.8c0 4.5 2.3 7.4 6.4 7.4 2.9.2 5.5-2 5.7-4.9v-.1h3.6c-.5 5.1-4.3 8.2-9.3 8.2-6.2 0-10.2-3.8-10.2-10.7v-1.5c0-6.9 4-10.7 10.2-10.7 5.2-.1 9 3.2 9.3 8.5zm16.9 13.8c-1.4.5-2.8.7-4.3.6-3.8 0-6.3-2.2-6.3-6.9v-12.5h-4v-3.2h4v-7.7h3.8v7.7h6.5v3.2h-6.5l-.1 11.8c0 3.1 1.4 4.1 3.7 4.1 1 0 2.1-.2 3-.6l.2 3.5z"
  />
</svg>
