<svg
  fill="none"
  height="100"
  viewBox="0 0 100 100"
  width="100"
  xmlns="http://www.w3.org/2000/svg"
>
  <defs>
    <style>
      svg {
        color: #000;
        color-scheme: light dark;
      }
      @media (prefers-color-scheme: dark) {
        svg {
          color: #fff;
        }
      }
    </style>
  </defs>
  <path
    fill="currentColor"
    d="M49.5423 17.3221C31.7763 17.3221 17.3223 31.7761 17.3223 49.5421C17.3223 67.3081 31.7763 81.7621 49.5423 81.7621C67.3083 81.7621 81.7623 67.3081 81.7623 49.5421C81.7623 31.7761 67.3083 17.3221 49.5423 17.3221ZM49.5423 66.2161C40.3323 66.2161 32.8683 58.7521 32.8683 49.5421C32.8683 40.3321 40.3323 32.8681 49.5423 32.8681C58.7523 32.8681 66.2163 40.3321 66.2163 49.5421C66.2163 58.7521 58.7523 66.2161 49.5423 66.2161Z"
  ></path>
  <path
    clip-rule="evenodd"
    d="M52.2419 12.03V0C78.3899 1.398 99.162 23.046 99.162 49.542C99.162 76.038 78.3899 97.68 52.2419 99.084V87.054C71.7299 85.662 87.1619 69.378 87.1619 49.542C87.1619 29.706 71.7299 13.422 52.2419 12.03ZM21.126 74.1419C15.96 68.1779 12.63 60.5819 12.036 52.2419H0C0.624 63.9119 5.292 74.5019 12.606 82.6559L21.12 74.1419H21.126ZM46.8421 99.084V87.054C38.4961 86.46 30.9001 83.136 24.9361 77.964L16.4221 86.478C24.5821 93.798 35.1721 98.46 46.8361 99.084H46.8421Z"
    fill="url(#paint0_linear_2758_13788)"
    fill-rule="evenodd"
  ></path>
  <defs>
    <linearGradient
      gradientUnits="userSpaceOnUse"
      id="paint0_linear_2758_13788"
      x1="54.1863"
      x2="5.4184"
      y1="6.9667"
      y2="55.7346"
    >
      <stop stop-color="#0096FF"></stop>
      <stop offset="1" stop-color="#FF1E56"></stop>
    </linearGradient>
  </defs>
</svg>
