<svg width="300" height="300" viewBox="0 0 300 300" fill="none" xmlns="http://www.w3.org/2000/svg">
<g filter="url(#filter0_d_1_3)">
<circle cx="151.5" cy="148.5" r="1.5" fill="#8952E0"/>
</g>
<circle cx="150.5" cy="150.5" r="34" stroke="#454545"/>
<circle cx="150" cy="150" r="59.5" stroke="#454545" stroke-opacity="0.4"/>
<circle cx="150" cy="150" r="119.5" stroke="#454545" stroke-opacity="0.1"/>
<circle cx="150" cy="150" r="89.5" stroke="#454545" stroke-opacity="0.2"/>
<path d="M149.435 145.107C147.395 147.397 145.995 150.687 145.865 150.997L142.245 149.447L146.295 145.397C146.765 144.927 147.445 144.717 148.105 144.847L149.435 145.107ZM151.415 155.757C151.415 155.757 155.155 154.207 157.305 152.057C162.705 146.657 161.805 142.437 161.515 141.487C160.565 141.187 156.345 140.297 150.945 145.697C148.795 147.847 147.245 151.587 147.245 151.587L151.415 155.757ZM157.895 153.567C155.605 155.607 152.315 157.007 152.005 157.137L153.555 160.757L157.605 156.707C158.075 156.237 158.285 155.557 158.155 154.897L157.895 153.567ZM149.245 156.757C149.245 157.587 148.905 158.337 148.365 158.877C147.185 160.057 142.245 160.757 142.245 160.757C142.245 160.757 142.945 155.817 144.125 154.637C144.665 154.097 145.415 153.757 146.245 153.757C147.905 153.757 149.245 155.097 149.245 156.757ZM153.245 147.757C153.245 146.657 154.145 145.757 155.245 145.757C156.345 145.757 157.245 146.657 157.245 147.757C157.245 148.857 156.345 149.757 155.245 149.757C154.145 149.757 153.245 148.857 153.245 147.757Z" fill="#8952E0"/>
<defs>
<filter id="filter0_d_1_3" x="114.4" y="115.4" width="74.2" height="74.2" filterUnits="userSpaceOnUse" color-interpolation-filters="sRGB">
<feFlood flood-opacity="0" result="BackgroundImageFix"/>
<feColorMatrix in="SourceAlpha" type="matrix" values="0 0 0 0 0 0 0 0 0 0 0 0 0 0 0 0 0 0 127 0" result="hardAlpha"/>
<feMorphology radius="6" operator="dilate" in="SourceAlpha" result="effect1_dropShadow_1_3"/>
<feOffset dy="4"/>
<feGaussianBlur stdDeviation="14.8"/>
<feComposite in2="hardAlpha" operator="out"/>
<feColorMatrix type="matrix" values="0 0 0 0 0.537255 0 0 0 0 0.321569 0 0 0 0 0.878431 0 0 0 1 0"/>
<feBlend mode="normal" in2="BackgroundImageFix" result="effect1_dropShadow_1_3"/>
<feBlend mode="normal" in="SourceGraphic" in2="effect1_dropShadow_1_3" result="shape"/>
</filter>
</defs>
</svg>
