<svg width="36" xmlns="http://www.w3.org/2000/svg" height="36" viewBox="0 0 37 36" fill="#12FFF7">
<defs>
<linearGradient id="a" x1="36" y1="36" x2="4.345" y2="0" gradientUnits="userSpaceOnUse">
<stop stop-color="#B9FFB3"></stop><stop offset="1" stop-color="#B9FFB3" stop-opacity="0"></stop>
</linearGradient>
<linearGradient id="b" x1="36" y1="36" x2="14.617" y2="27.683" gradientUnits="userSpaceOnUse">
<stop stop-color="#1A1A1A" stop-opacity=".9"></stop>
<stop offset="1" stop-color="#1A1A1A" stop-opacity="0"></stop>
</linearGradient>
</defs>
<path fill-rule="evenodd" clip-rule="evenodd" d="M0 6.207A6.207 6.207 0 0 1 6.207 0h23.586A6.207 6.207 0 0 1 36 6.207v20.06c0 3.546-4.488 5.085-6.664 2.286l-6.805-8.754v10.615A5.586 5.586 0 0 1 16.945 36H6.207A6.207 6.207 0 0 1 0 29.793V6.207Zm6.207-1.241c-.686 0-1.241.555-1.241 1.24v23.587c0 .686.555 1.242 1.24 1.242h10.925c.343 0 .434-.278.434-.621V16.18c0-3.547 4.488-5.086 6.665-2.286l6.805 8.753V6.207c0-.686.064-1.241-.621-1.241H6.207Z" fill="#12FFF7"></path>
<path fill-rule="evenodd" clip-rule="evenodd" d="M0 6.207A6.207 6.207 0 0 1 6.207 0h23.586A6.207 6.207 0 0 1 36 6.207v20.06c0 3.546-4.488 5.085-6.664 2.286l-6.805-8.754v10.615A5.586 5.586 0 0 1 16.945 36H6.207A6.207 6.207 0 0 1 0 29.793V6.207Zm6.207-1.241c-.686 0-1.241.555-1.241 1.24v23.587c0 .686.555 1.242 1.24 1.242h10.925c.343 0 .434-.278.434-.621V16.18c0-3.547 4.488-5.086 6.665-2.286l6.805 8.753V6.207c0-.686.064-1.241-.621-1.241H6.207Z" fill="url(#a)"></path>
<path fill-rule="evenodd" clip-rule="evenodd" d="M0 6.207A6.207 6.207 0 0 1 6.207 0h23.586A6.207 6.207 0 0 1 36 6.207v20.06c0 3.546-4.488 5.085-6.664 2.286l-6.805-8.754v10.615A5.586 5.586 0 0 1 16.945 36H6.207A6.207 6.207 0 0 1 0 29.793V6.207Zm6.207-1.241c-.686 0-1.241.555-1.241 1.24v23.587c0 .686.555 1.242 1.24 1.242h10.925c.343 0 .434-.278.434-.621V16.18c0-3.547 4.488-5.086 6.665-2.286l6.805 8.753V6.207c0-.686.064-1.241-.621-1.241H6.207Z" fill="url(#b)"></path>
<path d="M29.793 0A6.207 6.207 0 0 1 36 6.207v20.06c0 3.546-4.488 5.085-6.664 2.286l-6.805-8.754v10.615A5.586 5.586 0 0 1 16.945 36a.62.62 0 0 0 .62-.62v-19.2c0-3.547 4.488-5.086 6.665-2.286l6.805 8.753V1.241C31.035.556 30.479 0 29.793 0Z" fill="#B9FFB3"></path>
</svg>