<svg xmlns="http://www.w3.org/2000/svg" fill="none" viewBox="0 0 24 24" id="Pandacss-Icon--Streamline-Svg-Logos" height="24" width="24">
  <desc>
    Pandacss Icon Streamline Icon: https://streamlinehq.com
  </desc>
  <path fill="#f6e458" d="M0.3724375 2.9427C0.3724375 1.4555625 1.578005 0.25 3.06515 0.25h17.8698c1.487125 0 2.692675 1.2055625 2.692675 2.6927V21.05725c0 1.4872 -1.20555 2.69275 -2.692675 2.69275H3.06515C1.578005 23.75 0.3724375 22.54445 0.3724375 21.05725V2.9427Z" stroke-width="0.25"></path>
  <path fill="#000000" d="M15.275375 5.502775c-1.283025 -0.36855 -2.59175 -0.41865 -3.9254 -0.299375 -0.746325 0.07755 -1.4638 0.2257 -2.155875 0.485675 -1.495925 0.5619 -2.61905 1.53505 -3.2888 3.000325 -0.480125 1.050475 -0.653675 2.166325 -0.67175 3.3113 -0.0191 1.209925 0.132525 2.403175 0.37345 3.5862 0.2184 1.0723 0.509225 2.1236 0.9246 3.138475 0.03945 0.0964 0.0886 0.1289 0.193925 0.1287 1.313675 -0.002825 2.627375 -0.002825 3.9411 -0.002825 0.388875 0 0.7778 0 1.166725 -0.000075 0.029775 0 0.059525 -0.0016 0.0938 -0.0035 0.01745 -0.000925 0.0361 -0.001975 0.0565 -0.0029 -0.007875 -0.018775 -0.014925 -0.036025 -0.0216 -0.0522 -0.01295 -0.031825 -0.024275 -0.059475 -0.03695 -0.08655 -0.095 -0.203225 -0.19195 -0.40555 -0.288925 -0.607925 -0.210325 -0.438975 -0.4206 -0.877925 -0.6108 -1.325475 -0.57695 -1.3572 -1.018725 -2.754675 -1.153575 -4.2339 -0.05945 -0.652675 -0.051225 -1.3016 0.129925 -1.9376 0.20695 -0.726975 0.6511 -1.240175 1.387525 -1.45475 0.67625 -0.19695 1.361925 -0.195675 2.034425 0.021825 0.60025 0.194075 0.991575 0.604125 1.158075 1.218025 0.12785 0.471475 0.1278 0.948 0.0311 1.42335 -0.074525 0.365925 -0.2244 0.699875 -0.494275 0.967 -0.484125 0.479225 -1.088675 0.589425 -1.7374 0.552675 -0.1154 -0.006525 -0.230475 -0.019125 -0.349025 -0.032225 -0.055525 -0.00605 -0.111825 -0.012225 -0.169325 -0.017925 0.001625 0.01835 0.00255 0.03525 0.00345 0.051075 0.001625 0.031175 0.0031 0.0582 0.0095 0.084025 0.02765 0.1111 0.05405 0.22265 0.080375 0.334175 0.063475 0.268675 0.126925 0.53735 0.2085 0.800375 0.1603 0.516525 0.34655 1.020625 0.5578 1.5128 1.505775 -0.117525 2.8926 -0.4918 4.364575 -1.375425 0.0221 -0.01395 0.042225 -0.02655 0.06235 -0.039075 0.632275 -0.393625 1.143975 -0.904225 1.496875 -1.5636 0.57155 -1.067775 0.68295 -2.20965 0.51315 -3.38825 -0.175225 -1.2164 -0.721075 -2.237375 -1.660775 -3.038225 -0.6517 -0.555475 -1.40535 -0.91925 -2.22325 -1.1542Z" stroke-width="0.25"></path>
</svg>