<svg
  fill="none"
  height="40"
  viewBox="0 0 102 102"
  width="40"
  xmlns="http://www.w3.org/2000/svg"
>
  <defs>
    <style>
      svg {
        color: #000;
        color-scheme:light dark;
      }
      @media (prefers-color-scheme:dark) {
        svg {
          color: #fff;
        }
      }
    </style>
  </defs>
  <path
    clip-rule="evenodd"
    d="M39.3595 37.3368C38.2089 37.3368 37.2763 38.2694 37.2763 39.4199V62.5902C37.2763 63.7407 38.2089 64.6734 39.3595 64.6734H62.5297C63.6802 64.6734 64.613 63.7407 64.613 62.5902V39.4199C64.613 38.2694 63.6802 37.3368 62.5297 37.3368H39.3595ZM22.6461 20.7983C21.5922 20.7983 20.7379 21.6526 20.7379 22.7065V79.3036C20.7379 80.3575 21.5922 81.2118 22.6461 81.2118H79.2431C80.297 81.2118 81.1513 80.3575 81.1513 79.3036V22.7065C81.1513 21.6526 80.297 20.7983 79.2431 20.7983H22.6461Z"
    fill="currentColor"
    fill-rule="evenodd"
  />
  <path
    clip-rule="evenodd"
    d="M0 51.9518V88.7509C0 91.22 0.688936 93.5281 1.88507 95.4935L15.1526 82.226V51.9518H0ZM6.04985 99.7327L19.2047 86.5775C19.2964 86.5833 19.3888 86.5863 19.482 86.5863H48.4686V101.739H12.9879C10.4366 101.739 8.05701 101.003 6.04985 99.7327ZM54.4109 101.739H88.7509C95.924 101.739 101.739 95.924 101.739 88.7509V12.9879C101.739 5.81491 95.924 0 88.7509 0H51.9518V15.1526H82.257C84.648 15.1526 86.5863 17.0909 86.5863 19.482V82.257C86.5863 84.648 84.648 86.5863 82.257 86.5863H54.4109V101.739Z"
    fill="url(#paint0_linear_2735_13287)"
    fill-rule="evenodd"
  />
  <defs>
    <linearGradient
      gradientUnits="userSpaceOnUse"
      id="paint0_linear_2735_13287"
      x1="55.8717"
      x2="5.79847"
      y1="7.15352"
      y2="56.8871"
    >
      <stop stop-color="#0096FF" />
      <stop offset="1" stop-color="#FF1E56" />
    </linearGradient>
  </defs>
</svg>
