<svg width="296" height="141" viewBox="0 0 296 141" fill="none" xmlns="http://www.w3.org/2000/svg">
<rect width="296" height="141" fill="#F1F1F2"/>
<rect x="79" y="47" width="28" height="3" rx="1.5" fill="#ABADAF"/>
<path d="M79.5 58C79.5 56.067 81.067 54.5 83 54.5H193C194.933 54.5 196.5 56.067 196.5 58V67C196.5 68.933 194.933 70.5 193 70.5H83C81.067 70.5 79.5 68.933 79.5 67V58Z" fill="white"/>
<path d="M79.5 58C79.5 56.067 81.067 54.5 83 54.5H193C194.933 54.5 196.5 56.067 196.5 58V67C196.5 68.933 194.933 70.5 193 70.5H83C81.067 70.5 79.5 68.933 79.5 67V58Z" stroke="#D3D4D5"/>
<rect x="85" y="61" width="32" height="3" rx="1.5" fill="#E7E7E8"/>
<path d="M79.5 82C79.5 80.067 81.067 78.5 83 78.5H193C194.933 78.5 196.5 80.067 196.5 82V91C196.5 92.933 194.933 94.5 193 94.5H83C81.067 94.5 79.5 92.933 79.5 91V82Z" fill="white"/>
<path d="M79.5 82C79.5 80.067 81.067 78.5 83 78.5H193C194.933 78.5 196.5 80.067 196.5 82V91C196.5 92.933 194.933 94.5 193 94.5H83C81.067 94.5 79.5 92.933 79.5 91V82Z" stroke="#D3D4D5"/>
<rect x="85" y="85" width="32" height="3" rx="1.5" fill="#E7E7E8"/>
<rect x="201.5" y="78.5" width="16" height="16" rx="3.5" stroke="#D3D4D5"/>
<path d="M212.75 86.5C212.75 86.7812 212.516 87.0156 212.25 87.0156H210V89.2656C210 89.5312 209.766 89.75 209.5 89.75C209.219 89.75 209 89.5312 209 89.2656V87.0156H206.75C206.469 87.0156 206.25 86.7812 206.25 86.5C206.25 86.2344 206.469 86.0156 206.75 86.0156H209V83.7656C209 83.4844 209.219 83.25 209.5 83.25C209.766 83.25 210 83.4844 210 83.7656V86.0156H212.25C212.516 86 212.75 86.2344 212.75 86.5Z" fill="#ABADAF"/>
</svg>
