<svg width="296" height="141" viewBox="0 0 296 141" fill="none" xmlns="http://www.w3.org/2000/svg">
<g clip-path="url(#clip0_227_12591)">
<path d="M64.5 47C64.5 43.9624 66.9624 41.5 70 41.5H226C229.038 41.5 231.5 43.9624 231.5 47V146C231.5 149.038 229.038 151.5 226 151.5H70C66.9624 151.5 64.5 149.038 64.5 146V47Z" fill="#F9FAFA"/>
<path d="M64.5 47C64.5 43.9624 66.9624 41.5 70 41.5H226C229.038 41.5 231.5 43.9624 231.5 47V146C231.5 149.038 229.038 151.5 226 151.5H70C66.9624 151.5 64.5 149.038 64.5 146V47Z" stroke="#D3D4D5"/>
<mask id="path-2-inside-1_227_12591" fill="white">
<path d="M65 41H231V53H65V41Z"/>
</mask>
<path d="M231 52H65V54H231V52Z" fill="#E7E7E8" mask="url(#path-2-inside-1_227_12591)"/>
<rect x="71" y="45" width="4" height="4" rx="2" fill="#E53E3E"/>
<rect x="78" y="45" width="4" height="4" rx="2" fill="#FBC434"/>
<rect x="85" y="45" width="4" height="4" rx="2" fill="#0EA371"/>
<path d="M65 53H231V68H65V53Z" fill="white"/>
<rect x="74" y="57" width="7" height="7" rx="3.5" fill="#D3D4D5"/>
<rect x="87" y="59" width="17" height="3" rx="1.5" fill="#D3D4D5"/>
<rect x="110" y="59" width="17" height="3" rx="1.5" fill="#D3D4D5"/>
<rect x="133" y="59" width="17" height="3" rx="1.5" fill="#D3D4D5"/>
<rect width="166" height="13" transform="translate(65 68)" fill="#8952E0"/>
<path d="M76 74.75C76 76.4141 74.6523 77.75 73 77.75C71.3359 77.75 70 76.4141 70 74.75C70 73.0977 71.3359 71.75 73 71.75C74.6523 71.75 76 73.0977 76 74.75Z" fill="#B795EC"/>
<rect x="79" y="73" width="32" height="3" rx="1.5" fill="#B795EC"/>
<rect x="201" y="73" width="11" height="3" rx="1.5" fill="#B795EC"/>
<rect x="215" y="73" width="11" height="3" rx="1.5" fill="#B795EC"/>
</g>
<defs>
<clipPath id="clip0_227_12591">
<rect width="296" height="141" fill="white"/>
</clipPath>
</defs>
</svg>
