<svg width="296" height="141" viewBox="0 0 296 141" fill="none" xmlns="http://www.w3.org/2000/svg">
<path d="M82.5 31C82.5 27.9624 84.9624 25.5 88 25.5H208C211.038 25.5 213.5 27.9624 213.5 31V110C213.5 113.038 211.038 115.5 208 115.5H88C84.9624 115.5 82.5 113.038 82.5 110V31Z" fill="white"/>
<path d="M82.5 31C82.5 27.9624 84.9624 25.5 88 25.5H208C211.038 25.5 213.5 27.9624 213.5 31V110C213.5 113.038 211.038 115.5 208 115.5H88C84.9624 115.5 82.5 113.038 82.5 110V31Z" stroke="#D3D4D5"/>
<mask id="path-2-inside-1_227_12535" fill="white">
<path d="M83 31C83 28.2386 85.2386 26 88 26H208C210.761 26 213 28.2386 213 31V38H83V31Z"/>
</mask>
<path d="M83 31C83 28.2386 85.2386 26 88 26H208C210.761 26 213 28.2386 213 31V38H83V31Z" fill="#F9FAFA"/>
<path d="M83 26H213H83ZM213 39H83V37H213V39ZM83 38V26V38ZM213 26V38V26Z" fill="#E7E7E8" mask="url(#path-2-inside-1_227_12535)"/>
<rect x="89" y="30" width="4" height="4" rx="2" fill="#E53E3E"/>
<rect x="96" y="30" width="4" height="4" rx="2" fill="#FBC434"/>
<rect x="103" y="30" width="4" height="4" rx="2" fill="#0EA371"/>
<rect x="103" y="42" width="15" height="3" rx="1.5" fill="#ABADAF"/>
<rect x="199" y="42" width="5" height="3" rx="1.5" fill="#ABADAF"/>
<rect width="130" height="11" transform="translate(83 50)" fill="#E5DAF8"/>
<path d="M96.5078 53.9922C96.6602 54.1328 96.6602 54.3789 96.5078 54.5195L93.5078 57.5195C93.3672 57.6719 93.1211 57.6719 92.9805 57.5195L91.4805 56.0195C91.3281 55.8789 91.3281 55.6328 91.4805 55.4922C91.6211 55.3398 91.8672 55.3398 92.0078 55.4922L93.2383 56.7227L95.9805 53.9922C96.1211 53.8398 96.3672 53.8398 96.5078 53.9922Z" fill="#8952E0"/>
<rect x="103" y="54" width="32" height="3" rx="1.5" fill="#8952E0"/>
<rect x="193" y="54" width="11" height="3" rx="1.5" fill="#B795EC"/>
<rect width="130" height="11" transform="translate(83 62)" fill="#E5DAF8"/>
<path d="M96.5078 65.9922C96.6602 66.1328 96.6602 66.3789 96.5078 66.5195L93.5078 69.5195C93.3672 69.6719 93.1211 69.6719 92.9805 69.5195L91.4805 68.0195C91.3281 67.8789 91.3281 67.6328 91.4805 67.4922C91.6211 67.3398 91.8672 67.3398 92.0078 67.4922L93.2383 68.7227L95.9805 65.9922C96.1211 65.8398 96.3672 65.8398 96.5078 65.9922Z" fill="#8952E0"/>
<rect x="103" y="66" width="32" height="3" rx="1.5" fill="#8952E0"/>
<rect x="193" y="66" width="11" height="3" rx="1.5" fill="#B795EC"/>
<rect x="103" y="78" width="32" height="3" rx="1.5" fill="#D3D4D5"/>
<rect x="193" y="78" width="11" height="3" rx="1.5" fill="#D3D4D5"/>
<rect x="103" y="90" width="32" height="3" rx="1.5" fill="#D3D4D5"/>
<rect x="193" y="90" width="11" height="3" rx="1.5" fill="#D3D4D5"/>
<rect x="103" y="102" width="32" height="3" rx="1.5" fill="#D3D4D5"/>
<rect x="193" y="102" width="11" height="3" rx="1.5" fill="#D3D4D5"/>
<rect x="101" y="91" width="93" height="17" rx="4" fill="#33373D"/>
<rect x="101" y="91" width="93" height="17" rx="4" stroke="#D3D4D5"/>
<rect x="109" y="98" width="17" height="3" rx="1.5" fill="#D3D4D5"/>
<rect x="161" y="98" width="11" height="3" rx="1.5" fill="#D3D4D5"/>
<rect x="175" y="98" width="11" height="3" rx="1.5" fill="#8952E0"/>
</svg>
