<svg width="296" height="141" viewBox="0 0 296 141" fill="none" xmlns="http://www.w3.org/2000/svg">
<path d="M82.5 35C82.5 31.9624 84.9624 29.5 88 29.5H144C147.038 29.5 149.5 31.9624 149.5 35V112C149.5 115.038 147.038 117.5 144 117.5H88C84.9624 117.5 82.5 115.038 82.5 112V35Z" fill="white"/>
<path d="M82.5 35C82.5 31.9624 84.9624 29.5 88 29.5H144C147.038 29.5 149.5 31.9624 149.5 35V112C149.5 115.038 147.038 117.5 144 117.5H88C84.9624 117.5 82.5 115.038 82.5 112V35Z" stroke="#D3D4D5"/>
<rect x="91" y="39" width="20" height="3" rx="1.5" fill="#D3D4D5"/>
<rect x="91" y="52" width="20" height="3" rx="1.5" fill="#D3D4D5"/>
<rect width="68" height="1" transform="translate(82 63)" fill="#E7E7E8"/>
<rect width="68" height="13" transform="translate(82 67)" fill="#F1F1F2"/>
<rect x="91" y="72" width="20" height="3" rx="1.5" fill="#D3D4D5"/>
<path d="M138.344 71.6562L140.344 73.6406C140.438 73.75 140.5 73.875 140.5 74C140.5 74.1094 140.438 74.25 140.344 74.3438L138.344 76.3281C138.203 76.4688 137.984 76.5156 137.797 76.4375C137.609 76.3594 137.5 76.2031 137.5 76V72C137.5 71.8125 137.609 71.625 137.797 71.5469C137.984 71.4688 138.203 71.5156 138.344 71.6562Z" fill="#D3D4D5"/>
<rect x="91" y="85" width="20" height="3" rx="1.5" fill="#D3D4D5"/>
<rect width="68" height="1" transform="translate(82 96)" fill="#E7E7E8"/>
<rect x="91" y="105" width="20" height="3" rx="1.5" fill="#D3D4D5"/>
<path d="M147.5 69C147.5 65.9624 149.962 63.5 153 63.5H209C212.038 63.5 214.5 65.9624 214.5 69V94C214.5 97.0376 212.038 99.5 209 99.5H153C149.962 99.5 147.5 97.0376 147.5 94V69Z" fill="white"/>
<path d="M147.5 69C147.5 65.9624 149.962 63.5 153 63.5H209C212.038 63.5 214.5 65.9624 214.5 69V94C214.5 97.0376 212.038 99.5 209 99.5H153C149.962 99.5 147.5 97.0376 147.5 94V69Z" stroke="#D3D4D5"/>
<rect x="156" y="73" width="20" height="3" rx="1.5" fill="#D3D4D5"/>
<rect width="68" height="13" transform="translate(147 81)" fill="#F1F1F2"/>
<rect x="156" y="86" width="20" height="3" rx="1.5" fill="#D3D4D5"/>
<mask id="path-11-outside-1_201_1628" maskUnits="userSpaceOnUse" x="193" y="87" width="9" height="12" fill="black">
<rect fill="white" x="193" y="87" width="9" height="12"/>
<path d="M200.623 94.207C200.545 94.3828 200.369 94.5195 200.174 94.5195H198.123L199.021 96.3555C199.197 96.7461 199.041 97.2148 198.65 97.4102C198.259 97.5859 197.791 97.4297 197.595 97.0391L196.697 95.125L195.232 96.8438C195.134 96.9609 194.998 97.0195 194.881 97.0195C194.822 97.0195 194.763 97 194.705 96.9805C194.529 96.9219 194.412 96.7461 194.412 96.5312V89.3633C194.412 89.168 194.509 88.9922 194.685 88.9336C194.841 88.8555 195.037 88.875 195.174 88.9922L200.466 93.6797C200.642 93.8164 200.681 94.0312 200.623 94.207Z"/>
</mask>
<path d="M200.623 94.207C200.545 94.3828 200.369 94.5195 200.174 94.5195H198.123L199.021 96.3555C199.197 96.7461 199.041 97.2148 198.65 97.4102C198.259 97.5859 197.791 97.4297 197.595 97.0391L196.697 95.125L195.232 96.8438C195.134 96.9609 194.998 97.0195 194.881 97.0195C194.822 97.0195 194.763 97 194.705 96.9805C194.529 96.9219 194.412 96.7461 194.412 96.5312V89.3633C194.412 89.168 194.509 88.9922 194.685 88.9336C194.841 88.8555 195.037 88.875 195.174 88.9922L200.466 93.6797C200.642 93.8164 200.681 94.0312 200.623 94.207Z" fill="#171A1D"/>
<path d="M200.623 94.207L201.537 94.6132L201.556 94.5691L201.571 94.5233L200.623 94.207ZM198.123 94.5195V93.5195H196.52L197.225 94.9591L198.123 94.5195ZM199.021 96.3555L199.933 95.9451L199.926 95.9304L199.919 95.9159L199.021 96.3555ZM198.65 97.4102L199.06 98.3221L199.079 98.3137L199.097 98.3046L198.65 97.4102ZM197.595 97.0391L196.69 97.464L196.695 97.4752L196.701 97.4863L197.595 97.0391ZM196.697 95.125L197.602 94.7001L196.943 93.295L195.936 94.4763L196.697 95.125ZM195.232 96.8438L194.471 96.1951L194.464 96.2036L195.232 96.8438ZM194.685 88.9336L195.001 89.8823L195.069 89.8598L195.132 89.828L194.685 88.9336ZM195.174 88.9922L195.837 88.2436L195.83 88.2382L195.824 88.2329L195.174 88.9922ZM200.466 93.6797L199.803 94.4283L199.827 94.4495L199.853 94.469L200.466 93.6797ZM199.709 93.8009C199.742 93.727 199.792 93.6649 199.858 93.6172C199.927 93.5682 200.034 93.5195 200.174 93.5195V95.5195C200.836 95.5195 201.329 95.0795 201.537 94.6132L199.709 93.8009ZM200.174 93.5195H198.123V95.5195H200.174V93.5195ZM197.225 94.9591L198.123 96.795L199.919 95.9159L199.021 94.08L197.225 94.9591ZM198.109 96.7658C198.072 96.6824 198.099 96.5676 198.203 96.5157L199.097 98.3046C199.982 97.8621 200.322 96.8098 199.933 95.9451L198.109 96.7658ZM198.24 96.4982C198.323 96.4607 198.438 96.488 198.49 96.5918L196.701 97.4863C197.143 98.3713 198.196 98.7112 199.06 98.3221L198.24 96.4982ZM198.501 96.6142L197.602 94.7001L195.792 95.5499L196.69 97.464L198.501 96.6142ZM195.936 94.4763L194.471 96.1951L195.993 97.4924L197.458 95.7737L195.936 94.4763ZM194.464 96.2036C194.509 96.1489 194.566 96.105 194.631 96.0741C194.693 96.0443 194.777 96.0195 194.881 96.0195V98.0195C195.308 98.0195 195.722 97.8183 196 97.4839L194.464 96.2036ZM194.881 96.0195C194.96 96.0195 195.017 96.0326 195.035 96.0372C195.045 96.0397 195.05 96.0413 195.047 96.0403C195.043 96.039 195.037 96.0372 195.021 96.0318L194.389 97.9292C194.414 97.9375 194.63 98.0195 194.881 98.0195V96.0195ZM195.021 96.0318C195.32 96.1314 195.412 96.3898 195.412 96.5312H193.412C193.412 97.1024 193.738 97.7124 194.389 97.9292L195.021 96.0318ZM195.412 96.5312V89.3633H193.412V96.5312H195.412ZM195.412 89.3633C195.412 89.4694 195.344 89.768 195.001 89.8823L194.369 87.9849C193.675 88.2164 193.412 88.8665 193.412 89.3633H195.412ZM195.132 89.828C194.941 89.9236 194.702 89.9051 194.523 89.7514L195.824 88.2329C195.372 87.8449 194.742 87.7874 194.238 88.0392L195.132 89.828ZM194.511 89.7408L199.803 94.4283L201.129 92.9311L195.837 88.2436L194.511 89.7408ZM199.853 94.469C199.648 94.3096 199.618 94.059 199.674 93.8908L201.571 94.5233C201.745 94.0035 201.637 93.3232 201.08 92.8903L199.853 94.469Z" fill="white" mask="url(#path-11-outside-1_201_1628)"/>
</svg>
