<svg width="296" height="141" viewBox="0 0 296 141" fill="none" xmlns="http://www.w3.org/2000/svg">
<path d="M82 32C82 28.9624 84.4624 26.5 87.5 26.5H143.5C146.538 26.5 149 28.9624 149 32V109C149 112.038 146.538 114.5 143.5 114.5H87.5C84.4624 114.5 82 112.038 82 109V32Z" fill="#1D2025"/>
<path d="M82 32C82 28.9624 84.4624 26.5 87.5 26.5H143.5C146.538 26.5 149 28.9624 149 32V109C149 112.038 146.538 114.5 143.5 114.5H87.5C84.4624 114.5 82 112.038 82 109V32Z" stroke="#33373D"/>
<rect x="91.5" y="36" width="20" height="3" rx="1.5" fill="#52555A"/>
<rect x="91.5" y="49" width="20" height="3" rx="1.5" fill="#52555A"/>
<rect width="66" height="1" transform="translate(82.5 60)" fill="#33373D"/>
<rect width="66" height="13" transform="translate(82.5 64)" fill="white" fill-opacity="0.06"/>
<rect x="91.5" y="69" width="20" height="3" rx="1.5" fill="#52555A"/>
<path d="M136.844 68.6562L138.844 70.6406C138.938 70.75 139 70.875 139 71C139 71.1094 138.938 71.25 138.844 71.3438L136.844 73.3281C136.703 73.4688 136.484 73.5156 136.297 73.4375C136.109 73.3594 136 73.2031 136 73V69C136 68.8125 136.109 68.625 136.297 68.5469C136.484 68.4688 136.703 68.5156 136.844 68.6562Z" fill="#52555A"/>
<rect x="91.5" y="82" width="20" height="3" rx="1.5" fill="#52555A"/>
<rect width="66" height="1" transform="translate(82.5 93)" fill="#33373D"/>
<rect x="91.5" y="102" width="20" height="3" rx="1.5" fill="#52555A"/>
<path d="M147 66C147 62.9624 149.462 60.5 152.5 60.5H208.5C211.538 60.5 214 62.9624 214 66V91C214 94.0376 211.538 96.5 208.5 96.5H152.5C149.462 96.5 147 94.0376 147 91V66Z" fill="#1D2025"/>
<path d="M147 66C147 62.9624 149.462 60.5 152.5 60.5H208.5C211.538 60.5 214 62.9624 214 66V91C214 94.0376 211.538 96.5 208.5 96.5H152.5C149.462 96.5 147 94.0376 147 91V66Z" stroke="#33373D"/>
<rect x="156.5" y="70" width="20" height="3" rx="1.5" fill="#52555A"/>
<rect width="66" height="13" transform="translate(147.5 78)" fill="white" fill-opacity="0.06"/>
<rect x="156.5" y="83" width="20" height="3" rx="1.5" fill="#52555A"/>
<mask id="path-11-outside-1_227_14680" maskUnits="userSpaceOnUse" x="192.5" y="84" width="9" height="12" fill="black">
<rect fill="white" x="192.5" y="84" width="9" height="12"/>
<path d="M200.123 91.207C200.045 91.3828 199.869 91.5195 199.674 91.5195H197.623L198.521 93.3555C198.697 93.7461 198.541 94.2148 198.15 94.4102C197.759 94.5859 197.291 94.4297 197.095 94.0391L196.197 92.125L194.732 93.8438C194.634 93.9609 194.498 94.0195 194.381 94.0195C194.322 94.0195 194.263 94 194.205 93.9805C194.029 93.9219 193.912 93.7461 193.912 93.5312V86.3633C193.912 86.168 194.009 85.9922 194.185 85.9336C194.341 85.8555 194.537 85.875 194.674 85.9922L199.966 90.6797C200.142 90.8164 200.181 91.0312 200.123 91.207Z"/>
</mask>
<path d="M200.123 91.207C200.045 91.3828 199.869 91.5195 199.674 91.5195H197.623L198.521 93.3555C198.697 93.7461 198.541 94.2148 198.15 94.4102C197.759 94.5859 197.291 94.4297 197.095 94.0391L196.197 92.125L194.732 93.8438C194.634 93.9609 194.498 94.0195 194.381 94.0195C194.322 94.0195 194.263 94 194.205 93.9805C194.029 93.9219 193.912 93.7461 193.912 93.5312V86.3633C193.912 86.168 194.009 85.9922 194.185 85.9336C194.341 85.8555 194.537 85.875 194.674 85.9922L199.966 90.6797C200.142 90.8164 200.181 91.0312 200.123 91.207Z" fill="#171A1D"/>
<path d="M200.123 91.207L201.037 91.6132L201.056 91.5691L201.071 91.5233L200.123 91.207ZM197.623 91.5195V90.5195H196.02L196.725 91.9591L197.623 91.5195ZM198.521 93.3555L199.433 92.9451L199.426 92.9304L199.419 92.9159L198.521 93.3555ZM198.15 94.4102L198.56 95.3221L198.579 95.3137L198.597 95.3046L198.15 94.4102ZM197.095 94.0391L196.19 94.464L196.195 94.4752L196.201 94.4863L197.095 94.0391ZM196.197 92.125L197.102 91.7001L196.443 90.295L195.436 91.4763L196.197 92.125ZM194.732 93.8438L193.971 93.1951L193.964 93.2036L194.732 93.8438ZM194.185 85.9336L194.501 86.8823L194.569 86.8598L194.632 86.828L194.185 85.9336ZM194.674 85.9922L195.337 85.2436L195.33 85.2382L195.324 85.2329L194.674 85.9922ZM199.966 90.6797L199.303 91.4283L199.327 91.4495L199.353 91.469L199.966 90.6797ZM199.209 90.8009C199.242 90.727 199.292 90.6649 199.358 90.6172C199.427 90.5682 199.534 90.5195 199.674 90.5195V92.5195C200.336 92.5195 200.829 92.0795 201.037 91.6132L199.209 90.8009ZM199.674 90.5195H197.623V92.5195H199.674V90.5195ZM196.725 91.9591L197.623 93.795L199.419 92.9159L198.521 91.08L196.725 91.9591ZM197.609 93.7658C197.572 93.6824 197.599 93.5676 197.703 93.5157L198.597 95.3046C199.482 94.8621 199.822 93.8098 199.433 92.9451L197.609 93.7658ZM197.74 93.4982C197.823 93.4607 197.938 93.488 197.99 93.5918L196.201 94.4863C196.643 95.3713 197.696 95.7112 198.56 95.3221L197.74 93.4982ZM198.001 93.6142L197.102 91.7001L195.292 92.5499L196.19 94.464L198.001 93.6142ZM195.436 91.4763L193.971 93.1951L195.493 94.4924L196.958 92.7737L195.436 91.4763ZM193.964 93.2036C194.009 93.1489 194.066 93.105 194.131 93.0741C194.193 93.0443 194.277 93.0195 194.381 93.0195V95.0195C194.808 95.0195 195.222 94.8183 195.5 94.4839L193.964 93.2036ZM194.381 93.0195C194.46 93.0195 194.517 93.0326 194.535 93.0372C194.545 93.0397 194.55 93.0413 194.547 93.0403C194.543 93.039 194.537 93.0372 194.521 93.0318L193.889 94.9292C193.914 94.9375 194.13 95.0195 194.381 95.0195V93.0195ZM194.521 93.0318C194.82 93.1314 194.912 93.3898 194.912 93.5312H192.912C192.912 94.1024 193.238 94.7124 193.889 94.9292L194.521 93.0318ZM194.912 93.5312V86.3633H192.912V93.5312H194.912ZM194.912 86.3633C194.912 86.4694 194.844 86.768 194.501 86.8823L193.869 84.9849C193.175 85.2164 192.912 85.8665 192.912 86.3633H194.912ZM194.632 86.828C194.441 86.9236 194.202 86.9051 194.023 86.7514L195.324 85.2329C194.872 84.8449 194.242 84.7874 193.738 85.0392L194.632 86.828ZM194.011 86.7408L199.303 91.4283L200.629 89.9311L195.337 85.2436L194.011 86.7408ZM199.353 91.469C199.148 91.3096 199.118 91.059 199.174 90.8908L201.071 91.5233C201.245 91.0035 201.137 90.3232 200.58 89.8903L199.353 91.469Z" fill="white" mask="url(#path-11-outside-1_227_14680)"/>
</svg>
