<svg width="296" height="141" viewBox="0 0 296 141" fill="none" xmlns="http://www.w3.org/2000/svg">
<path d="M70.5 46C70.5 42.9624 72.9624 40.5 76 40.5H220C223.038 40.5 225.5 42.9624 225.5 46V95C225.5 98.0376 223.038 100.5 220 100.5H76C72.9624 100.5 70.5 98.0376 70.5 95V46Z" fill="white"/>
<path d="M70.5 46C70.5 42.9624 72.9624 40.5 76 40.5H220C223.038 40.5 225.5 42.9624 225.5 46V95C225.5 98.0376 223.038 100.5 220 100.5H76C72.9624 100.5 70.5 98.0376 70.5 95V46Z" stroke="#D3D4D5"/>
<mask id="path-2-inside-1_101_12253" fill="white">
<path d="M70 40H225V55H70V40Z"/>
</mask>
<path d="M70 40H225V55H70V40Z" fill="#F9FAFA"/>
<path d="M225 54H70V56H225V54Z" fill="#E7E7E8" mask="url(#path-2-inside-1_101_12253)"/>
<path d="M75.875 45.375C75.875 44.9648 76.2031 44.625 76.625 44.625H80.375C80.7852 44.625 81.125 44.9648 81.125 45.375V49.125C81.125 49.5469 80.7852 49.875 80.375 49.875H76.625C76.2031 49.875 75.875 49.5469 75.875 49.125V45.375Z" fill="#E7E7E8"/>
<rect x="89" y="46" width="20" height="3" rx="1.5" fill="#ABADAF"/>
<rect x="129" y="46" width="14" height="3" rx="1.5" fill="#ABADAF"/>
<rect x="155" y="46" width="14" height="3" rx="1.5" fill="#ABADAF"/>
<rect x="181" y="46" width="14" height="3" rx="1.5" fill="#ABADAF"/>
<rect x="207" y="46" width="12" height="3" rx="1.5" fill="#ABADAF"/>
<mask id="path-10-inside-2_101_12253" fill="white">
<path d="M70 55H225V70H70V55Z"/>
</mask>
<path d="M70 55H225V70H70V55Z" fill="white"/>
<path d="M225 69H70V71H225V69Z" fill="#E7E7E8" mask="url(#path-10-inside-2_101_12253)"/>
<path d="M75.875 60.375C75.875 59.9648 76.2031 59.625 76.625 59.625H80.375C80.7852 59.625 81.125 59.9648 81.125 60.375V64.125C81.125 64.5469 80.7852 64.875 80.375 64.875H76.625C76.2031 64.875 75.875 64.5469 75.875 64.125V60.375Z" fill="#E7E7E8"/>
<path d="M97 63C97 65.2188 95.2031 67 93 67C90.7812 67 89 65.2188 89 63C89 60.7969 90.7812 59 93 59C95.2031 59 97 60.7969 97 63Z" fill="#D3D4D5"/>
<rect x="101" y="61" width="20" height="3" rx="1.5" fill="#D3D4D5"/>
<rect x="129" y="61" width="14" height="3" rx="1.5" fill="#D3D4D5"/>
<rect x="155" y="61" width="14" height="3" rx="1.5" fill="#D3D4D5"/>
<rect x="181" y="61" width="14" height="3" rx="1.5" fill="#D3D4D5"/>
<rect x="212" y="61" width="7" height="3" rx="1.5" fill="#8952E0"/>
<mask id="path-19-inside-3_101_12253" fill="white">
<path d="M70 70H225V85H70V70Z"/>
</mask>
<path d="M70 70H225V85H70V70Z" fill="#F9FAFA"/>
<path d="M225 84H70V86H225V84Z" fill="#E7E7E8" mask="url(#path-19-inside-3_101_12253)"/>
<path d="M80.375 74.625C80.7852 74.625 81.125 74.9648 81.125 75.375V79.125C81.125 79.5469 80.7852 79.875 80.375 79.875H76.625C76.2031 79.875 75.875 79.5469 75.875 79.125V75.375C75.875 74.9648 76.2031 74.625 76.625 74.625H80.375ZM79.8477 76.7344C79.9766 76.6055 79.9766 76.4062 79.8477 76.2773C79.7188 76.1484 79.5195 76.1484 79.3906 76.2773L78.125 77.543L77.5977 77.0273C77.4688 76.8984 77.2695 76.8984 77.1406 77.0273C77.0117 77.1562 77.0117 77.3555 77.1406 77.4844L77.8906 78.2344C78.0195 78.3633 78.2188 78.3633 78.3477 78.2344L79.8477 76.7344Z" fill="#8952E0"/>
<path d="M97 78C97 80.2188 95.2031 82 93 82C90.7812 82 89 80.2188 89 78C89 75.7969 90.7812 74 93 74C95.2031 74 97 75.7969 97 78Z" fill="#D3D4D5"/>
<rect x="101" y="76" width="20" height="3" rx="1.5" fill="#D3D4D5"/>
<rect x="129" y="76" width="14" height="3" rx="1.5" fill="#D3D4D5"/>
<rect x="155" y="76" width="14" height="3" rx="1.5" fill="#D3D4D5"/>
<rect x="181" y="76" width="14" height="3" rx="1.5" fill="#D3D4D5"/>
<rect x="212" y="76" width="7" height="3" rx="1.5" fill="#8952E0"/>
<rect width="155" height="15" transform="translate(70 85)" fill="white"/>
<path d="M75.875 90.375C75.875 89.9648 76.2031 89.625 76.625 89.625H80.375C80.7852 89.625 81.125 89.9648 81.125 90.375V94.125C81.125 94.5469 80.7852 94.875 80.375 94.875H76.625C76.2031 94.875 75.875 94.5469 75.875 94.125V90.375Z" fill="#E7E7E8"/>
<path d="M97 93C97 95.2188 95.2031 97 93 97C90.7812 97 89 95.2188 89 93C89 90.7969 90.7812 89 93 89C95.2031 89 97 90.7969 97 93Z" fill="#D3D4D5"/>
<rect x="101" y="91" width="20" height="3" rx="1.5" fill="#D3D4D5"/>
<rect x="129" y="91" width="14" height="3" rx="1.5" fill="#D3D4D5"/>
<rect x="155" y="91" width="14" height="3" rx="1.5" fill="#D3D4D5"/>
<rect x="181" y="91" width="14" height="3" rx="1.5" fill="#D3D4D5"/>
<rect x="212" y="91" width="7" height="3" rx="1.5" fill="#8952E0"/>
</svg>
