<svg width="296" height="141" viewBox="0 0 296 141" fill="none" xmlns="http://www.w3.org/2000/svg">
<rect width="296" height="141" fill="#F1F1F2"/>
<g clip-path="url(#clip0_104_8586)">
<path d="M71 45C71 41.6863 73.6863 39 77 39H219C222.314 39 225 41.6863 225 45V96C225 99.3137 222.314 102 219 102H77C73.6863 102 71 99.3137 71 96V45Z" fill="white"/>
<mask id="path-3-inside-1_104_8586" fill="white">
<path d="M71 40H226V55H71V40Z"/>
</mask>
<path d="M71 40H226V55H71V40Z" fill="#F9FAFA"/>
<path d="M226 54H71V56H226V54Z" fill="#E7E7E8" mask="url(#path-3-inside-1_104_8586)"/>
<path d="M76.875 45.375C76.875 44.9648 77.2031 44.625 77.625 44.625H81.375C81.7852 44.625 82.125 44.9648 82.125 45.375V49.125C82.125 49.5469 81.7852 49.875 81.375 49.875H77.625C77.2031 49.875 76.875 49.5469 76.875 49.125V45.375Z" fill="#8952E0"/>
<rect x="90" y="46" width="20" height="3" rx="1.5" fill="#ABADAF"/>
<path d="M117.758 47.1445L116.27 48.6445C116.188 48.7148 116.094 48.75 116 48.75C115.895 48.75 115.801 48.7148 115.73 48.6445L114.242 47.1445C114.125 47.0391 114.09 46.875 114.148 46.7344C114.207 46.5938 114.348 46.5 114.5 46.5H117.488C117.641 46.5 117.77 46.5938 117.828 46.7344C117.887 46.875 117.863 47.0391 117.758 47.1445Z" fill="#ABADAF"/>
<rect x="130" y="46" width="14" height="3" rx="1.5" fill="#ABADAF"/>
<path d="M146.23 47.8672L147.719 46.3672C147.801 46.2969 147.895 46.25 148 46.25C148.094 46.25 148.188 46.2969 148.258 46.3672L149.746 47.8672C149.852 47.9727 149.887 48.1367 149.828 48.2773C149.77 48.418 149.641 48.5 149.488 48.5H146.5C146.348 48.5 146.207 48.418 146.148 48.2773C146.09 48.1367 146.125 47.9727 146.23 47.8672Z" fill="#ABADAF"/>
<rect x="156" y="46" width="14" height="3" rx="1.5" fill="#ABADAF"/>
<rect x="182" y="46" width="14" height="3" rx="1.5" fill="#ABADAF"/>
<path d="M201.758 47.1445L200.27 48.6445C200.188 48.7148 200.094 48.75 200 48.75C199.895 48.75 199.801 48.7148 199.73 48.6445L198.242 47.1445C198.125 47.0391 198.09 46.875 198.148 46.7344C198.207 46.5938 198.348 46.5 198.5 46.5H201.488C201.641 46.5 201.77 46.5938 201.828 46.7344C201.887 46.875 201.863 47.0391 201.758 47.1445Z" fill="#ABADAF"/>
<rect x="208" y="46" width="12" height="3" rx="1.5" fill="#ABADAF"/>
<mask id="path-14-inside-2_104_8586" fill="white">
<path d="M71 55H226V70H71V55Z"/>
</mask>
<path d="M71 55H226V70H71V55Z" fill="white"/>
<path d="M226 69H71V71H226V69Z" fill="#E7E7E8" mask="url(#path-14-inside-2_104_8586)"/>
<path d="M76.875 60.375C76.875 59.9648 77.2031 59.625 77.625 59.625H81.375C81.7852 59.625 82.125 59.9648 82.125 60.375V64.125C82.125 64.5469 81.7852 64.875 81.375 64.875H77.625C77.2031 64.875 76.875 64.5469 76.875 64.125V60.375Z" fill="#D3D4D5"/>
<rect x="90" y="61" width="20" height="3" rx="1.5" fill="#D3D4D5"/>
<rect x="130" y="61" width="14" height="3" rx="1.5" fill="#D3D4D5"/>
<rect x="156" y="61" width="14" height="3" rx="1.5" fill="#D3D4D5"/>
<rect x="182" y="61" width="14" height="3" rx="1.5" fill="#D3D4D5"/>
<rect x="213" y="61" width="7" height="3" rx="1.5" fill="#D3D4D5"/>
<mask id="path-22-inside-3_104_8586" fill="white">
<path d="M71 70H226V85H71V70Z"/>
</mask>
<path d="M226 84H71V86H226V84Z" fill="#E7E7E8" mask="url(#path-22-inside-3_104_8586)"/>
<path d="M76.875 75.375C76.875 74.9648 77.2031 74.625 77.625 74.625H81.375C81.7852 74.625 82.125 74.9648 82.125 75.375V79.125C82.125 79.5469 81.7852 79.875 81.375 79.875H77.625C77.2031 79.875 76.875 79.5469 76.875 79.125V75.375Z" fill="#8952E0"/>
<rect x="90" y="76" width="20" height="3" rx="1.5" fill="#D3D4D5"/>
<rect x="130" y="76" width="14" height="3" rx="1.5" fill="#D3D4D5"/>
<rect x="156" y="76" width="14" height="3" rx="1.5" fill="#D3D4D5"/>
<rect x="182" y="76" width="14" height="3" rx="1.5" fill="#D3D4D5"/>
<rect x="213" y="76" width="7" height="3" rx="1.5" fill="#D3D4D5"/>
<rect width="155" height="15" transform="translate(71 85)" fill="white"/>
<path d="M76.875 90.375C76.875 89.9648 77.2031 89.625 77.625 89.625H81.375C81.7852 89.625 82.125 89.9648 82.125 90.375V94.125C82.125 94.5469 81.7852 94.875 81.375 94.875H77.625C77.2031 94.875 76.875 94.5469 76.875 94.125V90.375Z" fill="#D3D4D5"/>
<rect x="90" y="91" width="20" height="3" rx="1.5" fill="#D3D4D5"/>
<rect x="130" y="91" width="14" height="3" rx="1.5" fill="#D3D4D5"/>
<rect x="156" y="91" width="14" height="3" rx="1.5" fill="#D3D4D5"/>
<rect x="182" y="91" width="14" height="3" rx="1.5" fill="#D3D4D5"/>
<rect x="213" y="91" width="7" height="3" rx="1.5" fill="#D3D4D5"/>
</g>
<path d="M71.5 45C71.5 41.9624 73.9624 39.5 77 39.5H219C222.038 39.5 224.5 41.9624 224.5 45V96C224.5 99.0376 222.038 101.5 219 101.5H77C73.9624 101.5 71.5 99.0376 71.5 96V45Z" stroke="#D3D4D5"/>
<defs>
<clipPath id="clip0_104_8586">
<path d="M71 45C71 41.6863 73.6863 39 77 39H219C222.314 39 225 41.6863 225 45V96C225 99.3137 222.314 102 219 102H77C73.6863 102 71 99.3137 71 96V45Z" fill="white"/>
</clipPath>
</defs>
</svg>
