<svg width="296" height="141" viewBox="0 0 296 141" fill="none" xmlns="http://www.w3.org/2000/svg">
<path d="M68.5 38C68.5 34.9624 70.9624 32.5 74 32.5H222C225.038 32.5 227.5 34.9624 227.5 38V103C227.5 106.038 225.038 108.5 222 108.5H74C70.9624 108.5 68.5 106.038 68.5 103V38Z" fill="white"/>
<path d="M68.5 38C68.5 34.9624 70.9624 32.5 74 32.5H222C225.038 32.5 227.5 34.9624 227.5 38V103C227.5 106.038 225.038 108.5 222 108.5H74C70.9624 108.5 68.5 106.038 68.5 103V38Z" stroke="#D3D4D5"/>
<mask id="path-2-inside-1_101_12272" fill="white">
<path d="M69 33H227V48H69V33Z"/>
</mask>
<path d="M69 33H227V48H69V33Z" fill="#F9FAFA"/>
<path d="M227 47H69V49H227V47Z" fill="#E7E7E8" mask="url(#path-2-inside-1_101_12272)"/>
<path d="M87.875 38.375C87.875 37.9648 88.2031 37.625 88.625 37.625H92.375C92.7852 37.625 93.125 37.9648 93.125 38.375V42.125C93.125 42.5469 92.7852 42.875 92.375 42.875H88.625C88.2031 42.875 87.875 42.5469 87.875 42.125V38.375Z" fill="#E7E7E8"/>
<rect x="101" y="39" width="20" height="3" rx="1.5" fill="#ABADAF"/>
<rect x="129" y="39" width="14" height="3" rx="1.5" fill="#ABADAF"/>
<rect x="155" y="39" width="14" height="3" rx="1.5" fill="#ABADAF"/>
<rect x="181" y="39" width="14" height="3" rx="1.5" fill="#ABADAF"/>
<rect x="207" y="39" width="14" height="3" rx="1.5" fill="#ABADAF"/>
<mask id="path-10-inside-2_101_12272" fill="white">
<path d="M69 48H227V63H69V48Z"/>
</mask>
<path d="M227 62H69V64H227V62Z" fill="#E7E7E8" mask="url(#path-10-inside-2_101_12272)"/>
<path d="M77.3242 52.9883L79.5742 55.2207C79.6797 55.3438 79.75 55.4844 79.75 55.625C79.75 55.748 79.6797 55.9062 79.5742 56.0117L77.3242 58.2441C77.166 58.4023 76.9199 58.4551 76.709 58.3672C76.498 58.2793 76.375 58.1035 76.375 57.875V53.375C76.375 53.1641 76.498 52.9531 76.709 52.8652C76.9199 52.7773 77.166 52.8301 77.3242 52.9883Z" fill="#ABADAF"/>
<path d="M87.875 53.375C87.875 52.9648 88.2031 52.625 88.625 52.625H92.375C92.7852 52.625 93.125 52.9648 93.125 53.375V57.125C93.125 57.5469 92.7852 57.875 92.375 57.875H88.625C88.2031 57.875 87.875 57.5469 87.875 57.125V53.375Z" fill="#E7E7E8"/>
<rect x="101" y="54" width="20" height="3" rx="1.5" fill="#D3D4D5"/>
<rect x="129" y="54" width="14" height="3" rx="1.5" fill="#D3D4D5"/>
<rect x="155" y="54" width="14" height="3" rx="1.5" fill="#D3D4D5"/>
<rect x="181" y="54" width="14" height="3" rx="1.5" fill="#D3D4D5"/>
<rect x="214" y="54" width="7" height="3" rx="1.5" fill="#8952E0"/>
<mask id="path-19-inside-3_101_12272" fill="white">
<path d="M69 63H227V78H69V63Z"/>
</mask>
<path d="M69 63H227V78H69V63Z" fill="#F9FAFA"/>
<path d="M227 77H69V79H227V77Z" fill="#E7E7E8" mask="url(#path-19-inside-3_101_12272)"/>
<path d="M80.1367 70.4668L77.9043 72.7168C77.7812 72.8223 77.6406 72.875 77.5 72.875C77.3418 72.875 77.2012 72.8223 77.0957 72.7168L74.8633 70.4668C74.6875 70.3086 74.6348 70.0625 74.7227 69.8516C74.8105 69.6406 75.0215 69.5 75.25 69.5H79.7324C79.9609 69.5 80.1543 69.6406 80.2422 69.8516C80.3301 70.0625 80.2949 70.3086 80.1367 70.4668Z" fill="#ABADAF"/>
<path d="M92.375 67.625C92.7852 67.625 93.125 67.9648 93.125 68.375V72.125C93.125 72.5469 92.7852 72.875 92.375 72.875H88.625C88.2031 72.875 87.875 72.5469 87.875 72.125V68.375C87.875 67.9648 88.2031 67.625 88.625 67.625H92.375ZM91.8477 69.7344C91.9766 69.6055 91.9766 69.4062 91.8477 69.2773C91.7188 69.1484 91.5195 69.1484 91.3906 69.2773L90.125 70.543L89.5977 70.0273C89.4688 69.8984 89.2695 69.8984 89.1406 70.0273C89.0117 70.1562 89.0117 70.3555 89.1406 70.4844L89.8906 71.2344C90.0195 71.3633 90.2188 71.3633 90.3477 71.2344L91.8477 69.7344Z" fill="#8952E0"/>
<rect x="101" y="69" width="20" height="3" rx="1.5" fill="#D3D4D5"/>
<rect x="129" y="69" width="14" height="3" rx="1.5" fill="#D3D4D5"/>
<rect x="155" y="69" width="14" height="3" rx="1.5" fill="#D3D4D5"/>
<rect x="181" y="69" width="14" height="3" rx="1.5" fill="#D3D4D5"/>
<rect x="214" y="69" width="7" height="3" rx="1.5" fill="#8952E0"/>
<mask id="path-28-inside-4_101_12272" fill="white">
<path d="M69 78H227V93H69V78Z"/>
</mask>
<path d="M69 78H227V93H69V78Z" fill="white"/>
<path d="M227 92H69V94H227V92Z" fill="#E7E7E8" mask="url(#path-28-inside-4_101_12272)"/>
<rect x="101" y="84" width="20" height="3" rx="1.5" fill="#D3D4D5"/>
<rect x="129" y="84" width="14" height="3" rx="1.5" fill="#D3D4D5"/>
<rect x="155" y="84" width="14" height="3" rx="1.5" fill="#D3D4D5"/>
<rect x="181" y="84" width="14" height="3" rx="1.5" fill="#D3D4D5"/>
<path d="M77.3242 97.9883L79.5742 100.221C79.6797 100.344 79.75 100.484 79.75 100.625C79.75 100.748 79.6797 100.906 79.5742 101.012L77.3242 103.244C77.166 103.402 76.9199 103.455 76.709 103.367C76.498 103.279 76.375 103.104 76.375 102.875V98.375C76.375 98.1641 76.498 97.9531 76.709 97.8652C76.9199 97.7773 77.166 97.8301 77.3242 97.9883Z" fill="#ABADAF"/>
<path d="M87.875 98.375C87.875 97.9648 88.2031 97.625 88.625 97.625H92.375C92.7852 97.625 93.125 97.9648 93.125 98.375V102.125C93.125 102.547 92.7852 102.875 92.375 102.875H88.625C88.2031 102.875 87.875 102.547 87.875 102.125V98.375Z" fill="#E7E7E8"/>
<rect x="101" y="99" width="20" height="3" rx="1.5" fill="#D3D4D5"/>
<rect x="129" y="99" width="14" height="3" rx="1.5" fill="#D3D4D5"/>
<rect x="155" y="99" width="14" height="3" rx="1.5" fill="#D3D4D5"/>
<rect x="181" y="99" width="14" height="3" rx="1.5" fill="#D3D4D5"/>
<rect x="214" y="99" width="7" height="3" rx="1.5" fill="#8952E0"/>
</svg>
