<svg width="296" height="141" viewBox="0 0 296 141" fill="none" xmlns="http://www.w3.org/2000/svg">
<path d="M120.5 46C120.5 42.9624 122.962 40.5 126 40.5H170C173.038 40.5 175.5 42.9624 175.5 46V95C175.5 98.0376 173.038 100.5 170 100.5H126C122.962 100.5 120.5 98.0376 120.5 95V46Z" fill="white"/>
<path d="M120.5 46C120.5 42.9624 122.962 40.5 126 40.5H170C173.038 40.5 175.5 42.9624 175.5 46V95C175.5 98.0376 173.038 100.5 170 100.5H126C122.962 100.5 120.5 98.0376 120.5 95V46Z" stroke="#D3D4D5"/>
<path d="M131.123 53.4395L129.373 51.7031C129.291 51.6074 129.25 51.498 129.25 51.375C129.25 51.2383 129.291 51.1426 129.373 51.0605L131.123 49.3242C131.246 49.2012 131.438 49.1602 131.602 49.2285C131.766 49.2969 131.875 49.4609 131.875 49.625V53.125C131.875 53.3027 131.766 53.4531 131.602 53.5215C131.438 53.5898 131.246 53.5625 131.123 53.4395Z" fill="#D3D4D5"/>
<rect x="137" y="50" width="22" height="3" rx="1.5" fill="#D3D4D5"/>
<path d="M164.863 49.3242L166.613 51.0605C166.695 51.1562 166.75 51.2656 166.75 51.375C166.75 51.4707 166.695 51.5938 166.613 51.6758L164.863 53.4121C164.74 53.5352 164.549 53.5762 164.385 53.5078C164.221 53.4395 164.125 53.3027 164.125 53.125V49.625C164.125 49.4609 164.221 49.2969 164.385 49.2285C164.549 49.1602 164.74 49.2012 164.863 49.3242Z" fill="#D3D4D5"/>
<rect x="129" y="60" width="6" height="3" rx="1.5" fill="#ABADAF"/>
<rect x="137" y="60" width="6" height="3" rx="1.5" fill="#ABADAF"/>
<rect x="145" y="60" width="6" height="3" rx="1.5" fill="#ABADAF"/>
<rect x="153" y="60" width="6" height="3" rx="1.5" fill="#ABADAF"/>
<rect x="161" y="60" width="6" height="3" rx="1.5" fill="#ABADAF"/>
<rect x="129" y="68" width="6" height="3" rx="1.5" fill="#D3D4D5"/>
<rect x="137" y="68" width="6" height="3" rx="1.5" fill="#D3D4D5"/>
<rect x="145" y="68" width="6" height="3" rx="1.5" fill="#D3D4D5"/>
<rect x="153" y="68" width="6" height="3" rx="1.5" fill="#D3D4D5"/>
<rect x="161" y="68" width="6" height="3" rx="1.5" fill="#D3D4D5"/>
<rect x="129" y="75" width="6" height="3" rx="1.5" fill="#D3D4D5"/>
<rect x="137" y="75" width="6" height="3" rx="1.5" fill="#8952E0"/>
<rect x="145" y="75" width="6" height="3" rx="1.5" fill="#D3D4D5"/>
<rect x="153" y="75" width="6" height="3" rx="1.5" fill="#D3D4D5"/>
<rect x="161" y="75" width="6" height="3" rx="1.5" fill="#D3D4D5"/>
<rect x="129" y="82" width="6" height="3" rx="1.5" fill="#D3D4D5"/>
<rect x="137" y="82" width="6" height="3" rx="1.5" fill="#D3D4D5"/>
<rect x="145" y="82" width="6" height="3" rx="1.5" fill="#D3D4D5"/>
<rect x="153" y="82" width="6" height="3" rx="1.5" fill="#D3D4D5"/>
<rect x="161" y="82" width="6" height="3" rx="1.5" fill="#D3D4D5"/>
<rect x="129" y="89" width="6" height="3" rx="1.5" fill="#D3D4D5"/>
<rect x="137" y="89" width="6" height="3" rx="1.5" fill="#D3D4D5"/>
<rect x="145" y="89" width="6" height="3" rx="1.5" fill="#D3D4D5"/>
<rect x="153" y="89" width="6" height="3" rx="1.5" fill="#D3D4D5"/>
<rect x="161" y="89" width="6" height="3" rx="1.5" fill="#D3D4D5"/>
</svg>
