<svg width="296" height="141" viewBox="0 0 296 141" fill="none" xmlns="http://www.w3.org/2000/svg">
<path d="M120.5 41C120.5 37.9624 122.962 35.5 126 35.5H170C173.038 35.5 175.5 37.9624 175.5 41V100C175.5 103.038 173.038 105.5 170 105.5H126C122.962 105.5 120.5 103.038 120.5 100V41Z" fill="white"/>
<path d="M120.5 41C120.5 37.9624 122.962 35.5 126 35.5H170C173.038 35.5 175.5 37.9624 175.5 41V100C175.5 103.038 173.038 105.5 170 105.5H126C122.962 105.5 120.5 103.038 120.5 100V41Z" stroke="#D3D4D5"/>
<path d="M131.123 48.4395L129.373 46.7031C129.291 46.6074 129.25 46.498 129.25 46.375C129.25 46.2383 129.291 46.1426 129.373 46.0605L131.123 44.3242C131.246 44.2012 131.438 44.1602 131.602 44.2285C131.766 44.2969 131.875 44.4609 131.875 44.625V48.125C131.875 48.3027 131.766 48.4531 131.602 48.5215C131.438 48.5898 131.246 48.5625 131.123 48.4395Z" fill="#D3D4D5"/>
<rect x="137" y="45" width="22" height="3" rx="1.5" fill="#D3D4D5"/>
<path d="M164.863 44.3242L166.613 46.0605C166.695 46.1562 166.75 46.2656 166.75 46.375C166.75 46.4707 166.695 46.5938 166.613 46.6758L164.863 48.4121C164.74 48.5352 164.549 48.5762 164.385 48.5078C164.221 48.4395 164.125 48.3027 164.125 48.125V44.625C164.125 44.4609 164.221 44.2969 164.385 44.2285C164.549 44.1602 164.74 44.2012 164.863 44.3242Z" fill="#D3D4D5"/>
<rect x="129" y="55" width="6" height="3" rx="1.5" fill="#ABADAF"/>
<rect x="137" y="55" width="6" height="3" rx="1.5" fill="#ABADAF"/>
<rect x="145" y="55" width="6" height="3" rx="1.5" fill="#ABADAF"/>
<rect x="153" y="55" width="6" height="3" rx="1.5" fill="#ABADAF"/>
<rect x="161" y="55" width="6" height="3" rx="1.5" fill="#ABADAF"/>
<rect x="129" y="63" width="6" height="3" rx="1.5" fill="#D3D4D5"/>
<rect x="137" y="63" width="6" height="3" rx="1.5" fill="#D3D4D5"/>
<rect x="145" y="63" width="6" height="3" rx="1.5" fill="#D3D4D5"/>
<rect x="153" y="63" width="6" height="3" rx="1.5" fill="#D3D4D5"/>
<rect x="161" y="63" width="6" height="3" rx="1.5" fill="#D3D4D5"/>
<rect x="129" y="70" width="6" height="3" rx="1.5" fill="#D3D4D5"/>
<rect x="137" y="70" width="6" height="3" rx="1.5" fill="#8952E0"/>
<rect x="145" y="70" width="6" height="3" rx="1.5" fill="#D3D4D5"/>
<rect x="153" y="70" width="6" height="3" rx="1.5" fill="#D3D4D5"/>
<rect x="161" y="70" width="6" height="3" rx="1.5" fill="#D3D4D5"/>
<rect x="129" y="77" width="6" height="3" rx="1.5" fill="#D3D4D5"/>
<rect x="137" y="77" width="6" height="3" rx="1.5" fill="#D3D4D5"/>
<rect x="145" y="77" width="6" height="3" rx="1.5" fill="#D3D4D5"/>
<rect x="153" y="77" width="6" height="3" rx="1.5" fill="#D3D4D5"/>
<rect x="161" y="77" width="6" height="3" rx="1.5" fill="#D3D4D5"/>
<rect x="129" y="84" width="6" height="3" rx="1.5" fill="#D3D4D5"/>
<rect x="137" y="84" width="6" height="3" rx="1.5" fill="#D3D4D5"/>
<rect x="145" y="84" width="6" height="3" rx="1.5" fill="#D3D4D5"/>
<rect x="153" y="84" width="6" height="3" rx="1.5" fill="#D3D4D5"/>
<rect x="161" y="84" width="6" height="3" rx="1.5" fill="#D3D4D5"/>
<rect width="54" height="15" transform="translate(121 91)" fill="#F1F1F2"/>
<rect x="145" y="97" width="12" height="3" rx="1.5" fill="#ABADAF"/>
<rect x="159" y="97" width="12" height="3" rx="1.5" fill="#8952E0"/>
<rect width="5" height="5" transform="translate(172 35)" fill="white"/>
<path d="M170.5 37C170.5 34.7969 172.281 33 174.5 33C176.703 33 178.5 34.7969 178.5 37C178.5 39.2188 176.703 41 174.5 41C172.281 41 170.5 39.2188 170.5 37ZM173.234 36.2656L173.969 37L173.234 37.7344C173.078 37.8906 173.078 38.125 173.234 38.2656C173.375 38.4219 173.609 38.4219 173.75 38.2656L174.484 37.5312L175.234 38.2656C175.375 38.4219 175.609 38.4219 175.75 38.2656C175.906 38.125 175.906 37.8906 175.75 37.7344L175.016 37L175.75 36.2656C175.906 36.125 175.906 35.8906 175.75 35.7344C175.609 35.5938 175.375 35.5938 175.234 35.7344L174.484 36.4844L173.75 35.7344C173.609 35.5938 173.375 35.5938 173.234 35.7344C173.078 35.8906 173.078 36.125 173.234 36.2656Z" fill="#ABADAF"/>
</svg>
