<svg width="250" height="141" viewBox="0 0 250 141" fill="none" xmlns="http://www.w3.org/2000/svg">
<path d="M84.5 108C84.132 108 83.773 107.964 83.4261 107.895L83.329 108.386C82.5419 108.23 81.8101 107.92 81.1663 107.489L81.4445 107.074C80.8445 106.672 80.3278 106.156 79.9261 105.556L79.5106 105.834C79.0796 105.19 78.7699 104.458 78.6142 103.671L79.1047 103.574C79.0361 103.227 79 102.868 79 102.5V101.5H78.5V99.5H79V97.5H78.5V95.5H79V93.5H78.5V91.5H79V89.5H78.5V87.5H79V85.5H78.5V83.5H79V81.5H78.5V79.5H79V77.5H78.5V75.5H79V73.5H78.5V71.5H79V69.5H78.5V67.5H79V65.5H78.5V63.5H79V61.5H78.5V59.5H79V57.5H78.5V55.5H79V53.5H78.5V51.5H79V49.5H78.5V47.5H79V45.5H78.5V43.5H79V41.5H78.5V39.5H79V38.5C79 38.132 79.0361 37.773 79.1047 37.4261L78.6142 37.329C78.7699 36.5419 79.0796 35.8101 79.5106 35.1663L79.9261 35.4445C80.3278 34.8445 80.8445 34.3278 81.4445 33.9261L81.1663 33.5106C81.8101 33.0796 82.5419 32.7699 83.329 32.6142L83.4261 33.1047C83.773 33.0361 84.132 33 84.5 33H85.5125V32.5H87.5375V33H89.5625V32.5H91.5875V33H93.6125V32.5H95.6375V33H97.6625V32.5H99.6875V33H101.712V32.5H103.737V33H105.762V32.5H107.788V33H109.812V32.5H111.837V33H113.862V32.5H115.887V33H117.912V32.5H119.938V33H121.963V32.5H123.988V33H126.013V32.5H128.038V33H130.063V32.5H132.088V33H134.113V32.5H136.138V33H138.163V32.5H140.188V33H142.213V32.5H144.238V33H146.263V32.5H148.288V33H150.313V32.5H152.338V33H154.363V32.5H156.388V33H158.413V32.5H160.438V33H162.463V32.5H164.488V33H165.5C165.868 33 166.227 33.0361 166.574 33.1047L166.671 32.6142C167.458 32.7699 168.19 33.0796 168.834 33.5106L168.556 33.9261C169.156 34.3278 169.672 34.8445 170.074 35.4445L170.489 35.1663C170.92 35.8101 171.23 36.5419 171.386 37.329L170.895 37.4261C170.964 37.773 171 38.132 171 38.5V39.5H171.5V41.5H171V43.5H171.5V45.5H171V47.5H171.5V49.5H171V51.5H171.5V53.5H171V55.5H171.5V57.5H171V59.5H171.5V61.5H171V63.5H171.5V65.5H171V67.5H171.5V69.5H171V71.5H171.5V73.5H171V75.5H171.5V77.5H171V79.5H171.5V81.5H171V83.5H171.5V85.5H171V87.5H171.5V89.5H171V91.5H171.5V93.5H171V95.5H171.5V97.5H171V99.5H171.5V101.5H171V102.5C171 102.868 170.964 103.227 170.895 103.574L171.386 103.671C171.23 104.458 170.92 105.19 170.489 105.834L170.074 105.556C169.672 106.156 169.156 106.672 168.556 107.074L168.834 107.489C168.19 107.92 167.458 108.23 166.671 108.386L166.574 107.895C166.227 107.964 165.868 108 165.5 108H164.488V108.5H162.463V108H160.438V108.5H158.412V108H156.387V108.5H154.363V108H152.338V108.5H150.312V108H148.287V108.5H146.262V108H144.238V108.5H142.213V108H140.188V108.5H138.163V108H136.138V108.5H134.113V108H132.088V108.5H130.062V108H128.037V108.5H126.012V108H123.987V108.5H121.962V108H119.937V108.5H117.912V108H115.887V108.5H113.862V108H111.837V108.5H109.812V108H107.787V108.5H105.762V108H103.737V108.5H101.712V108H99.6875V108.5H97.6625V108H95.6375V108.5H93.6125V108H91.5875V108.5H89.5625V108H87.5375V108.5H85.5125V108H84.5Z" stroke="#52555A" stroke-dasharray="2 2"/>
<g opacity="0.15">
<rect x="116" y="43.5" width="18" height="18" rx="9" fill="#8952E0"/>
</g>
<path d="M128.812 55.4375L126.938 53.5625C127.359 52.9375 127.578 52.1562 127.469 51.3125C127.266 49.875 126.094 48.7188 124.672 48.5312C122.547 48.2656 120.75 50.0625 121.016 52.1875C121.203 53.6094 122.359 54.7812 123.797 54.9844C124.641 55.0938 125.422 54.875 126.062 54.4531L127.922 56.3281C128.172 56.5625 128.562 56.5625 128.812 56.3281C129.047 56.0781 129.047 55.6875 128.812 55.4375ZM122.234 51.75C122.234 50.6562 123.125 49.75 124.234 49.75C125.328 49.75 126.234 50.6562 126.234 51.75C126.234 52.8594 125.328 53.75 124.234 53.75C123.125 53.75 122.234 52.8594 122.234 51.75Z" fill="#8952E0"/>
<rect x="95.5" y="69.5" width="59" height="3" rx="1.5" fill="#52555A"/>
<rect x="109" y="76.5" width="32" height="3" rx="1.5" fill="#33373D"/>
<path d="M111.5 89.5C111.5 88.3954 112.395 87.5 113.5 87.5H136.5C137.605 87.5 138.5 88.3954 138.5 89.5V95.5C138.5 96.6046 137.605 97.5 136.5 97.5H113.5C112.395 97.5 111.5 96.6046 111.5 95.5V89.5Z" fill="#8952E0"/>
<rect x="115.5" y="91.5" width="19" height="2" rx="1" fill="white"/>
</svg>
