<svg width="296" height="141" viewBox="0 0 296 141" fill="none" xmlns="http://www.w3.org/2000/svg">
<path d="M102.011 106.334C101.58 105.69 101.27 104.958 101.114 104.171L101.605 104.074C101.536 103.727 101.5 103.368 101.5 103V101.523H101V98.5682H101.5V95.6136H101V92.6591H101.5V89.7045H101V86.75H101.5V83.7955H101V80.8409H101.5V77.8864H101V74.9318H101.5V71.9773H101V69.0227H101.5V66.0682H101V63.1136H101.5V60.1591H101V57.2045H101.5V54.25H101V51.2955H101.5V48.3409H101V45.3864H101.5V42.4318H101V39.4773H101.5V38C101.5 37.632 101.536 37.273 101.605 36.9261L101.114 36.829C101.27 36.0419 101.58 35.3101 102.011 34.6663L102.426 34.9445C102.828 34.3445 103.344 33.8278 103.944 33.4261L103.666 33.0106C104.31 32.5796 105.042 32.2699 105.829 32.1142L105.926 32.6047C106.273 32.5361 106.632 32.5 107 32.5H108.464V32H111.393V32.5H114.321V32H117.25V32.5H120.179V32H123.107V32.5H126.036V32H128.964V32.5H131.893V32H134.821V32.5H137.75V32H140.679V32.5H143.607V32H146.536V32.5H149.464V32H152.393V32.5H155.321V32H158.25V32.5H161.179V32H164.107V32.5H167.036V32H169.964V32.5H172.893V32H175.821V32.5H178.75V32H181.679V32.5H184.607V32H187.536V32.5H189C189.368 32.5 189.727 32.5361 190.074 32.6047L190.171 32.1142C190.958 32.2699 191.69 32.5796 192.334 33.0106L192.056 33.4261C192.656 33.8278 193.172 34.3445 193.574 34.9445L193.989 34.6663C194.42 35.3101 194.73 36.0419 194.886 36.829L194.395 36.9261C194.464 37.273 194.5 37.632 194.5 38V39.4773H195V42.4318H194.5V45.3864H195V48.3409H194.5V51.2955H195V54.25H194.5V57.2045H195V60.1591H194.5V63.1136H195V66.0682H194.5V69.0227H195V71.9773H194.5V74.9318H195V77.8864H194.5V80.8409H195V83.7955H194.5V86.75H195V89.7045H194.5V92.6591H195V95.6136H194.5V98.5682H195V101.523H194.5V103C194.5 103.368 194.464 103.727 194.395 104.074L194.886 104.171C194.73 104.958 194.42 105.69 193.989 106.334L193.574 106.056C193.172 106.656 192.656 107.172 192.056 107.574L192.334 107.989C191.69 108.42 190.958 108.73 190.171 108.886L190.074 108.395C189.727 108.464 189.368 108.5 189 108.5H187.536V109H184.607V108.5H181.679V109H178.75V108.5H175.821V109H172.893V108.5H169.964V109H167.036V108.5H164.107V109H161.179V108.5H158.25V109H155.321V108.5H152.393V109H149.464V108.5H146.536V109H143.607V108.5H140.679V109H137.75V108.5H134.821V109H131.893V108.5H128.964V109H126.036V108.5H123.107V109H120.179V108.5H117.25V109H114.321V108.5H111.393V109H108.464V108.5H107C106.632 108.5 106.273 108.464 105.926 108.395L105.829 108.886C105.042 108.73 104.31 108.42 103.666 107.989L103.944 107.574C103.344 107.172 102.828 106.656 102.426 106.056L102.011 106.334Z" stroke="#D3D4D5" stroke-dasharray="3 3"/>
<g opacity="0.15">
<rect x="139" y="42.5" width="18" height="18" rx="9" fill="#8952E0"/>
</g>
<path d="M151.812 54.4375L149.938 52.5625C150.359 51.9375 150.578 51.1562 150.469 50.3125C150.266 48.875 149.094 47.7188 147.672 47.5312C145.547 47.2656 143.75 49.0625 144.016 51.1875C144.203 52.6094 145.359 53.7812 146.797 53.9844C147.641 54.0938 148.422 53.875 149.062 53.4531L150.922 55.3281C151.172 55.5625 151.562 55.5625 151.812 55.3281C152.047 55.0781 152.047 54.6875 151.812 54.4375ZM145.234 50.75C145.234 49.6562 146.125 48.75 147.234 48.75C148.328 48.75 149.234 49.6562 149.234 50.75C149.234 51.8594 148.328 52.75 147.234 52.75C146.125 52.75 145.234 51.8594 145.234 50.75Z" fill="#8952E0"/>
<rect x="118" y="68.5" width="60" height="4" rx="2" fill="#ABADAF"/>
<rect x="132" y="76.5" width="32" height="4" rx="2" fill="#D3D4D5"/>
<path d="M134.5 90.5C134.5 89.3954 135.395 88.5 136.5 88.5H159.5C160.605 88.5 161.5 89.3954 161.5 90.5V96.5C161.5 97.6046 160.605 98.5 159.5 98.5H136.5C135.395 98.5 134.5 97.6046 134.5 96.5V90.5Z" fill="#8952E0"/>
<rect x="138.5" y="92.5" width="19" height="2" rx="1" fill="white"/>
</svg>
