<svg width="296" height="141" viewBox="0 0 296 141" fill="none" xmlns="http://www.w3.org/2000/svg">
<path d="M104.5 36C104.5 32.9624 106.962 30.5 110 30.5H155C158.038 30.5 160.5 32.9624 160.5 36V86C160.5 89.0376 158.038 91.5 155 91.5H110C106.962 91.5 104.5 89.0376 104.5 86V36Z" fill="white"/>
<path d="M104.5 36C104.5 32.9624 106.962 30.5 110 30.5H155C158.038 30.5 160.5 32.9624 160.5 36V86C160.5 89.0376 158.038 91.5 155 91.5H110C106.962 91.5 104.5 89.0376 104.5 86V36Z" stroke="#D3D4D5"/>
<rect x="113" y="39" width="26" height="3" rx="1.5" fill="#ABADAF"/>
<path d="M146 42C145.156 42 144.5 41.3281 144.5 40.5C144.5 39.6719 145.156 39 146 39C146.828 39 147.5 39.6719 147.5 40.5C147.5 41.3281 146.828 42 146 42ZM149 43.5H146C144.328 43.5 143 42.1562 143 40.5C143 38.8438 144.328 37.5 146 37.5H149C150.656 37.5 152 38.8438 152 40.5C152 42.1562 150.656 43.5 149 43.5ZM149 38.5H146C144.891 38.5 144 39.4062 144 40.5C144 41.6094 144.891 42.5 146 42.5H149C150.094 42.5 151 41.6094 151 40.5C151 39.4062 150.094 38.5 149 38.5Z" fill="#8952E0"/>
<rect x="113.5" y="48.5" width="38" height="8" rx="1.5" fill="white" stroke="#E7E7E8"/>
<rect x="113.5" y="61.5" width="38" height="8" rx="1.5" fill="white" stroke="#E7E7E8"/>
<rect x="113.5" y="74.5" width="38" height="8" rx="1.5" fill="white" stroke="#E7E7E8"/>
<path d="M136 52C136 48.6863 138.686 46 142 46H187C190.314 46 193 48.6863 193 52V101C193 104.314 190.314 107 187 107H142C138.686 107 136 104.314 136 101V52Z" fill="#1D2025"/>
<rect x="145" y="55" width="26" height="3" rx="1.5" fill="#7D7F83"/>
<rect x="175" y="53.5" width="9" height="6" rx="3" fill="#F9FAFA"/>
<path d="M181 53.5C182.656 53.5 184 54.8438 184 56.5C184 58.1562 182.656 59.5 181 59.5H178C176.328 59.5 175 58.1562 175 56.5C175 54.8438 176.328 53.5 178 53.5H181ZM181 58C181.828 58 182.5 57.3281 182.5 56.5C182.5 55.6719 181.828 55 181 55C180.156 55 179.5 55.6719 179.5 56.5C179.5 57.3281 180.156 58 181 58Z" fill="#8952E0"/>
<rect x="145.5" y="64.5" width="38" height="8" rx="1.5" fill="#1D2025" stroke="#52555A"/>
<rect x="145.5" y="77.5" width="38" height="8" rx="1.5" fill="#1D2025" stroke="#52555A"/>
<rect x="145.5" y="90.5" width="38" height="8" rx="1.5" fill="#1D2025" stroke="#52555A"/>
</svg>
