<svg width="296" height="141" viewBox="0 0 296 141" fill="none" xmlns="http://www.w3.org/2000/svg">
<rect width="296" height="141" fill="#171A1D"/>
<path d="M110.011 92.3337C109.58 91.6899 109.27 90.9581 109.114 90.171L109.605 90.0739C109.536 89.727 109.5 89.368 109.5 89V87.4583H109V84.375H109.5V81.2917H109V78.2083H109.5V75.125H109V72.0417H109.5V68.9583H109V65.875H109.5V62.7917H109V59.7083H109.5V56.625H109V53.5417H109.5V52C109.5 51.632 109.536 51.273 109.605 50.9261L109.114 50.829C109.27 50.0419 109.58 49.3101 110.011 48.6663L110.426 48.9445C110.828 48.3445 111.344 47.8278 111.944 47.4261L111.666 47.0106C112.31 46.5796 113.042 46.2699 113.829 46.1142L113.926 46.6047C114.273 46.5361 114.632 46.5 115 46.5H116.5V46H119.5V46.5H122.5V46H125.5V46.5H128.5V46H131.5V46.5H134.5V46H137.5V46.5H140.5V46H143.5V46.5H146.5V46H149.5V46.5H152.5V46H155.5V46.5H158.5V46H161.5V46.5H164.5V46H167.5V46.5H170.5V46H173.5V46.5H176.5V46H179.5V46.5H181C181.368 46.5 181.727 46.5361 182.074 46.6047L182.171 46.1142C182.958 46.2699 183.69 46.5796 184.334 47.0106L184.056 47.4261C184.656 47.8278 185.172 48.3445 185.574 48.9445L185.989 48.6663C186.42 49.3101 186.73 50.0419 186.886 50.829L186.395 50.9261C186.464 51.273 186.5 51.632 186.5 52V53.5417H187V56.625H186.5V59.7083H187V62.7917H186.5V65.875H187V68.9583H186.5V72.0417H187V75.125H186.5V78.2083H187V81.2917H186.5V84.375H187V87.4583H186.5V89C186.5 89.368 186.464 89.727 186.395 90.0739L186.886 90.171C186.73 90.9581 186.42 91.6899 185.989 92.3337L185.574 92.0555C185.172 92.6555 184.656 93.1722 184.056 93.5739L184.334 93.9894C183.69 94.4204 182.958 94.7301 182.171 94.8858L182.074 94.3953C181.727 94.4639 181.368 94.5 181 94.5H179.5V95H176.5V94.5H173.5V95H170.5V94.5H167.5V95H164.5V94.5H161.5V95H158.5V94.5H155.5V95H152.5V94.5H149.5V95H146.5V94.5H143.5V95H140.5V94.5H137.5V95H134.5V94.5H131.5V95H128.5V94.5H125.5V95H122.5V94.5H119.5V95H116.5V94.5H115C114.632 94.5 114.273 94.4639 113.926 94.3953L113.829 94.8858C113.042 94.7301 112.31 94.4204 111.666 93.9894L111.944 93.5739C111.344 93.1722 110.828 92.6555 110.426 92.0555L110.011 92.3337Z" stroke="#8952E0" stroke-dasharray="3 3"/>
<path d="M151.125 64.125C151.125 63.793 151.398 63.5 151.75 63.5C152.082 63.5 152.375 63.793 152.375 64.125V65.375C152.375 66.4297 151.535 67.25 150.5 67.25H145.5C144.445 67.25 143.625 66.4297 143.625 65.375V64.125C143.625 63.793 143.898 63.5 144.25 63.5C144.582 63.5 144.875 63.793 144.875 64.125V65.375C144.875 65.7266 145.148 66 145.5 66H150.5C150.832 66 151.125 65.7266 151.125 65.375V64.125ZM147.551 57.4453C147.785 57.1914 148.195 57.1914 148.43 57.4453L150.93 59.9453C151.184 60.1797 151.184 60.5898 150.93 60.8242C150.695 61.0781 150.285 61.0781 150.051 60.8242L148.625 59.3984V63.5C148.625 63.8516 148.332 64.125 148 64.125C147.648 64.125 147.375 63.8516 147.375 63.5V59.3984L145.93 60.8242C145.695 61.0781 145.285 61.0781 145.051 60.8242C144.797 60.5898 144.797 60.1797 145.051 59.9453L147.551 57.4453Z" fill="#33373D"/>
<rect x="123" y="76" width="22" height="3" rx="1.5" fill="#8952E0"/>
<rect x="148" y="76" width="25" height="3" rx="1.5" fill="#33373D"/>
<rect x="130" y="83" width="36" height="3" rx="1.5" fill="#33373D"/>
<path d="M167.5 82C167.5 80.9062 168.375 80 169.5 80H174.5V84C174.5 84.5625 174.938 85 175.5 85H179.5V94C179.5 95.125 178.594 96 177.5 96H169.5C168.375 96 167.5 95.125 167.5 94V82ZM175.5 84V80L179.5 84H175.5Z" fill="#8952E0"/>
<mask id="path-7-outside-1_133_7841" maskUnits="userSpaceOnUse" x="173" y="89" width="9" height="12" fill="black">
<rect fill="white" x="173" y="89" width="9" height="12"/>
<path d="M180.586 96.207C180.508 96.3828 180.332 96.5195 180.137 96.5195H178.086L178.984 98.3555C179.16 98.7461 179.004 99.2148 178.613 99.4102C178.223 99.5859 177.754 99.4297 177.559 99.0391L176.66 97.125L175.195 98.8438C175.098 98.9609 174.961 99.0195 174.844 99.0195C174.785 99.0195 174.727 99 174.668 98.9805C174.492 98.9219 174.375 98.7461 174.375 98.5312V91.3633C174.375 91.168 174.473 90.9922 174.648 90.9336C174.805 90.8555 175 90.875 175.137 90.9922L180.43 95.6797C180.605 95.8164 180.645 96.0312 180.586 96.207Z"/>
</mask>
<path d="M180.586 96.207C180.508 96.3828 180.332 96.5195 180.137 96.5195H178.086L178.984 98.3555C179.16 98.7461 179.004 99.2148 178.613 99.4102C178.223 99.5859 177.754 99.4297 177.559 99.0391L176.66 97.125L175.195 98.8438C175.098 98.9609 174.961 99.0195 174.844 99.0195C174.785 99.0195 174.727 99 174.668 98.9805C174.492 98.9219 174.375 98.7461 174.375 98.5312V91.3633C174.375 91.168 174.473 90.9922 174.648 90.9336C174.805 90.8555 175 90.875 175.137 90.9922L180.43 95.6797C180.605 95.8164 180.645 96.0312 180.586 96.207Z" fill="#1D2025"/>
<path d="M180.586 96.207L181.5 96.6132L181.519 96.5691L181.535 96.5233L180.586 96.207ZM178.086 96.5195V95.5195H176.483L177.188 96.9591L178.086 96.5195ZM178.984 98.3555L179.896 97.9451L179.89 97.9304L179.883 97.9159L178.984 98.3555ZM178.613 99.4102L179.024 100.322L179.042 100.314L179.06 100.305L178.613 99.4102ZM177.559 99.0391L176.653 99.464L176.659 99.4752L176.664 99.4863L177.559 99.0391ZM176.66 97.125L177.565 96.7001L176.906 95.295L175.899 96.4763L176.66 97.125ZM175.195 98.8438L174.434 98.1951L174.427 98.2036L175.195 98.8438ZM174.648 90.9336L174.965 91.8823L175.032 91.8598L175.096 91.828L174.648 90.9336ZM175.137 90.9922L175.8 90.2436L175.794 90.2382L175.788 90.2329L175.137 90.9922ZM180.43 95.6797L179.767 96.4283L179.791 96.4495L179.816 96.469L180.43 95.6797ZM179.672 95.8009C179.705 95.727 179.755 95.6649 179.822 95.6172C179.89 95.5682 179.997 95.5195 180.137 95.5195V97.5195C180.799 97.5195 181.293 97.0795 181.5 96.6132L179.672 95.8009ZM180.137 95.5195H178.086V97.5195H180.137V95.5195ZM177.188 96.9591L178.086 98.795L179.883 97.9159L178.984 96.08L177.188 96.9591ZM178.072 98.7658C178.035 98.6824 178.062 98.5676 178.166 98.5157L179.06 100.305C179.946 99.8621 180.285 98.8098 179.896 97.9451L178.072 98.7658ZM178.203 98.4982C178.286 98.4607 178.401 98.488 178.453 98.5918L176.664 99.4863C177.107 100.371 178.159 100.711 179.024 100.322L178.203 98.4982ZM178.464 98.6142L177.565 96.7001L175.755 97.5499L176.653 99.464L178.464 98.6142ZM175.899 96.4763L174.434 98.1951L175.956 99.4924L177.421 97.7737L175.899 96.4763ZM174.427 98.2036C174.473 98.1489 174.53 98.105 174.594 98.0741C174.656 98.0443 174.74 98.0195 174.844 98.0195V100.02C175.272 100.02 175.685 99.8183 175.964 99.4839L174.427 98.2036ZM174.844 98.0195C174.923 98.0195 174.98 98.0326 174.998 98.0372C175.008 98.0397 175.013 98.0413 175.01 98.0403C175.006 98.039 175 98.0372 174.984 98.0318L174.352 99.9292C174.377 99.9375 174.594 100.02 174.844 100.02V98.0195ZM174.984 98.0318C175.283 98.1314 175.375 98.3898 175.375 98.5312H173.375C173.375 99.1024 173.701 99.7124 174.352 99.9292L174.984 98.0318ZM175.375 98.5312V91.3633H173.375V98.5312H175.375ZM175.375 91.3633C175.375 91.4694 175.308 91.768 174.965 91.8823L174.332 89.9849C173.638 90.2164 173.375 90.8665 173.375 91.3633H175.375ZM175.096 91.828C174.905 91.9236 174.665 91.9051 174.486 91.7514L175.788 90.2329C175.335 89.8449 174.705 89.7874 174.201 90.0392L175.096 91.828ZM174.474 91.7408L179.767 96.4283L181.093 94.9311L175.8 90.2436L174.474 91.7408ZM179.816 96.469C179.611 96.3096 179.581 96.059 179.637 95.8908L181.535 96.5233C181.708 96.0035 181.6 95.3232 181.044 94.8903L179.816 96.469Z" fill="#F1F1F2" mask="url(#path-7-outside-1_133_7841)"/>
</svg>
