<svg width="296" height="141" viewBox="0 0 296 141" fill="none" xmlns="http://www.w3.org/2000/svg">
<path d="M84.5 44C84.5 40.9624 86.9624 38.5 90 38.5H185C188.038 38.5 190.5 40.9624 190.5 44V51C190.5 54.0376 188.038 56.5 185 56.5H90C86.9624 56.5 84.5 54.0376 84.5 51V44Z" fill="white"/>
<path d="M84.5 44C84.5 40.9624 86.9624 38.5 90 38.5H185C188.038 38.5 190.5 40.9624 190.5 44V51C190.5 54.0376 188.038 56.5 185 56.5H90C86.9624 56.5 84.5 54.0376 84.5 51V44Z" stroke="#D3D4D5"/>
<rect x="92" y="46" width="26" height="3" rx="1.5" fill="#ABADAF"/>
<rect x="124" y="46" width="12" height="3" rx="1.5" fill="#D3D4D5"/>
<rect width="36" height="17" transform="translate(140 39)" fill="#F1F1F2"/>
<rect x="144" y="46" width="28" height="3" rx="1.5" fill="#ABADAF"/>
<path d="M185.051 45.9395L183.615 47.375L185.051 48.8242C185.229 48.9883 185.229 49.2754 185.051 49.4395C184.887 49.6172 184.6 49.6172 184.436 49.4395L183 48.0039L181.551 49.4395C181.387 49.6172 181.1 49.6172 180.936 49.4395C180.758 49.2754 180.758 48.9883 180.936 48.8242L182.371 47.375L180.936 45.9395C180.758 45.7754 180.758 45.4883 180.936 45.3242C181.1 45.1465 181.387 45.1465 181.551 45.3242L183 46.7598L184.436 45.3242C184.6 45.1465 184.887 45.1465 185.051 45.3242C185.229 45.4883 185.229 45.7754 185.051 45.9395Z" fill="#ABADAF"/>
<g clip-path="url(#clip0_99_7852)">
<path d="M140 65C140 61.6863 142.686 59 146 59H198C201.314 59 204 61.6863 204 65V97C204 100.314 201.314 103 198 103H146C142.686 103 140 100.314 140 97V65Z" fill="white"/>
<rect x="149" y="65" width="37" height="3" rx="1.5" fill="#D3D4D5"/>
<rect width="64" height="13" transform="translate(140 74)" fill="#E5DAF8"/>
<path d="M153.508 78.9922C153.66 79.1328 153.66 79.3789 153.508 79.5195L150.508 82.5195C150.367 82.6719 150.121 82.6719 149.98 82.5195L148.48 81.0195C148.328 80.8789 148.328 80.6328 148.48 80.4922C148.621 80.3398 148.867 80.3398 149.008 80.4922L150.25 81.7227L152.98 78.9922C153.121 78.8398 153.367 78.8398 153.508 78.9922Z" fill="#8952E0"/>
<rect x="157" y="79" width="20" height="3" rx="1.5" fill="#8952E0"/>
<path d="M193 82.5C191.891 82.5 191 81.6094 191 80.5C191 79.3984 191.891 78.5 193 78.5C194.102 78.5 195 79.3984 195 80.5C195 81.6094 194.102 82.5 193 82.5Z" fill="#B795EC"/>
<path d="M148.375 91.875C148.375 91.4648 148.703 91.125 149.125 91.125H152.875C153.285 91.125 153.625 91.4648 153.625 91.875V95.625C153.625 96.0469 153.285 96.375 152.875 96.375H149.125C148.703 96.375 148.375 96.0469 148.375 95.625V91.875Z" fill="white"/>
<rect x="157" y="92" width="20" height="3" rx="1.5" fill="#D3D4D5"/>
<path d="M193 95.5C191.891 95.5 191 94.6094 191 93.5C191 92.3984 191.891 91.5 193 91.5C194.102 91.5 195 92.3984 195 93.5C195 94.6094 194.102 95.5 193 95.5Z" fill="#D3D4D5"/>
</g>
<path d="M140.5 65C140.5 61.9624 142.962 59.5 146 59.5H198C201.038 59.5 203.5 61.9624 203.5 65V97C203.5 100.038 201.038 102.5 198 102.5H146C142.962 102.5 140.5 100.038 140.5 97V65Z" stroke="#D3D4D5"/>
<mask id="path-16-outside-1_99_7852" maskUnits="userSpaceOnUse" x="181" y="83.5" width="9" height="12" fill="black">
<rect fill="white" x="181" y="83.5" width="9" height="12"/>
<path d="M182.375 85.8438C182.375 85.5898 182.57 85.375 182.824 85.375C182.922 85.375 183.039 85.4336 183.117 85.4922L188.469 90.2578C188.566 90.3359 188.625 90.4531 188.625 90.5703C188.625 90.8242 188.43 91 188.176 91H185.871L186.984 93.2266C187.141 93.5391 187.023 93.9102 186.711 94.0664C186.398 94.2227 186.027 94.1055 185.871 93.793L184.738 91.5078L183.117 93.3633C183.039 93.4609 182.922 93.5 182.805 93.5C182.551 93.5 182.375 93.3242 182.375 93.0703V85.8438Z"/>
</mask>
<path d="M182.375 85.8438C182.375 85.5898 182.57 85.375 182.824 85.375C182.922 85.375 183.039 85.4336 183.117 85.4922L188.469 90.2578C188.566 90.3359 188.625 90.4531 188.625 90.5703C188.625 90.8242 188.43 91 188.176 91H185.871L186.984 93.2266C187.141 93.5391 187.023 93.9102 186.711 94.0664C186.398 94.2227 186.027 94.1055 185.871 93.793L184.738 91.5078L183.117 93.3633C183.039 93.4609 182.922 93.5 182.805 93.5C182.551 93.5 182.375 93.3242 182.375 93.0703V85.8438Z" fill="#171A1D"/>
<path d="M183.117 85.4922L183.782 84.7454L183.751 84.7174L183.717 84.6922L183.117 85.4922ZM188.469 90.2578L187.804 91.0046L187.823 91.0222L187.844 91.0387L188.469 90.2578ZM185.871 91V90H184.253L184.977 91.4472L185.871 91ZM185.871 93.793L184.975 94.2371L184.977 94.2402L185.871 93.793ZM184.738 91.5078L185.634 91.0637L184.97 89.7231L183.985 90.8499L184.738 91.5078ZM183.117 93.3633L182.364 92.7053L182.35 92.7217L182.336 92.7386L183.117 93.3633ZM183.375 85.8438C183.375 86.0859 183.177 86.375 182.824 86.375V84.375C181.963 84.375 181.375 85.0938 181.375 85.8438H183.375ZM182.824 86.375C182.751 86.375 182.695 86.3644 182.66 86.3559C182.625 86.3471 182.599 86.3373 182.584 86.3308C182.557 86.3189 182.537 86.3068 182.517 86.2922L183.717 84.6922C183.571 84.5825 183.24 84.375 182.824 84.375V86.375ZM182.452 86.239L187.804 91.0046L189.134 89.511L183.782 84.7454L182.452 86.239ZM187.844 91.0387C187.723 90.9417 187.625 90.7796 187.625 90.5703H189.625C189.625 90.1266 189.41 89.7302 189.093 89.4769L187.844 91.0387ZM187.625 90.5703C187.625 90.4283 187.685 90.2696 187.811 90.1515C187.931 90.0384 188.071 90 188.176 90V92C188.922 92 189.625 91.4345 189.625 90.5703H187.625ZM188.176 90H185.871V92H188.176V90ZM184.977 91.4472L186.09 93.6738L187.879 92.7793L186.766 90.5528L184.977 91.4472ZM186.09 93.6738C186.007 93.5088 186.066 93.2709 186.264 93.172L187.158 94.9608C187.981 94.5494 188.274 93.5694 187.879 92.7793L186.09 93.6738ZM186.264 93.172C186.429 93.0895 186.667 93.148 186.766 93.3458L184.977 94.2402C185.388 95.063 186.368 95.3558 187.158 94.9608L186.264 93.172ZM186.767 93.3488L185.634 91.0637L183.842 91.952L184.975 94.2371L186.767 93.3488ZM183.985 90.8499L182.364 92.7053L183.87 94.0212L185.491 92.1658L183.985 90.8499ZM182.336 92.7386C182.5 92.5344 182.712 92.5 182.805 92.5V94.5C183.132 94.5 183.578 94.3875 183.898 93.988L182.336 92.7386ZM182.805 92.5C182.914 92.5 183.071 92.5422 183.202 92.6733C183.333 92.8043 183.375 92.9605 183.375 93.0703H181.375C181.375 93.434 181.505 93.8051 181.788 94.0875C182.07 94.3699 182.441 94.5 182.805 94.5V92.5ZM183.375 93.0703V85.8438H181.375V93.0703H183.375Z" fill="white" mask="url(#path-16-outside-1_99_7852)"/>
<defs>
<clipPath id="clip0_99_7852">
<path d="M140 65C140 61.6863 142.686 59 146 59H198C201.314 59 204 61.6863 204 65V97C204 100.314 201.314 103 198 103H146C142.686 103 140 100.314 140 97V65Z" fill="white"/>
</clipPath>
</defs>
</svg>
