<svg width="296" height="141" viewBox="0 0 296 141" fill="none" xmlns="http://www.w3.org/2000/svg">
<g clip-path="url(#clip0_78_9894)">
<path d="M80 45C80 41.6863 82.6863 39 86 39H210C213.314 39 216 41.6863 216 45V96C216 99.3137 213.314 102 210 102H86C82.6863 102 80 99.3137 80 96V45Z" fill="white"/>
<rect x="89" y="48" width="37" height="3" rx="1.5" fill="#ABADAF"/>
<path d="M207.344 51.6562C207.547 51.8438 207.547 52.1719 207.344 52.3594C207.25 52.4531 207.125 52.5 207 52.5C206.859 52.5 206.734 52.4531 206.641 52.3594L205 50.7188L203.344 52.3594C203.25 52.4531 203.125 52.5 203 52.5C202.859 52.5 202.734 52.4531 202.641 52.3594C202.438 52.1719 202.438 51.8438 202.641 51.6562L204.281 50L202.641 48.3594C202.438 48.1719 202.438 47.8438 202.641 47.6562C202.828 47.4531 203.156 47.4531 203.344 47.6562L205 49.2969L206.641 47.6562C206.828 47.4531 207.156 47.4531 207.344 47.6562C207.547 47.8438 207.547 48.1719 207.344 48.3594L205.703 50.0156L207.344 51.6562Z" fill="#ABADAF"/>
<path d="M89.5 66C89.5 64.067 91.067 62.5 93 62.5H203C204.933 62.5 206.5 64.067 206.5 66V73C206.5 74.933 204.933 76.5 203 76.5H93C91.067 76.5 89.5 74.933 89.5 73V66Z" fill="white"/>
<path d="M89.5 66C89.5 64.067 91.067 62.5 93 62.5H203C204.933 62.5 206.5 64.067 206.5 66V73C206.5 74.933 204.933 76.5 203 76.5H93C91.067 76.5 89.5 74.933 89.5 73V66Z" stroke="#D3D4D5"/>
<rect x="95" y="68" width="32" height="3" rx="1.5" fill="#E7E7E8"/>
<path d="M150.5 85C150.5 84.1716 151.172 83.5 152 83.5H173C173.828 83.5 174.5 84.1716 174.5 85V91C174.5 91.8284 173.828 92.5 173 92.5H152C151.172 92.5 150.5 91.8284 150.5 91V85Z" fill="white"/>
<path d="M150.5 85C150.5 84.1716 151.172 83.5 152 83.5H173C173.828 83.5 174.5 84.1716 174.5 85V91C174.5 91.8284 173.828 92.5 173 92.5H152C151.172 92.5 150.5 91.8284 150.5 91V85Z" stroke="#D3D4D5"/>
<rect x="154" y="87" width="17" height="2" rx="1" fill="#D3D4D5"/>
<path d="M180 85C180 83.8954 180.895 83 182 83H205C206.105 83 207 83.8954 207 85V91C207 92.1046 206.105 93 205 93H182C180.895 93 180 92.1046 180 91V85Z" fill="#8952E0"/>
<rect x="184" y="87" width="19" height="2" rx="1" fill="white"/>
</g>
<path d="M80.5 45C80.5 41.9624 82.9624 39.5 86 39.5H210C213.038 39.5 215.5 41.9624 215.5 45V96C215.5 99.0376 213.038 101.5 210 101.5H86C82.9624 101.5 80.5 99.0376 80.5 96V45Z" stroke="#D3D4D5"/>
<defs>
<clipPath id="clip0_78_9894">
<path d="M80 45C80 41.6863 82.6863 39 86 39H210C213.314 39 216 41.6863 216 45V96C216 99.3137 213.314 102 210 102H86C82.6863 102 80 99.3137 80 96V45Z" fill="white"/>
</clipPath>
</defs>
</svg>
