<svg width="168" height="110" viewBox="0 0 168 110" fill="none" xmlns="http://www.w3.org/2000/svg">
<path d="M6 0.5H162C165.038 0.5 167.5 2.96243 167.5 6V143C167.5 146.038 165.038 148.5 162 148.5H6C2.96243 148.5 0.5 146.038 0.5 143V6C0.5 2.96244 2.96243 0.5 6 0.5Z" stroke="#33373D"/>
<mask id="path-2-inside-1_267_11865" fill="white">
<path d="M1 5C1 2.23858 3.23858 0 6 0H162C164.761 0 167 2.23858 167 5V12H1V5Z"/>
</mask>
<path d="M1 0H167H1ZM167 13H1V11H167V13ZM1 12V0V12ZM167 0V12V0Z" fill="#33373D" mask="url(#path-2-inside-1_267_11865)"/>
<rect x="7" y="4" width="4" height="4" rx="2" fill="#E53E3E"/>
<rect x="14" y="4" width="4" height="4" rx="2" fill="#FBC434"/>
<rect x="21" y="4" width="4" height="4" rx="2" fill="#0EA371"/>
<mask id="path-7-inside-2_267_11865" fill="white">
<path d="M1 12H167V28H1V12Z"/>
</mask>
<path d="M1 12H167V28H1V12Z" fill="#1D2025"/>
<path d="M167 27H1V29H167V27Z" fill="#33373D" mask="url(#path-7-inside-2_267_11865)"/>
<rect x="10" y="16.5" width="7" height="7" rx="3.5" fill="#8952E0"/>
<rect x="23" y="18.5" width="17" height="3" rx="1.5" fill="#8952E0"/>
<rect x="46" y="18.5" width="17" height="3" rx="1.5" fill="#52555A"/>
<rect x="69" y="18.5" width="17" height="3" rx="1.5" fill="#52555A"/>
<rect x="138" y="16" width="20" height="8" rx="2" fill="#8952E0"/>
<rect x="141" y="19" width="14" height="2" rx="1" fill="white"/>
</svg>
