<svg width="296" height="141" viewBox="0 0 296 141" fill="none" xmlns="http://www.w3.org/2000/svg">
<g clip-path="url(#clip0_227_12617)">
<path d="M87 36C87 32.6863 89.6863 30 93 30H203C206.314 30 209 32.6863 209 36V105C209 108.314 206.314 111 203 111H93C89.6863 111 87 108.314 87 105V36Z" fill="white"/>
<mask id="path-3-outside-1_227_12617" maskUnits="userSpaceOnUse" x="87" y="30" width="122" height="13" fill="black">
<rect fill="white" x="87" y="30" width="122" height="13"/>
<path d="M87 30H209V42H87V30Z"/>
</mask>
<path d="M87 30H209V42H87V30Z" fill="#F9FAFA"/>
<path d="M209 41H87V43H209V41Z" fill="#E7E7E8" mask="url(#path-3-outside-1_227_12617)"/>
<rect x="93" y="34" width="4" height="4" rx="2" fill="#E53E3E"/>
<rect x="100" y="34" width="4" height="4" rx="2" fill="#FBC434"/>
<rect x="107" y="34" width="4" height="4" rx="2" fill="#0EA371"/>
<path fill-rule="evenodd" clip-rule="evenodd" d="M153 43H87V42H153V43Z" fill="#8952E0"/>
<rect x="124" y="52.5" width="48" height="3" rx="1.5" fill="#ABADAF"/>
<rect x="139" y="58.5" width="18" height="3" rx="1.5" fill="#D3D4D5"/>
<rect x="117" y="69.5" width="10" height="3" rx="1.5" fill="#D3D4D5"/>
<path d="M117.5 76.5C117.5 75.6716 118.172 75 119 75H144C144.828 75 145.5 75.6716 145.5 76.5V81.5C145.5 82.3284 144.828 83 144 83H119C118.172 83 117.5 82.3284 117.5 81.5V76.5Z" fill="white"/>
<path d="M117.5 76.5C117.5 75.6716 118.172 75 119 75H144C144.828 75 145.5 75.6716 145.5 76.5V81.5C145.5 82.3284 144.828 83 144 83H119C118.172 83 117.5 82.3284 117.5 81.5V76.5Z" stroke="#E7E7E8"/>
<rect x="150" y="69.5" width="10" height="3" rx="1.5" fill="#D3D4D5"/>
<path d="M150.5 76.5C150.5 75.6716 151.172 75 152 75H177C177.828 75 178.5 75.6716 178.5 76.5V81.5C178.5 82.3284 177.828 83 177 83H152C151.172 83 150.5 82.3284 150.5 81.5V76.5Z" fill="white"/>
<path d="M150.5 76.5C150.5 75.6716 151.172 75 152 75H177C177.828 75 178.5 75.6716 178.5 76.5V81.5C178.5 82.3284 177.828 83 177 83H152C151.172 83 150.5 82.3284 150.5 81.5V76.5Z" stroke="#E7E7E8"/>
<rect x="117" y="87.5" width="10" height="3" rx="1.5" fill="#D3D4D5"/>
<path d="M117.5 94.5C117.5 93.6716 118.172 93 119 93H177C177.828 93 178.5 93.6716 178.5 94.5V99.5C178.5 100.328 177.828 101 177 101H119C118.172 101 117.5 100.328 117.5 99.5V94.5Z" fill="white"/>
<path d="M117.5 94.5C117.5 93.6716 118.172 93 119 93H177C177.828 93 178.5 93.6716 178.5 94.5V99.5C178.5 100.328 177.828 101 177 101H119C118.172 101 117.5 100.328 117.5 99.5V94.5Z" stroke="#E7E7E8"/>
</g>
<path d="M87.5 36C87.5 32.9624 89.9624 30.5 93 30.5H203C206.038 30.5 208.5 32.9624 208.5 36V105C208.5 108.038 206.038 110.5 203 110.5H93C89.9624 110.5 87.5 108.038 87.5 105V36Z" stroke="#D3D4D5"/>
<defs>
<clipPath id="clip0_227_12617">
<path d="M87 36C87 32.6863 89.6863 30 93 30H203C206.314 30 209 32.6863 209 36V105C209 108.314 206.314 111 203 111H93C89.6863 111 87 108.314 87 105V36Z" fill="white"/>
</clipPath>
</defs>
</svg>
