<svg width="296" height="141" viewBox="0 0 296 141" fill="none" xmlns="http://www.w3.org/2000/svg">
<g clip-path="url(#clip0_103_8242)">
<path d="M64 25C64 21.6863 66.6863 19 70 19H226C229.314 19 232 21.6863 232 25V116C232 119.314 229.314 122 226 122H70C66.6863 122 64 119.314 64 116V25Z" fill="#F9FAFA"/>
<mask id="path-3-inside-1_103_8242" fill="white">
<path d="M64 19H232V31H64V19Z"/>
</mask>
<path d="M64 19H232V31H64V19Z" fill="#F9FAFA"/>
<path d="M232 30H64V32H232V30Z" fill="#E7E7E8" mask="url(#path-3-inside-1_103_8242)"/>
<rect x="70" y="23" width="4" height="4" rx="2" fill="#E53E3E"/>
<rect x="77" y="23" width="4" height="4" rx="2" fill="#FBC434"/>
<rect x="84" y="23" width="4" height="4" rx="2" fill="#0EA371"/>
<mask id="path-8-inside-2_103_8242" fill="white">
<path d="M64 31H232V46H64V31Z"/>
</mask>
<path d="M64 31H232V46H64V31Z" fill="white"/>
<path d="M232 45H64V47H232V45Z" fill="#E7E7E8" mask="url(#path-8-inside-2_103_8242)"/>
<rect x="72" y="35" width="7" height="7" rx="3.5" fill="#8952E0"/>
<rect x="85" y="37" width="17" height="3" rx="1.5" fill="#8952E0"/>
<rect x="108" y="37" width="17" height="3" rx="1.5" fill="#D3D4D5"/>
<rect x="131" y="37" width="17" height="3" rx="1.5" fill="#D3D4D5"/>
<rect width="168" height="76" transform="translate(64 46)" fill="white"/>
<rect x="137.5" y="63" width="21" height="3" rx="1.5" fill="#ABADAF"/>
<rect x="116" y="69" width="64" height="3" rx="1.5" fill="#D3D4D5"/>
<rect x="116" y="75" width="40" height="3" rx="1.5" fill="#D3D4D5"/>
<rect x="159" y="75" width="21" height="3" rx="1.5" fill="#D3D4D5"/>
<path d="M134 86C134 84.8954 134.895 84 136 84H160C161.105 84 162 84.8954 162 86V90C162 91.1046 161.105 92 160 92H136C134.895 92 134 91.1046 134 90V86Z" fill="#ABADAF"/>
<rect x="138" y="87" width="20" height="2" rx="1" fill="white"/>
</g>
<path d="M64.5 25C64.5 21.9624 66.9624 19.5 70 19.5H226C229.038 19.5 231.5 21.9624 231.5 25V116C231.5 119.038 229.038 121.5 226 121.5H70C66.9624 121.5 64.5 119.038 64.5 116V25Z" stroke="#D3D4D5"/>
<defs>
<clipPath id="clip0_103_8242">
<path d="M64 25C64 21.6863 66.6863 19 70 19H226C229.314 19 232 21.6863 232 25V116C232 119.314 229.314 122 226 122H70C66.6863 122 64 119.314 64 116V25Z" fill="white"/>
</clipPath>
</defs>
</svg>
