<svg width="296" height="141" viewBox="0 0 296 141" fill="none" xmlns="http://www.w3.org/2000/svg">
<rect width="296" height="141" fill="#F1F1F2"/>
<rect x="89" y="58" width="28" height="3" rx="1.5" fill="#ABADAF"/>
<path d="M89.5 70C89.5 68.067 91.067 66.5 93 66.5H203C204.933 66.5 206.5 68.067 206.5 70V79C206.5 80.933 204.933 82.5 203 82.5H93C91.067 82.5 89.5 80.933 89.5 79V70Z" fill="white"/>
<path d="M89.5 70C89.5 68.067 91.067 66.5 93 66.5H203C204.933 66.5 206.5 68.067 206.5 70V79C206.5 80.933 204.933 82.5 203 82.5H93C91.067 82.5 89.5 80.933 89.5 79V70Z" stroke="#D3D4D5"/>
<path d="M102 75C102 76.1094 101.102 77 100 77C98.8906 77 98 76.1094 98 75C98 73.8984 98.8906 73 100 73C101.102 73 102 73.8984 102 75Z" fill="#D3D4D5"/>
<path d="M112 75C112 76.1094 111.102 77 110 77C108.891 77 108 76.1094 108 75C108 73.8984 108.891 73 110 73C111.102 73 112 73.8984 112 75Z" fill="#D3D4D5"/>
<path d="M122 75C122 76.1094 121.102 77 120 77C118.891 77 118 76.1094 118 75C118 73.8984 118.891 73 120 73C121.102 73 122 73.8984 122 75Z" fill="#D3D4D5"/>
<path d="M132 75C132 76.1094 131.102 77 130 77C128.891 77 128 76.1094 128 75C128 73.8984 128.891 73 130 73C131.102 73 132 73.8984 132 75Z" fill="#D3D4D5"/>
<path d="M142 75C142 76.1094 141.102 77 140 77C138.891 77 138 76.1094 138 75C138 73.8984 138.891 73 140 73C141.102 73 142 73.8984 142 75Z" fill="#D3D4D5"/>
<path d="M152 75C152 76.1094 151.102 77 150 77C148.891 77 148 76.1094 148 75C148 73.8984 148.891 73 150 73C151.102 73 152 73.8984 152 75Z" fill="#D3D4D5"/>
<path d="M193.844 71.9531C194.547 71.4219 195.422 71 196.5 71C197.75 71 198.766 71.5781 199.5 72.2656C200.234 72.9375 200.719 73.75 200.953 74.3125C201 74.4375 201 74.5781 200.953 74.7031C200.75 75.2031 200.328 75.9219 199.703 76.5469L201.344 77.8438C201.516 77.9688 201.547 78.2031 201.406 78.3594C201.281 78.5312 201.047 78.5625 200.891 78.4219L191.641 71.1719C191.469 71.0469 191.438 70.8125 191.578 70.6562C191.703 70.4844 191.938 70.4531 192.094 70.5938L193.844 71.9531ZM194.984 72.8438L196.391 73.9531C196.453 73.8125 196.5 73.6719 196.5 73.5C196.5 73.3281 196.438 73.1562 196.359 73.0156C196.406 73.0156 196.453 73 196.5 73C197.328 73 198 73.6719 198 74.5C198 74.7188 197.953 74.9219 197.859 75.1094L198.469 75.5781C198.641 75.2656 198.75 74.8906 198.75 74.5C198.75 73.2656 197.734 72.25 196.5 72.25C195.906 72.25 195.375 72.4844 194.984 72.8438ZM196.5 78C195.234 78 194.219 77.4375 193.484 76.75C192.75 76.0625 192.266 75.25 192.031 74.7031C191.984 74.5781 191.984 74.4375 192.031 74.3125C192.188 73.9531 192.438 73.5 192.797 73.0312L194.266 74.1875C194.25 74.2969 194.25 74.4062 194.25 74.5C194.25 75.75 195.25 76.75 196.5 76.75C196.781 76.75 197.062 76.7031 197.328 76.5938L198.469 77.5C197.891 77.8125 197.234 78 196.5 78Z" fill="#ABADAF"/>
</svg>
