<svg width="296" height="141" viewBox="0 0 296 141" fill="none" xmlns="http://www.w3.org/2000/svg">
<rect x="106.5" y="53.5" width="83" height="34" rx="5.5" fill="white"/>
<rect x="106.5" y="53.5" width="83" height="34" rx="5.5" stroke="#D3D4D5"/>
<rect x="114" y="61" width="18" height="18" rx="9" fill="#E7E7E8"/>
<path d="M132.5 63.75C132.5 65.4141 131.152 66.75 129.5 66.75C127.836 66.75 126.5 65.4141 126.5 63.75C126.5 62.0977 127.836 60.75 129.5 60.75C131.152 60.75 132.5 62.0977 132.5 63.75Z" fill="#8952E0"/>
<path d="M123 70C121.891 70 121 69.1094 121 68C121 66.9062 121.891 66 123 66C124.094 66 125 66.9062 125 68C125 69.1094 124.094 70 123 70ZM123.781 70.75C125.281 70.75 126.5 71.9688 126.5 73.4688C126.5 73.7656 126.25 74 125.953 74H120.031C119.734 74 119.5 73.7656 119.5 73.4688C119.5 71.9688 120.703 70.75 122.203 70.75H123.781Z" fill="#ABADAF"/>
<rect x="137" y="65" width="22" height="3" rx="1.5" fill="#ABADAF"/>
<rect x="162" y="65" width="17" height="3" rx="1.5" fill="#ABADAF"/>
<rect x="137" y="72" width="32" height="3" rx="1.5" fill="#D3D4D5"/>
</svg>
