<svg width="296" height="141" viewBox="0 0 296 141" fill="none" xmlns="http://www.w3.org/2000/svg">
<path d="M100.5 45C100.5 41.9624 102.962 39.5 106 39.5H190C193.038 39.5 195.5 41.9624 195.5 45V96C195.5 99.0376 193.038 101.5 190 101.5H106C102.962 101.5 100.5 99.0376 100.5 96V45Z" fill="white"/>
<path d="M100.5 45C100.5 41.9624 102.962 39.5 106 39.5H190C193.038 39.5 195.5 41.9624 195.5 45V96C195.5 99.0376 193.038 101.5 190 101.5H106C102.962 101.5 100.5 99.0376 100.5 96V45Z" stroke="#D3D4D5"/>
<rect x="109" y="50" width="20" height="3" rx="1.5" fill="#ABADAF"/>
<rect x="176" y="50" width="11" height="3" rx="1.5" fill="#8952E0"/>
<rect x="109" y="65" width="20" height="3" rx="1.5" fill="#D3D4D5"/>
<rect x="141" y="65" width="19" height="3" rx="1.5" fill="#ABADAF"/>
<rect x="162" y="65" width="12" height="3" rx="1.5" fill="#ABADAF"/>
<rect x="109" y="76" width="20" height="3" rx="1.5" fill="#D3D4D5"/>
<rect x="141" y="76" width="19" height="3" rx="1.5" fill="#ABADAF"/>
<rect x="162" y="76" width="12" height="3" rx="1.5" fill="#ABADAF"/>
<rect x="109" y="87" width="20" height="3" rx="1.5" fill="#D3D4D5"/>
<rect x="141" y="87" width="19" height="3" rx="1.5" fill="#ABADAF"/>
</svg>
