<svg width="296" height="141" viewBox="0 0 296 141" fill="none" xmlns="http://www.w3.org/2000/svg">
<rect width="296" height="141" fill="#171A1D"/>
<rect x="89" y="58" width="28" height="3" rx="1.5" fill="#33373D"/>
<path d="M89.5 70C89.5 68.067 91.067 66.5 93 66.5H203C204.933 66.5 206.5 68.067 206.5 70V79C206.5 80.933 204.933 82.5 203 82.5H93C91.067 82.5 89.5 80.933 89.5 79V70Z" fill="#1D2025"/>
<path d="M89.5 70C89.5 68.067 91.067 66.5 93 66.5H203C204.933 66.5 206.5 68.067 206.5 70V79C206.5 80.933 204.933 82.5 203 82.5H93C91.067 82.5 89.5 80.933 89.5 79V70Z" stroke="#33373D"/>
<path d="M103.312 77.4375C103.547 77.6875 103.547 78.0781 103.312 78.3281C103.062 78.5625 102.672 78.5625 102.422 78.3281L100.562 76.4531C99.9219 76.875 99.1406 77.0938 98.2969 76.9844C96.8594 76.7812 95.7031 75.6094 95.5156 74.1875C95.25 72.0625 97.0469 70.2656 99.1719 70.5312C100.594 70.7188 101.766 71.875 101.969 73.3125C102.078 74.1562 101.859 74.9375 101.438 75.5625L103.312 77.4375ZM96.7344 73.75C96.7344 74.8594 97.625 75.75 98.7344 75.75C99.8281 75.75 100.734 74.8594 100.734 73.75C100.734 72.6562 99.8281 71.75 98.7344 71.75C97.625 71.75 96.7344 72.6562 96.7344 73.75Z" fill="#52555A"/>
<rect x="110" y="73" width="32" height="3" rx="1.5" fill="#52555A"/>
</svg>
