<svg width="296" height="141" viewBox="0 0 296 141" fill="none" xmlns="http://www.w3.org/2000/svg">
<g clip-path="url(#clip0_227_11707)">
<g clip-path="url(#clip1_227_11707)">
<path d="M64 47C64 43.6863 66.6863 41 70 41H226C229.314 41 232 43.6863 232 47V175C232 178.314 229.314 181 226 181H70C66.6863 181 64 178.314 64 175V47Z" fill="#F9FAFA"/>
<mask id="path-3-inside-1_227_11707" fill="white">
<path d="M64 41H232V53H64V41Z"/>
</mask>
<path d="M232 52H64V54H232V52Z" fill="#E7E7E8" mask="url(#path-3-inside-1_227_11707)"/>
<rect x="70" y="45" width="4" height="4" rx="2" fill="#E53E3E"/>
<rect x="77" y="45" width="4" height="4" rx="2" fill="#FBC434"/>
<rect x="84" y="45" width="4" height="4" rx="2" fill="#0EA371"/>
<mask id="path-8-inside-2_227_11707" fill="white">
<path d="M64 53H101V181H64V53Z"/>
</mask>
<path d="M64 53H101V181H64V53Z" fill="white"/>
<path d="M100 53V181H102V53H100Z" fill="#E7E7E8" mask="url(#path-8-inside-2_227_11707)"/>
<rect x="71" y="60" width="7" height="7" rx="3.5" fill="#D3D4D5"/>
<rect x="71" y="71" width="19" height="3" rx="1.5" fill="#8952E0"/>
<rect x="71" y="80" width="19" height="3" rx="1.5" fill="#D3D4D5"/>
<rect x="71" y="89" width="19" height="3" rx="1.5" fill="#D3D4D5"/>
<rect x="71" y="98" width="19" height="3" rx="1.5" fill="#D3D4D5"/>
</g>
<path d="M64.5 47C64.5 43.9624 66.9624 41.5 70 41.5H226C229.038 41.5 231.5 43.9624 231.5 47V175C231.5 178.038 229.038 180.5 226 180.5H70C66.9624 180.5 64.5 178.038 64.5 175V47Z" stroke="#D3D4D5"/>
</g>
<defs>
<clipPath id="clip0_227_11707">
<rect width="296" height="149" fill="white" transform="translate(0 -8)"/>
</clipPath>
<clipPath id="clip1_227_11707">
<path d="M64 47C64 43.6863 66.6863 41 70 41H226C229.314 41 232 43.6863 232 47V175C232 178.314 229.314 181 226 181H70C66.6863 181 64 178.314 64 175V47Z" fill="white"/>
</clipPath>
</defs>
</svg>
