<svg width="296" height="141" viewBox="0 0 296 141" fill="none" xmlns="http://www.w3.org/2000/svg">
<g clip-path="url(#clip0_4_5418)">
<path d="M64.5 47C64.5 43.9624 66.9624 41.5 70 41.5H226C229.038 41.5 231.5 43.9624 231.5 47V146C231.5 149.038 229.038 151.5 226 151.5H70C66.9624 151.5 64.5 149.038 64.5 146V47Z" fill="#F9FAFA"/>
<path d="M64.5 47C64.5 43.9624 66.9624 41.5 70 41.5H226C229.038 41.5 231.5 43.9624 231.5 47V146C231.5 149.038 229.038 151.5 226 151.5H70C66.9624 151.5 64.5 149.038 64.5 146V47Z" stroke="#D3D4D5"/>
<mask id="path-2-inside-1_4_5418" fill="white">
<path d="M64 41H232V53H64V41Z"/>
</mask>
<path d="M64 41H232V53H64V41Z" fill="#F9FAFA"/>
<path d="M232 52H64V54H232V52Z" fill="#E7E7E8" mask="url(#path-2-inside-1_4_5418)"/>
<rect x="70" y="45" width="4" height="4" rx="2" fill="#E53E3E"/>
<rect x="77" y="45" width="4" height="4" rx="2" fill="#FBC434"/>
<rect x="84" y="45" width="4" height="4" rx="2" fill="#0EA371"/>
<mask id="path-7-inside-2_4_5418" fill="white">
<path d="M64 53H102V149H64V53Z"/>
</mask>
<path d="M64 53H102V149H64V53Z" fill="white"/>
<path d="M101 53V149H103V53H101Z" fill="#E7E7E8" mask="url(#path-7-inside-2_4_5418)"/>
<rect x="70" y="57.5" width="7" height="7" rx="3.5" fill="#D3D4D5"/>
<rect x="70" y="71" width="19" height="3" rx="1.5" fill="#8952E0"/>
<rect x="70" y="80" width="19" height="3" rx="1.5" fill="#D3D4D5"/>
<rect x="70" y="89" width="19" height="3" rx="1.5" fill="#D3D4D5"/>
<rect x="70" y="98" width="19" height="3" rx="1.5" fill="#D3D4D5"/>
</g>
<defs>
<clipPath id="clip0_4_5418">
<rect width="296" height="141" fill="white"/>
</clipPath>
</defs>
</svg>
