<svg width="296" height="151" viewBox="0 0 296 151" fill="none" xmlns="http://www.w3.org/2000/svg">
<g clip-path="url(#clip0_227_13318)">
<path d="M64.5 47C64.5 43.9624 66.9624 41.5 70 41.5H226C229.038 41.5 231.5 43.9624 231.5 47V184C231.5 187.038 229.038 189.5 226 189.5H70C66.9624 189.5 64.5 187.038 64.5 184V47Z" fill="white" fill-opacity="0.04"/>
<path d="M64.5 47C64.5 43.9624 66.9624 41.5 70 41.5H226C229.038 41.5 231.5 43.9624 231.5 47V184C231.5 187.038 229.038 189.5 226 189.5H70C66.9624 189.5 64.5 187.038 64.5 184V47Z" stroke="#33373D"/>
<mask id="path-2-inside-1_227_13318" fill="white">
<path d="M65 47C65 44.2386 67.2386 42 70 42H227C229.761 42 232 44.2386 232 47V54H65V47Z"/>
</mask>
<path d="M65 42H232H65ZM232 55H65V53H232V55ZM65 54V42V54ZM232 42V54V42Z" fill="#33373D" mask="url(#path-2-inside-1_227_13318)"/>
<rect x="71" y="46" width="4" height="4" rx="2" fill="#E53E3E"/>
<rect x="78" y="46" width="4" height="4" rx="2" fill="#FBC434"/>
<rect x="85" y="46" width="4" height="4" rx="2" fill="#0EA371"/>
<mask id="path-7-inside-2_227_13318" fill="white">
<path d="M65 54H102V153H65V54Z"/>
</mask>
<path d="M65 54H102V153H65V54Z" fill="#1D2025"/>
<path d="M101 54V153H103V54H101Z" fill="#33373D" mask="url(#path-7-inside-2_227_13318)"/>
<rect x="71" y="61" width="7" height="7" rx="3.5" fill="#33373D"/>
<rect x="71" y="72" width="19" height="3" rx="1.5" fill="#8952E0"/>
<rect x="71" y="81" width="19" height="3" rx="1.5" fill="#33373D"/>
<rect x="71" y="90" width="19" height="3" rx="1.5" fill="#33373D"/>
<rect x="71" y="99" width="19" height="3" rx="1.5" fill="#33373D"/>
</g>
<defs>
<clipPath id="clip0_227_13318">
<rect width="296" height="151" fill="white"/>
</clipPath>
</defs>
</svg>
