<svg width="296" height="149" viewBox="0 0 296 149" fill="none" xmlns="http://www.w3.org/2000/svg">
<g clip-path="url(#clip0_246_11708)">
<g clip-path="url(#clip1_246_11708)">
<path d="M64 35C64 31.6863 66.6863 29 70 29H226C229.314 29 232 31.6863 232 35V163C232 166.314 229.314 169 226 169H70C66.6863 169 64 166.314 64 163V35Z" fill="#F9FAFA"/>
<mask id="path-3-inside-1_246_11708" fill="white">
<path d="M64 29H232V41H64V29Z"/>
</mask>
<path d="M232 40H64V42H232V40Z" fill="#E7E7E8" mask="url(#path-3-inside-1_246_11708)"/>
<rect x="70" y="33" width="4" height="4" rx="2" fill="#E53E3E"/>
<rect x="77" y="33" width="4" height="4" rx="2" fill="#FBC434"/>
<rect x="84" y="33" width="4" height="4" rx="2" fill="#0EA371"/>
<mask id="path-8-inside-2_246_11708" fill="white">
<path d="M64 41H101V169H64V41Z"/>
</mask>
<path d="M64 41H101V169H64V41Z" fill="white"/>
<path d="M100 41V169H102V41H100Z" fill="#E7E7E8" mask="url(#path-8-inside-2_246_11708)"/>
<rect x="71" y="48" width="7" height="7" rx="3.5" fill="#D3D4D5"/>
<rect x="71" y="59" width="19" height="3" rx="1.5" fill="#8952E0"/>
<rect x="71" y="68" width="19" height="3" rx="1.5" fill="#D3D4D5"/>
<rect x="71" y="77" width="19" height="3" rx="1.5" fill="#D3D4D5"/>
<rect x="71" y="86" width="19" height="3" rx="1.5" fill="#D3D4D5"/>
</g>
<path d="M70 29.5H226C229.038 29.5 231.5 31.9624 231.5 35V163C231.5 166.038 229.038 168.5 226 168.5H70C66.9624 168.5 64.5 166.038 64.5 163V35C64.5 31.9624 66.9624 29.5 70 29.5Z" stroke="#D3D4D5"/>
</g>
<defs>
<clipPath id="clip0_246_11708">
<rect width="296" height="149" fill="white"/>
</clipPath>
<clipPath id="clip1_246_11708">
<path d="M64 35C64 31.6863 66.6863 29 70 29H226C229.314 29 232 31.6863 232 35V163C232 166.314 229.314 169 226 169H70C66.6863 169 64 166.314 64 163V35Z" fill="white"/>
</clipPath>
</defs>
</svg>
