<svg width="296" height="141" viewBox="0 0 296 141" fill="none" xmlns="http://www.w3.org/2000/svg">
<g clip-path="url(#clip0_99_8660)">
<path d="M67 31C67 27.6863 69.6863 25 73 25H223C226.314 25 229 27.6863 229 31V110C229 113.314 226.314 116 223 116H73C69.6863 116 67 113.314 67 110V31Z" fill="#F9FAFA"/>
<mask id="path-3-inside-1_99_8660" fill="white">
<path d="M67 25H229V37H67V25Z"/>
</mask>
<path d="M67 25H229V37H67V25Z" fill="#F9FAFA"/>
<path d="M229 36H67V38H229V36Z" fill="#E7E7E8" mask="url(#path-3-inside-1_99_8660)"/>
<rect x="73" y="29" width="4" height="4" rx="2" fill="#E53E3E"/>
<rect x="80" y="29" width="4" height="4" rx="2" fill="#FBC434"/>
<rect x="87" y="29" width="4" height="4" rx="2" fill="#0EA371"/>
<mask id="path-8-inside-2_99_8660" fill="white">
<path d="M67 37H105V133H67V37Z"/>
</mask>
<path d="M67 37H105V133H67V37Z" fill="#8952E0"/>
<path d="M104 37V133H106V37H104Z" fill="#D3BEF4" mask="url(#path-8-inside-2_99_8660)"/>
<rect x="73" y="44" width="19" height="3" rx="1.5" fill="#B795EC"/>
<rect x="73" y="53" width="19" height="3" rx="1.5" fill="#B795EC"/>
<rect x="73" y="62" width="19" height="3" rx="1.5" fill="#B795EC"/>
<rect x="73" y="71" width="19" height="3" rx="1.5" fill="#B795EC"/>
<mask id="path-14-inside-3_99_8660" fill="white">
<path d="M105 37H143V133H105V37Z"/>
</mask>
<path d="M105 37H143V133H105V37Z" fill="white"/>
<path d="M142 37V133H144V37H142Z" fill="#E7E7E8" mask="url(#path-14-inside-3_99_8660)"/>
<rect x="111" y="44" width="19" height="3" rx="1.5" fill="#D3D4D5"/>
<rect x="111" y="49" width="11" height="3" rx="1.5" fill="#E7E7E8"/>
<rect x="111" y="58" width="19" height="3" rx="1.5" fill="#D3D4D5"/>
<rect x="111" y="63" width="11" height="3" rx="1.5" fill="#E7E7E8"/>
<rect x="111" y="72" width="19" height="3" rx="1.5" fill="#D3D4D5"/>
<rect x="111" y="77" width="11" height="3" rx="1.5" fill="#E7E7E8"/>
<rect x="111" y="86" width="19" height="3" rx="1.5" fill="#D3D4D5"/>
<rect x="111" y="91" width="11" height="3" rx="1.5" fill="#E7E7E8"/>
<mask id="path-24-inside-4_99_8660" fill="white">
<path d="M143 37H235V49H143V37Z"/>
</mask>
<path d="M143 37H235V49H143V37Z" fill="white"/>
<path d="M235 48H143V50H235V48Z" fill="#E7E7E8" mask="url(#path-24-inside-4_99_8660)"/>
<rect x="151.5" y="56.5" width="68" height="28" rx="1.5" stroke="#E7E7E8" stroke-dasharray="2 2"/>
<rect x="151.5" y="89.5" width="68" height="20" rx="1.5" stroke="#E7E7E8" stroke-dasharray="2 2"/>
</g>
<path d="M67.5 31C67.5 27.9624 69.9624 25.5 73 25.5H223C226.038 25.5 228.5 27.9624 228.5 31V110C228.5 113.038 226.038 115.5 223 115.5H73C69.9624 115.5 67.5 113.038 67.5 110V31Z" stroke="#D3D4D5"/>
<defs>
<clipPath id="clip0_99_8660">
<path d="M67 31C67 27.6863 69.6863 25 73 25H223C226.314 25 229 27.6863 229 31V110C229 113.314 226.314 116 223 116H73C69.6863 116 67 113.314 67 110V31Z" fill="white"/>
</clipPath>
</defs>
</svg>
