<svg width="296" height="141" viewBox="0 0 296 141" fill="none" xmlns="http://www.w3.org/2000/svg">
<rect width="296" height="141" fill="#F1F1F2"/>
<path d="M108 42.625C108 40.1465 110.004 38.125 112.5 38.125C114.979 38.125 117 40.1465 117 42.625C117 45.1211 114.979 47.125 112.5 47.125C110.004 47.125 108 45.1211 108 42.625ZM114.521 41.8516C114.715 41.6582 114.715 41.3594 114.521 41.166C114.328 40.9727 114.029 40.9727 113.836 41.166L111.938 43.0645L111.146 42.291C110.953 42.0977 110.654 42.0977 110.461 42.291C110.268 42.4844 110.268 42.7832 110.461 42.9766L111.586 44.1016C111.779 44.2949 112.078 44.2949 112.271 44.1016L114.521 41.8516Z" fill="#8952E0"/>
<rect x="112" y="50" width="1" height="8" rx="0.5" fill="#8952E0"/>
<rect x="122" y="41" width="20" height="3" rx="1.5" fill="#ABADAF"/>
<path d="M108 65.625C108 63.1465 110.004 61.125 112.5 61.125C114.979 61.125 117 63.1465 117 65.625C117 68.1211 114.979 70.125 112.5 70.125C110.004 70.125 108 68.1211 108 65.625ZM112.5 67.3125C113.432 67.3125 114.188 66.5566 114.188 65.625C114.188 64.6934 113.432 63.9375 112.5 63.9375C111.551 63.9375 110.812 64.6934 110.812 65.625C110.812 66.5566 111.551 67.3125 112.5 67.3125Z" fill="#8952E0"/>
<rect x="112" y="73" width="1" height="20" rx="0.5" fill="#D3D4D5"/>
<rect x="122" y="64" width="20" height="3" rx="1.5" fill="#ABADAF"/>
<path d="M122.5 78C122.5 76.067 124.067 74.5 126 74.5H178C179.933 74.5 181.5 76.067 181.5 78V87C181.5 88.933 179.933 90.5 178 90.5H126C124.067 90.5 122.5 88.933 122.5 87V78Z" fill="white"/>
<path d="M122.5 78C122.5 76.067 124.067 74.5 126 74.5H178C179.933 74.5 181.5 76.067 181.5 78V87C181.5 88.933 179.933 90.5 178 90.5H126C124.067 90.5 122.5 88.933 122.5 87V78Z" stroke="#D3D4D5"/>
<rect x="128" y="81" width="32" height="3" rx="1.5" fill="#E7E7E8"/>
<path d="M117 99.625C117 102.121 114.979 104.125 112.5 104.125C110.004 104.125 108 102.121 108 99.625C108 97.1465 110.004 95.125 112.5 95.125C114.979 95.125 117 97.1465 117 99.625Z" fill="#D3D4D5"/>
<rect x="122" y="98" width="20" height="3" rx="1.5" fill="#D3D4D5"/>
</svg>
