<svg width="296" height="141" viewBox="0 0 296 141" fill="none" xmlns="http://www.w3.org/2000/svg">
<rect x="90.5" y="33.5" width="115" height="74" rx="5.5" fill="white"/>
<rect x="90.5" y="33.5" width="115" height="74" rx="5.5" stroke="#D3D4D5"/>
<rect x="98" y="41" width="36" height="3" rx="1.5" fill="#ABADAF"/>
<rect width="116" height="26" transform="translate(90 52)" fill="#F9FAFA"/>
<rect x="98" y="56" width="18" height="18" rx="9" fill="#E7E7E8"/>
<path d="M107 65C105.891 65 105 64.1094 105 63C105 61.9062 105.891 61 107 61C108.094 61 109 61.9062 109 63C109 64.1094 108.094 65 107 65ZM107.781 65.75C109.281 65.75 110.5 66.9688 110.5 68.4688C110.5 68.7656 110.25 69 109.953 69H104.031C103.734 69 103.5 68.7656 103.5 68.4688C103.5 66.9688 104.703 65.75 106.203 65.75H107.781Z" fill="#ABADAF"/>
<rect x="120" y="60" width="55" height="3" rx="1.5" fill="#ABADAF"/>
<rect x="120" y="67" width="32" height="3" rx="1.5" fill="#D3D4D5"/>
<path d="M197 61.5C197.547 61.5 198 61.9531 198 62.5V67.5C198 68.0625 197.547 68.5 197 68.5H192C191.438 68.5 191 68.0625 191 67.5V62.5C191 61.9531 191.438 61.5 192 61.5H197ZM196.297 64.3125C196.469 64.1406 196.469 63.875 196.297 63.7031C196.125 63.5312 195.859 63.5312 195.688 63.7031L194 65.3906L193.297 64.7031C193.125 64.5312 192.859 64.5312 192.688 64.7031C192.516 64.875 192.516 65.1406 192.688 65.3125L193.688 66.3125C193.859 66.4844 194.125 66.4844 194.297 66.3125L196.297 64.3125Z" fill="#8952E0"/>
<rect x="98" y="82" width="18" height="18" rx="9" fill="#E7E7E8"/>
<path d="M107 91C105.891 91 105 90.1094 105 89C105 87.9062 105.891 87 107 87C108.094 87 109 87.9062 109 89C109 90.1094 108.094 91 107 91ZM107.781 91.75C109.281 91.75 110.5 92.9688 110.5 94.4688C110.5 94.7656 110.25 95 109.953 95H104.031C103.734 95 103.5 94.7656 103.5 94.4688C103.5 92.9688 104.703 91.75 106.203 91.75H107.781Z" fill="#ABADAF"/>
<rect x="120" y="86" width="55" height="3" rx="1.5" fill="#ABADAF"/>
<rect x="120" y="93" width="32" height="3" rx="1.5" fill="#D3D4D5"/>
<path d="M191 88.5C191 87.9531 191.438 87.5 192 87.5H197C197.547 87.5 198 87.9531 198 88.5V93.5C198 94.0625 197.547 94.5 197 94.5H192C191.438 94.5 191 94.0625 191 93.5V88.5Z" fill="#D3D4D5"/>
</svg>
