<svg xmlns="http://www.w3.org/2000/svg" xmlns:xlink="http://www.w3.org/1999/xlink" version="1.1" width="256" height="256" viewBox="0 0 256 256" xml:space="preserve">
<g style="stroke: none; stroke-width: 0; stroke-dasharray: none; stroke-linecap: butt; stroke-linejoin: miter; stroke-miterlimit: 10; fill: none; fill-rule: nonzero; opacity: 1;" transform="translate(1.4065934065934016 1.4065934065934016) scale(2.81 2.81)">
	<circle cx="45" cy="45" r="45" style="stroke: none; stroke-width: 1; stroke-dasharray: none; stroke-linecap: butt; stroke-linejoin: miter; stroke-miterlimit: 10; fill: rgb(99,91,255); fill-rule: nonzero; opacity: 1;" transform="  matrix(1 0 0 1 0 0) "/>
	<path d="M 75 45.417 c 0 -4.267 -2.067 -7.633 -6.017 -7.633 c -3.967 0 -6.367 3.367 -6.367 7.6 c 0 5.017 2.833 7.55 6.9 7.55 c 1.983 0 3.483 -0.45 4.617 -1.083 v -3.333 C 73 49.083 71.7 49.433 70.05 49.433 c -1.617 0 -3.05 -0.567 -3.233 -2.533 h 8.15 C 74.967 46.683 75 45.817 75 45.417 z M 66.767 43.833 c 0 -1.883 1.15 -2.667 2.2 -2.667 c 1.017 0 2.1 0.783 2.1 2.667 H 66.767 z" style="stroke: none; stroke-width: 1; stroke-dasharray: none; stroke-linecap: butt; stroke-linejoin: miter; stroke-miterlimit: 10; fill: rgb(249,249,249); fill-rule: nonzero; opacity: 1;" transform=" matrix(1 0 0 1 0 0) " stroke-linecap="round"/>
	<path d="M 56.183 37.783 c -1.633 0 -2.683 0.767 -3.267 1.3 L 52.7 38.05 h -3.667 v 19.433 L 53.2 56.6 l 0.017 -4.717 c 0.6 0.433 1.483 1.05 2.95 1.05 c 2.983 0 5.7 -2.4 5.7 -7.683 C 61.85 40.417 59.1 37.783 56.183 37.783 z M 55.183 49.267 c -0.983 0 -1.567 -0.35 -1.967 -0.783 L 53.2 42.3 c 0.433 -0.483 1.033 -0.817 1.983 -0.817 c 1.517 0 2.567 1.7 2.567 3.883 C 57.75 47.6 56.717 49.267 55.183 49.267 z" style="stroke: none; stroke-width: 1; stroke-dasharray: none; stroke-linecap: butt; stroke-linejoin: miter; stroke-miterlimit: 10; fill: rgb(249,249,249); fill-rule: nonzero; opacity: 1;" transform=" matrix(1 0 0 1 0 0) " stroke-linecap="round"/>
	<polygon points="43.3,36.8 47.48,35.9 47.48,32.52 43.3,33.4 " style="stroke: none; stroke-width: 1; stroke-dasharray: none; stroke-linecap: butt; stroke-linejoin: miter; stroke-miterlimit: 10; fill: rgb(249,249,249); fill-rule: nonzero; opacity: 1;" transform="  matrix(1 0 0 1 0 0) "/>
	<rect x="43.3" y="38.07" rx="0" ry="0" width="4.18" height="14.58" style="stroke: none; stroke-width: 1; stroke-dasharray: none; stroke-linecap: butt; stroke-linejoin: miter; stroke-miterlimit: 10; fill: rgb(249,249,249); fill-rule: nonzero; opacity: 1;" transform=" matrix(1 0 0 1 0 0) "/>
	<path d="M 38.817 39.3 l -0.267 -1.233 h -3.6 V 52.65 h 4.167 v -9.883 c 0.983 -1.283 2.65 -1.05 3.167 -0.867 v -3.833 C 41.75 37.867 39.8 37.5 38.817 39.3 z" style="stroke: none; stroke-width: 1; stroke-dasharray: none; stroke-linecap: butt; stroke-linejoin: miter; stroke-miterlimit: 10; fill: rgb(249,249,249); fill-rule: nonzero; opacity: 1;" transform=" matrix(1 0 0 1 0 0) " stroke-linecap="round"/>
	<path d="M 30.483 34.45 l -4.067 0.867 L 26.4 48.667 c 0 2.467 1.85 4.283 4.317 4.283 c 1.367 0 2.367 -0.25 2.917 -0.55 v -3.383 C 33.1 49.233 30.467 50 30.467 47.533 v -5.917 h 3.167 v -3.55 h -3.167 L 30.483 34.45 z" style="stroke: none; stroke-width: 1; stroke-dasharray: none; stroke-linecap: butt; stroke-linejoin: miter; stroke-miterlimit: 10; fill: rgb(249,249,249); fill-rule: nonzero; opacity: 1;" transform=" matrix(1 0 0 1 0 0) " stroke-linecap="round"/>
	<path d="M 19.217 42.3 c 0 -0.65 0.533 -0.9 1.417 -0.9 c 1.267 0 2.867 0.383 4.133 1.067 V 38.55 c -1.383 -0.55 -2.75 -0.767 -4.133 -0.767 C 17.25 37.783 15 39.55 15 42.5 c 0 4.6 6.333 3.867 6.333 5.85 c 0 0.767 -0.667 1.017 -1.6 1.017 c -1.383 0 -3.15 -0.567 -4.55 -1.333 V 52 c 1.55 0.667 3.117 0.95 4.55 0.95 c 3.467 0 5.85 -1.717 5.85 -4.7 C 25.567 43.283 19.217 44.167 19.217 42.3 z" style="stroke: none; stroke-width: 1; stroke-dasharray: none; stroke-linecap: butt; stroke-linejoin: miter; stroke-miterlimit: 10; fill: rgb(249,249,249); fill-rule: nonzero; opacity: 1;" transform=" matrix(1 0 0 1 0 0) " stroke-linecap="round"/>
</g>
</svg>