<svg width="296" height="141" viewBox="0 0 296 141" fill="none" xmlns="http://www.w3.org/2000/svg">
<g opacity="0.7">
<rect x="78" y="46" width="28" height="3" rx="1.5" fill="#33373D"/>
</g>
<path d="M78.5 57C78.5 55.067 80.067 53.5 82 53.5H192C193.933 53.5 195.5 55.067 195.5 57V66C195.5 67.933 193.933 69.5 192 69.5H82C80.067 69.5 78.5 67.933 78.5 66V57Z" fill="#1D2025"/>
<path d="M78.5 57C78.5 55.067 80.067 53.5 82 53.5H192C193.933 53.5 195.5 55.067 195.5 57V66C195.5 67.933 193.933 69.5 192 69.5H82C80.067 69.5 78.5 67.933 78.5 66V57Z" stroke="#33373D"/>
<rect x="84" y="60" width="32" height="3" rx="1.5" fill="#52555A"/>
<rect width="17" height="17" transform="translate(179 53)" fill="white" fill-opacity="0.06"/>
<path d="M190.25 62H184.75C184.469 62 184.25 61.7812 184.25 61.5C184.25 61.2344 184.469 61 184.75 61H190.25C190.516 61 190.75 61.2344 190.75 61.5C190.75 61.7812 190.516 62 190.25 62Z" fill="#52555A"/>
<path d="M78.5 81C78.5 79.067 80.067 77.5 82 77.5H192C193.933 77.5 195.5 79.067 195.5 81V90C195.5 91.933 193.933 93.5 192 93.5H82C80.067 93.5 78.5 91.933 78.5 90V81Z" fill="#1D2025"/>
<path d="M78.5 81C78.5 79.067 80.067 77.5 82 77.5H192C193.933 77.5 195.5 79.067 195.5 81V90C195.5 91.933 193.933 93.5 192 93.5H82C80.067 93.5 78.5 91.933 78.5 90V81Z" stroke="#33373D"/>
<rect x="84" y="84" width="32" height="3" rx="1.5" fill="#52555A"/>
<rect width="17" height="17" transform="translate(179 77)" fill="white" fill-opacity="0.06"/>
<path d="M190.25 86H184.75C184.469 86 184.25 85.7812 184.25 85.5C184.25 85.2344 184.469 85 184.75 85H190.25C190.516 85 190.75 85.2344 190.75 85.5C190.75 85.7812 190.516 86 190.25 86Z" fill="#52555A"/>
<rect x="200.5" y="77.5" width="16" height="16" rx="3.5" stroke="#33373D"/>
<path d="M211.75 85.5C211.75 85.7812 211.516 86.0156 211.25 86.0156H209V88.2656C209 88.5312 208.766 88.75 208.5 88.75C208.219 88.75 208 88.5312 208 88.2656V86.0156H205.75C205.469 86.0156 205.25 85.7812 205.25 85.5C205.25 85.2344 205.469 85.0156 205.75 85.0156H208V82.7656C208 82.4844 208.219 82.25 208.5 82.25C208.766 82.25 209 82.4844 209 82.7656V85.0156H211.25C211.516 85 211.75 85.2344 211.75 85.5Z" fill="#52555A"/>
</svg>
