<svg width="296" height="141" viewBox="0 0 296 141" fill="none" xmlns="http://www.w3.org/2000/svg">
<path d="M104.5 30C104.5 26.9624 106.962 24.5 110 24.5H186C189.038 24.5 191.5 26.9624 191.5 30V111C191.5 114.038 189.038 116.5 186 116.5H110C106.962 116.5 104.5 114.038 104.5 111V30Z" fill="#1D2025"/>
<path d="M104.5 30C104.5 26.9624 106.962 24.5 110 24.5H186C189.038 24.5 191.5 26.9624 191.5 30V111C191.5 114.038 189.038 116.5 186 116.5H110C106.962 116.5 104.5 114.038 104.5 111V30Z" stroke="#33373D"/>
<rect x="112" y="33" width="28" height="3" rx="1.5" fill="#33373D"/>
<path d="M112.5 44C112.5 42.067 114.067 40.5 116 40.5H180C181.933 40.5 183.5 42.067 183.5 44V53C183.5 54.933 181.933 56.5 180 56.5H116C114.067 56.5 112.5 54.933 112.5 53V44Z" fill="#1D2025"/>
<path d="M112.5 44C112.5 42.067 114.067 40.5 116 40.5H180C181.933 40.5 183.5 42.067 183.5 44V53C183.5 54.933 181.933 56.5 180 56.5H116C114.067 56.5 112.5 54.933 112.5 53V44Z" stroke="#33373D"/>
<rect x="118" y="47" width="32" height="3" rx="1.5" fill="#52555A"/>
<rect x="112" y="65" width="28" height="3" rx="1.5" fill="#33373D"/>
<path d="M112.5 76C112.5 74.067 114.067 72.5 116 72.5H180C181.933 72.5 183.5 74.067 183.5 76V85C183.5 86.933 181.933 88.5 180 88.5H116C114.067 88.5 112.5 86.933 112.5 85V76Z" fill="#1D2025"/>
<path d="M112.5 76C112.5 74.067 114.067 72.5 116 72.5H180C181.933 72.5 183.5 74.067 183.5 76V85C183.5 86.933 181.933 88.5 180 88.5H116C114.067 88.5 112.5 86.933 112.5 85V76Z" stroke="#33373D"/>
<rect x="118" y="79" width="32" height="3" rx="1.5" fill="#52555A"/>
<path d="M112.5 99C112.5 98.1716 113.172 97.5 114 97.5H144C144.828 97.5 145.5 98.1716 145.5 99V105C145.5 105.828 144.828 106.5 144 106.5H114C113.172 106.5 112.5 105.828 112.5 105V99Z" fill="#1D2025"/>
<path d="M112.5 99C112.5 98.1716 113.172 97.5 114 97.5H144C144.828 97.5 145.5 98.1716 145.5 99V105C145.5 105.828 144.828 106.5 144 106.5H114C113.172 106.5 112.5 105.828 112.5 105V99Z" stroke="#33373D"/>
<rect x="116" y="101" width="26" height="2" rx="1" fill="#52555A"/>
<path d="M151 99C151 97.8954 151.895 97 153 97H182C183.105 97 184 97.8954 184 99V105C184 106.105 183.105 107 182 107H153C151.895 107 151 106.105 151 105V99Z" fill="#8952E0"/>
<rect x="155" y="101" width="25" height="2" rx="1" fill="white"/>
</svg>
