<svg width="296" height="141" viewBox="0 0 296 141" fill="none" xmlns="http://www.w3.org/2000/svg">
<g clip-path="url(#clip0_104_9159)">
<path d="M82.5 36C82.5 32.6863 85.1863 30 88.5 30H207.5C210.814 30 213.5 32.6863 213.5 36V105C213.5 108.314 210.814 111 207.5 111H88.5C85.1863 111 82.5 108.314 82.5 105V36Z" fill="white"/>
<mask id="path-3-inside-1_104_9159" fill="white">
<path d="M82.5 30H213.5V42H82.5V30Z"/>
</mask>
<path d="M82.5 30H213.5V42H82.5V30Z" fill="#F9FAFA"/>
<path d="M213.5 41H82.5V43H213.5V41Z" fill="#E7E7E8" mask="url(#path-3-inside-1_104_9159)"/>
<rect x="88.5" y="34" width="4" height="4" rx="2" fill="#E53E3E"/>
<rect x="95.5" y="34" width="4" height="4" rx="2" fill="#FBC434"/>
<rect x="102.5" y="34" width="4" height="4" rx="2" fill="#0EA371"/>
<rect x="134" y="52" width="29" height="3" rx="1.5" fill="#ABADAF"/>
<path d="M117.5 63C117.5 62.1716 118.172 61.5 119 61.5H178C178.828 61.5 179.5 62.1716 179.5 63V68C179.5 68.8284 178.828 69.5 178 69.5H119C118.172 69.5 117.5 68.8284 117.5 68V63Z" fill="white"/>
<path d="M117.5 63C117.5 62.1716 118.172 61.5 119 61.5H178C178.828 61.5 179.5 62.1716 179.5 63V68C179.5 68.8284 178.828 69.5 178 69.5H119C118.172 69.5 117.5 68.8284 117.5 68V63Z" stroke="#E7E7E8"/>
<path d="M117.5 78C117.5 77.1716 118.172 76.5 119 76.5H178C178.828 76.5 179.5 77.1716 179.5 78V83C179.5 83.8284 178.828 84.5 178 84.5H119C118.172 84.5 117.5 83.8284 117.5 83V78Z" fill="white"/>
<path d="M117.5 78C117.5 77.1716 118.172 76.5 119 76.5H178C178.828 76.5 179.5 77.1716 179.5 78V83C179.5 83.8284 178.828 84.5 178 84.5H119C118.172 84.5 117.5 83.8284 117.5 83V78Z" stroke="#E7E7E8"/>
<path d="M134 93C134 91.8954 134.895 91 136 91H161C162.105 91 163 91.8954 163 93V97C163 98.1046 162.105 99 161 99H136C134.895 99 134 98.1046 134 97V93Z" fill="#8952E0"/>
<rect x="138" y="94" width="21" height="2" rx="1" fill="white"/>
</g>
<path d="M83 36C83 32.9624 85.4624 30.5 88.5 30.5H207.5C210.538 30.5 213 32.9624 213 36V105C213 108.038 210.538 110.5 207.5 110.5H88.5C85.4624 110.5 83 108.038 83 105V36Z" stroke="#D3D4D5"/>
<defs>
<clipPath id="clip0_104_9159">
<path d="M82.5 36C82.5 32.6863 85.1863 30 88.5 30H207.5C210.814 30 213.5 32.6863 213.5 36V105C213.5 108.314 210.814 111 207.5 111H88.5C85.1863 111 82.5 108.314 82.5 105V36Z" fill="white"/>
</clipPath>
</defs>
</svg>
