<svg width="296" height="141" viewBox="0 0 296 141" fill="none" xmlns="http://www.w3.org/2000/svg">
<path d="M112.5 35.5H183.5C186.538 35.5 189 37.9624 189 41V100C189 103.038 186.538 105.5 183.5 105.5H112.5C109.462 105.5 107 103.038 107 100V41C107 37.9624 109.462 35.5 112.5 35.5Z" fill="white"/>
<path d="M112.5 35.5H183.5C186.538 35.5 189 37.9624 189 41V100C189 103.038 186.538 105.5 183.5 105.5H112.5C109.462 105.5 107 103.038 107 100V41C107 37.9624 109.462 35.5 112.5 35.5Z" stroke="#D3D4D5"/>
<rect x="117" y="48" width="29" height="3" rx="1.5" fill="#ABADAF"/>
<path d="M119 57.5H178C178.828 57.5 179.5 58.1716 179.5 59V64C179.5 64.8284 178.828 65.5 178 65.5H119C118.172 65.5 117.5 64.8284 117.5 64V59C117.5 58.1716 118.172 57.5 119 57.5Z" fill="white"/>
<path d="M119 57.5H178C178.828 57.5 179.5 58.1716 179.5 59V64C179.5 64.8284 178.828 65.5 178 65.5H119C118.172 65.5 117.5 64.8284 117.5 64V59C117.5 58.1716 118.172 57.5 119 57.5Z" stroke="#D3D4D5"/>
<path d="M119 72.5H178C178.828 72.5 179.5 73.1716 179.5 74V79C179.5 79.8284 178.828 80.5 178 80.5H119C118.172 80.5 117.5 79.8284 117.5 79V74C117.5 73.1716 118.172 72.5 119 72.5Z" fill="white"/>
<path d="M119 72.5H178C178.828 72.5 179.5 73.1716 179.5 74V79C179.5 79.8284 178.828 80.5 178 80.5H119C118.172 80.5 117.5 79.8284 117.5 79V74C117.5 73.1716 118.172 72.5 119 72.5Z" stroke="#D3D4D5"/>
<path d="M117 89C117 87.8954 117.895 87 119 87H144C145.105 87 146 87.8954 146 89V93C146 94.1046 145.105 95 144 95H119C117.895 95 117 94.1046 117 93V89Z" fill="#8952E0"/>
<rect x="121" y="90" width="21" height="2" rx="1" fill="white"/>
</svg>
