<svg width="296" height="141" viewBox="0 0 296 141" fill="none" xmlns="http://www.w3.org/2000/svg">
<path d="M70 46.5H110C113.038 46.5 115.5 48.9624 115.5 52V89C115.5 92.0376 113.038 94.5 110 94.5H70C66.9624 94.5 64.5 92.0376 64.5 89V52C64.5 48.9624 66.9624 46.5 70 46.5Z" fill="#1D2025"/>
<path d="M70 46.5H110C113.038 46.5 115.5 48.9624 115.5 52V89C115.5 92.0376 113.038 94.5 110 94.5H70C66.9624 94.5 64.5 92.0376 64.5 89V52C64.5 48.9624 66.9624 46.5 70 46.5Z" stroke="#33373D"/>
<rect x="72" y="54" width="15" height="3" rx="1.5" fill="#52555A"/>
<rect x="72" y="61" width="9" height="3" rx="1.5" fill="#52555A"/>
<rect x="85" y="61" width="20" height="3" rx="1.5" fill="#33373D"/>
<rect x="72" y="68" width="9" height="3" rx="1.5" fill="#52555A"/>
<rect x="85" y="68" width="20" height="3" rx="1.5" fill="#33373D"/>
<rect x="72" y="77" width="15" height="3" rx="1.5" fill="#52555A"/>
<rect x="72" y="84" width="9" height="3" rx="1.5" fill="#52555A"/>
<rect x="85" y="84" width="20" height="3" rx="1.5" fill="#33373D"/>
<path d="M128 46.5H168C171.038 46.5 173.5 48.9624 173.5 52V89C173.5 92.0376 171.038 94.5 168 94.5H128C124.962 94.5 122.5 92.0376 122.5 89V52C122.5 48.9624 124.962 46.5 128 46.5Z" fill="#1D2025"/>
<path d="M128 46.5H168C171.038 46.5 173.5 48.9624 173.5 52V89C173.5 92.0376 171.038 94.5 168 94.5H128C124.962 94.5 122.5 92.0376 122.5 89V52C122.5 48.9624 124.962 46.5 128 46.5Z" stroke="#33373D"/>
<rect x="130" y="54" width="15" height="3" rx="1.5" fill="#52555A"/>
<rect x="130" y="61" width="37" height="3" rx="1.5" fill="#33373D"/>
<rect x="130" y="70" width="15" height="3" rx="1.5" fill="#52555A"/>
<rect x="130" y="77" width="37" height="3" rx="1.5" fill="#33373D"/>
<path d="M186 46.5H226C229.038 46.5 231.5 48.9624 231.5 52V89C231.5 92.0376 229.038 94.5 226 94.5H186C182.962 94.5 180.5 92.0376 180.5 89V52C180.5 48.9624 182.962 46.5 186 46.5Z" fill="#1D2025"/>
<path d="M186 46.5H226C229.038 46.5 231.5 48.9624 231.5 52V89C231.5 92.0376 229.038 94.5 226 94.5H186C182.962 94.5 180.5 92.0376 180.5 89V52C180.5 48.9624 182.962 46.5 186 46.5Z" stroke="#33373D"/>
<rect x="188" y="54" width="15" height="3" rx="1.5" fill="#52555A"/>
<rect x="188" y="61" width="20" height="3" rx="1.5" fill="#33373D"/>
<rect x="212" y="61" width="13" height="3" rx="1.5" fill="#33373D"/>
<rect x="188" y="70" width="37" height="3" rx="1.5" fill="#33373D"/>
<rect x="188" y="77" width="12" height="3" rx="1.5" fill="#33373D"/>
<rect x="204" y="77" width="21" height="3" rx="1.5" fill="#33373D"/>
<rect x="188" y="84" width="21" height="3" rx="1.5" fill="#33373D"/>
<rect x="213" y="84" width="12" height="3" rx="1.5" fill="#33373D"/>
</svg>
