<svg width="296" height="151" viewBox="0 0 296 151" fill="none" xmlns="http://www.w3.org/2000/svg">
<g clip-path="url(#clip0_227_13566)">
<path d="M64.5 47C64.5 43.9624 66.9624 41.5 70 41.5H226C229.038 41.5 231.5 43.9624 231.5 47V184C231.5 187.038 229.038 189.5 226 189.5H70C66.9624 189.5 64.5 187.038 64.5 184V47Z" fill="#1D2025"/>
<path d="M64.5 47C64.5 43.9624 66.9624 41.5 70 41.5H226C229.038 41.5 231.5 43.9624 231.5 47V184C231.5 187.038 229.038 189.5 226 189.5H70C66.9624 189.5 64.5 187.038 64.5 184V47Z" stroke="#33373D"/>
<mask id="path-2-inside-1_227_13566" fill="white">
<path d="M65 47C65 44.2386 67.2386 42 70 42H226C228.761 42 231 44.2386 231 47V54H65V47Z"/>
</mask>
<path d="M65 47C65 44.2386 67.2386 42 70 42H226C228.761 42 231 44.2386 231 47V54H65V47Z" fill="white" fill-opacity="0.04"/>
<path d="M65 42H231H65ZM231 55H65V53H231V55ZM65 54V42V54ZM231 42V54V42Z" fill="#33373D" mask="url(#path-2-inside-1_227_13566)"/>
<rect x="71" y="46" width="4" height="4" rx="2" fill="#E53E3E"/>
<rect x="78" y="46" width="4" height="4" rx="2" fill="#FBC434"/>
<rect x="85" y="46" width="4" height="4" rx="2" fill="#0EA371"/>
<path d="M65 54H231V69H65V54Z" fill="#1D2025"/>
<rect x="74" y="58" width="7" height="7" rx="3.5" fill="#52555A"/>
<rect x="87" y="60" width="17" height="3" rx="1.5" fill="#52555A"/>
<rect x="110" y="60" width="17" height="3" rx="1.5" fill="#52555A"/>
<rect x="133" y="60" width="17" height="3" rx="1.5" fill="#52555A"/>
<rect width="166" height="13" transform="translate(65 69)" fill="#8952E0"/>
<path d="M76 75.75C76 77.4141 74.6523 78.75 73 78.75C71.3359 78.75 70 77.4141 70 75.75C70 74.0977 71.3359 72.75 73 72.75C74.6523 72.75 76 74.0977 76 75.75Z" fill="#B795EC"/>
<rect x="79" y="74" width="32" height="3" rx="1.5" fill="#B795EC"/>
<rect x="201" y="74" width="11" height="3" rx="1.5" fill="#B795EC"/>
<rect x="215" y="74" width="11" height="3" rx="1.5" fill="#B795EC"/>
</g>
<defs>
<clipPath id="clip0_227_13566">
<rect width="296" height="151" fill="white"/>
</clipPath>
</defs>
</svg>
