<svg width="296" height="141" viewBox="0 0 296 141" fill="none" xmlns="http://www.w3.org/2000/svg">
<g clip-path="url(#clip0_99_7228)">
<path d="M100 45C100 41.6863 102.686 39 106 39H190C193.314 39 196 41.6863 196 45V96C196 99.3137 193.314 102 190 102H106C102.686 102 100 99.3137 100 96V45Z" fill="white"/>
<rect x="109.5" y="48" width="37" height="3" rx="1.5" fill="#ABADAF"/>
<path d="M186.551 50.8242C186.729 50.9883 186.729 51.2754 186.551 51.4395C186.469 51.5215 186.359 51.5625 186.25 51.5625C186.127 51.5625 186.018 51.5215 185.936 51.4395L184.5 50.0039L183.051 51.4395C182.969 51.5215 182.859 51.5625 182.75 51.5625C182.627 51.5625 182.518 51.5215 182.436 51.4395C182.258 51.2754 182.258 50.9883 182.436 50.8242L183.871 49.375L182.436 47.9395C182.258 47.7754 182.258 47.4883 182.436 47.3242C182.6 47.1465 182.887 47.1465 183.051 47.3242L184.5 48.7598L185.936 47.3242C186.1 47.1465 186.387 47.1465 186.551 47.3242C186.729 47.4883 186.729 47.7754 186.551 47.9395L185.115 49.3887L186.551 50.8242Z" fill="#ABADAF"/>
<path d="M115.426 62.8242C115.604 62.9883 115.604 63.2754 115.426 63.4395L111.926 66.9395C111.762 67.1172 111.475 67.1172 111.311 66.9395L109.561 65.1895C109.383 65.0254 109.383 64.7383 109.561 64.5742C109.725 64.3965 110.012 64.3965 110.176 64.5742L111.611 66.0098L114.811 62.8242C114.975 62.6465 115.262 62.6465 115.426 62.8242Z" fill="#8952E0"/>
<rect x="120" y="63" width="67" height="3" rx="1.5" fill="#D3D4D5"/>
<path d="M115.426 73.8242C115.604 73.9883 115.604 74.2754 115.426 74.4395L111.926 77.9395C111.762 78.1172 111.475 78.1172 111.311 77.9395L109.561 76.1895C109.383 76.0254 109.383 75.7383 109.561 75.5742C109.725 75.3965 110.012 75.3965 110.176 75.5742L111.611 77.0098L114.811 73.8242C114.975 73.6465 115.262 73.6465 115.426 73.8242Z" fill="#8952E0"/>
<rect x="120" y="74" width="67" height="3" rx="1.5" fill="#D3D4D5"/>
<path d="M160 85C160 83.8954 160.895 83 162 83H185C186.105 83 187 83.8954 187 85V91C187 92.1046 186.105 93 185 93H162C160.895 93 160 92.1046 160 91V85Z" fill="#8952E0"/>
<rect x="164" y="87" width="19" height="2" rx="1" fill="white"/>
</g>
<path d="M100.5 45C100.5 41.9624 102.962 39.5 106 39.5H190C193.038 39.5 195.5 41.9624 195.5 45V96C195.5 99.0376 193.038 101.5 190 101.5H106C102.962 101.5 100.5 99.0376 100.5 96V45Z" stroke="#D3D4D5"/>
<defs>
<clipPath id="clip0_99_7228">
<path d="M100 45C100 41.6863 102.686 39 106 39H190C193.314 39 196 41.6863 196 45V96C196 99.3137 193.314 102 190 102H106C102.686 102 100 99.3137 100 96V45Z" fill="white"/>
</clipPath>
</defs>
</svg>
