<svg width="296" height="141" viewBox="0 0 296 141" fill="none" xmlns="http://www.w3.org/2000/svg">
<g filter="url(#filter0_i_103_8407)">
<rect x="116" y="60" width="22" height="21" rx="6" fill="white"/>
<rect x="116.5" y="60.5" width="21" height="20" rx="5.5" stroke="#D3D4D5"/>
<path d="M123.974 74.5V65.7727H125.291V69.9403H125.398L129.058 65.7727H130.716L127.196 69.7017L130.729 74.5H129.143L126.322 70.6009L125.291 71.7855V74.5H123.974Z" fill="#33373D"/>
</g>
<g filter="url(#filter1_i_103_8407)">
<rect x="142" y="60" width="38" height="21" rx="6" fill="white"/>
<rect x="142.5" y="60.5" width="37" height="20" rx="5.5" stroke="#D3D4D5"/>
<path d="M153.307 68.0653C153.261 67.6619 153.074 67.3494 152.744 67.1278C152.415 66.9034 152 66.7912 151.5 66.7912C151.142 66.7912 150.832 66.848 150.571 66.9616C150.309 67.0724 150.106 67.2259 149.961 67.4219C149.819 67.6151 149.748 67.8352 149.748 68.0824C149.748 68.2898 149.797 68.4687 149.893 68.6193C149.993 68.7699 150.122 68.8963 150.281 68.9986C150.443 69.098 150.616 69.1818 150.801 69.25C150.986 69.3153 151.163 69.3693 151.334 69.4119L152.186 69.6335C152.464 69.7017 152.75 69.794 153.042 69.9105C153.335 70.027 153.606 70.1804 153.856 70.3707C154.106 70.5611 154.308 70.7969 154.461 71.0781C154.618 71.3594 154.696 71.696 154.696 72.0881C154.696 72.5824 154.568 73.0213 154.312 73.4048C154.059 73.7884 153.692 74.0909 153.209 74.3125C152.729 74.5341 152.148 74.6449 151.466 74.6449C150.812 74.6449 150.247 74.5412 149.77 74.3338C149.292 74.1264 148.919 73.8324 148.649 73.4517C148.379 73.0682 148.23 72.6136 148.202 72.0881H149.523C149.548 72.4034 149.65 72.6662 149.829 72.8764C150.011 73.0838 150.243 73.2386 150.524 73.3409C150.808 73.4403 151.119 73.4901 151.457 73.4901C151.829 73.4901 152.16 73.4318 152.45 73.3153C152.743 73.196 152.973 73.0312 153.14 72.821C153.308 72.608 153.392 72.3594 153.392 72.0753C153.392 71.8168 153.318 71.6051 153.17 71.4403C153.025 71.2756 152.828 71.1392 152.578 71.0312C152.331 70.9233 152.051 70.8281 151.738 70.7457L150.707 70.4645C150.008 70.2741 149.454 69.9943 149.045 69.625C148.639 69.2557 148.436 68.767 148.436 68.1591C148.436 67.6562 148.572 67.2173 148.845 66.8423C149.118 66.4673 149.487 66.1761 149.953 65.9688C150.419 65.7585 150.944 65.6534 151.53 65.6534C152.121 65.6534 152.642 65.7571 153.094 65.9645C153.548 66.1719 153.906 66.4574 154.167 66.821C154.429 67.1818 154.565 67.5966 154.577 68.0653H153.307ZM157.441 70.6136V74.5H156.167V65.7727H157.424V69.0199H157.505C157.659 68.6676 157.893 68.3878 158.208 68.1804C158.524 67.973 158.936 67.8693 159.444 67.8693C159.893 67.8693 160.285 67.9616 160.62 68.1463C160.958 68.331 161.22 68.6065 161.404 68.973C161.592 69.3366 161.686 69.7912 161.686 70.3366V74.5H160.411V70.4901C160.411 70.0099 160.288 69.6378 160.041 69.3736C159.794 69.1065 159.45 68.973 159.009 68.973C158.708 68.973 158.438 69.0369 158.2 69.1648C157.964 69.2926 157.778 69.4801 157.642 69.7273C157.508 69.9716 157.441 70.267 157.441 70.6136ZM163.386 74.5V67.9545H164.66V74.5H163.386ZM164.029 66.9446C163.808 66.9446 163.617 66.8707 163.458 66.723C163.302 66.5724 163.224 66.3935 163.224 66.1861C163.224 65.9759 163.302 65.7969 163.458 65.6491C163.617 65.4986 163.808 65.4233 164.029 65.4233C164.251 65.4233 164.44 65.4986 164.596 65.6491C164.755 65.7969 164.835 65.9759 164.835 66.1861C164.835 66.3935 164.755 66.5724 164.596 66.723C164.44 66.8707 164.251 66.9446 164.029 66.9446ZM169.489 67.9545V68.9773H165.79V67.9545H169.489ZM166.805 74.5V67.196C166.805 66.7869 166.894 66.4474 167.073 66.1776C167.252 65.9048 167.489 65.7017 167.785 65.5682C168.08 65.4318 168.401 65.3636 168.748 65.3636C169.003 65.3636 169.222 65.3849 169.404 65.4276C169.586 65.4673 169.721 65.5043 169.809 65.5384L169.51 66.5696C169.451 66.5526 169.374 66.5327 169.28 66.5099C169.187 66.4844 169.073 66.4716 168.939 66.4716C168.63 66.4716 168.408 66.5483 168.275 66.7017C168.144 66.8551 168.079 67.0767 168.079 67.3665V74.5H166.805ZM173.859 67.9545V68.9773H170.284V67.9545H173.859ZM171.243 66.3864H172.517V72.5781C172.517 72.8253 172.554 73.0114 172.628 73.1364C172.702 73.2585 172.797 73.3423 172.913 73.3878C173.032 73.4304 173.162 73.4517 173.301 73.4517C173.403 73.4517 173.493 73.4446 173.569 73.4304C173.646 73.4162 173.706 73.4048 173.748 73.3963L173.979 74.4489C173.905 74.4773 173.8 74.5057 173.663 74.5341C173.527 74.5653 173.356 74.5824 173.152 74.5852C172.817 74.5909 172.504 74.5312 172.214 74.4062C171.925 74.2812 171.69 74.0881 171.511 73.8267C171.332 73.5653 171.243 73.2372 171.243 72.8423V66.3864Z" fill="#33373D"/>
</g>
<defs>
<filter id="filter0_i_103_8407" x="116" y="60" width="22" height="21" filterUnits="userSpaceOnUse" color-interpolation-filters="sRGB">
<feFlood flood-opacity="0" result="BackgroundImageFix"/>
<feBlend mode="normal" in="SourceGraphic" in2="BackgroundImageFix" result="shape"/>
<feColorMatrix in="SourceAlpha" type="matrix" values="0 0 0 0 0 0 0 0 0 0 0 0 0 0 0 0 0 0 127 0" result="hardAlpha"/>
<feOffset dy="-2"/>
<feComposite in2="hardAlpha" operator="arithmetic" k2="-1" k3="1"/>
<feColorMatrix type="matrix" values="0 0 0 0 0.827451 0 0 0 0 0.831373 0 0 0 0 0.835294 0 0 0 1 0"/>
<feBlend mode="normal" in2="shape" result="effect1_innerShadow_103_8407"/>
</filter>
<filter id="filter1_i_103_8407" x="142" y="60" width="38" height="21" filterUnits="userSpaceOnUse" color-interpolation-filters="sRGB">
<feFlood flood-opacity="0" result="BackgroundImageFix"/>
<feBlend mode="normal" in="SourceGraphic" in2="BackgroundImageFix" result="shape"/>
<feColorMatrix in="SourceAlpha" type="matrix" values="0 0 0 0 0 0 0 0 0 0 0 0 0 0 0 0 0 0 127 0" result="hardAlpha"/>
<feOffset dy="-2"/>
<feComposite in2="hardAlpha" operator="arithmetic" k2="-1" k3="1"/>
<feColorMatrix type="matrix" values="0 0 0 0 0.827451 0 0 0 0 0.831373 0 0 0 0 0.835294 0 0 0 1 0"/>
<feBlend mode="normal" in2="shape" result="effect1_innerShadow_103_8407"/>
</filter>
</defs>
</svg>
