<svg width="296" height="141" viewBox="0 0 296 141" fill="none" xmlns="http://www.w3.org/2000/svg">
<path d="M119.5 42C119.5 38.9624 121.962 36.5 125 36.5H169C172.038 36.5 174.5 38.9624 174.5 42V101C174.5 104.038 172.038 106.5 169 106.5H125C121.962 106.5 119.5 104.038 119.5 101V42Z" fill="white"/>
<path d="M119.5 42C119.5 38.9624 121.962 36.5 125 36.5H169C172.038 36.5 174.5 38.9624 174.5 42V101C174.5 104.038 172.038 106.5 169 106.5H125C121.962 106.5 119.5 104.038 119.5 101V42Z" stroke="#D3D4D5"/>
<path d="M130.123 49.4395L128.373 47.7031C128.291 47.6074 128.25 47.498 128.25 47.375C128.25 47.2383 128.291 47.1426 128.373 47.0605L130.123 45.3242C130.246 45.2012 130.438 45.1602 130.602 45.2285C130.766 45.2969 130.875 45.4609 130.875 45.625V49.125C130.875 49.3027 130.766 49.4531 130.602 49.5215C130.438 49.5898 130.246 49.5625 130.123 49.4395Z" fill="#D3D4D5"/>
<rect x="136" y="46" width="22" height="3" rx="1.5" fill="#D3D4D5"/>
<path d="M163.863 45.3242L165.613 47.0605C165.695 47.1562 165.75 47.2656 165.75 47.375C165.75 47.4707 165.695 47.5938 165.613 47.6758L163.863 49.4121C163.74 49.5352 163.549 49.5762 163.385 49.5078C163.221 49.4395 163.125 49.3027 163.125 49.125V45.625C163.125 45.4609 163.221 45.2969 163.385 45.2285C163.549 45.1602 163.74 45.2012 163.863 45.3242Z" fill="#D3D4D5"/>
<rect x="128" y="56" width="6" height="3" rx="1.5" fill="#ABADAF"/>
<rect x="136" y="56" width="6" height="3" rx="1.5" fill="#ABADAF"/>
<rect x="144" y="56" width="6" height="3" rx="1.5" fill="#ABADAF"/>
<rect x="152" y="56" width="6" height="3" rx="1.5" fill="#ABADAF"/>
<rect x="160" y="56" width="6" height="3" rx="1.5" fill="#ABADAF"/>
<rect x="128" y="64" width="6" height="3" rx="1.5" fill="#D3D4D5"/>
<rect x="136" y="64" width="6" height="3" rx="1.5" fill="#D3D4D5"/>
<rect x="144" y="64" width="6" height="3" rx="1.5" fill="#D3D4D5"/>
<rect x="152" y="64" width="6" height="3" rx="1.5" fill="#D3D4D5"/>
<rect x="160" y="64" width="6" height="3" rx="1.5" fill="#D3D4D5"/>
<rect x="128" y="71" width="6" height="3" rx="1.5" fill="#D3D4D5"/>
<rect x="136" y="71" width="6" height="3" rx="1.5" fill="#8952E0"/>
<rect x="144" y="71" width="6" height="3" rx="1.5" fill="#D3D4D5"/>
<rect x="152" y="71" width="6" height="3" rx="1.5" fill="#D3D4D5"/>
<rect x="160" y="71" width="6" height="3" rx="1.5" fill="#D3D4D5"/>
<rect x="128" y="78" width="6" height="3" rx="1.5" fill="#D3D4D5"/>
<rect x="136" y="78" width="6" height="3" rx="1.5" fill="#D3D4D5"/>
<rect x="144" y="78" width="6" height="3" rx="1.5" fill="#D3D4D5"/>
<rect x="152" y="78" width="6" height="3" rx="1.5" fill="#D3D4D5"/>
<rect x="160" y="78" width="6" height="3" rx="1.5" fill="#D3D4D5"/>
<rect x="128" y="85" width="6" height="3" rx="1.5" fill="#D3D4D5"/>
<rect x="136" y="85" width="6" height="3" rx="1.5" fill="#D3D4D5"/>
<rect x="144" y="85" width="6" height="3" rx="1.5" fill="#D3D4D5"/>
<rect x="152" y="85" width="6" height="3" rx="1.5" fill="#D3D4D5"/>
<rect x="160" y="85" width="6" height="3" rx="1.5" fill="#D3D4D5"/>
<path d="M120 92H174V101C174 103.761 171.761 106 169 106H125C122.239 106 120 103.761 120 101V92Z" fill="#F1F1F2"/>
<rect x="144" y="97.5" width="12" height="3" rx="1.5" fill="#ABADAF"/>
<rect x="158" y="97.5" width="12" height="3" rx="1.5" fill="#8952E0"/>
<rect width="5" height="5" transform="translate(171 36)" fill="white"/>
<path d="M169.5 38C169.5 35.7969 171.281 34 173.5 34C175.703 34 177.5 35.7969 177.5 38C177.5 40.2188 175.703 42 173.5 42C171.281 42 169.5 40.2188 169.5 38ZM172.234 37.2656L172.969 38L172.234 38.7344C172.078 38.8906 172.078 39.125 172.234 39.2656C172.375 39.4219 172.609 39.4219 172.75 39.2656L173.484 38.5312L174.234 39.2656C174.375 39.4219 174.609 39.4219 174.75 39.2656C174.906 39.125 174.906 38.8906 174.75 38.7344L174.016 38L174.75 37.2656C174.906 37.125 174.906 36.8906 174.75 36.7344C174.609 36.5938 174.375 36.5938 174.234 36.7344L173.484 37.4844L172.75 36.7344C172.609 36.5938 172.375 36.5938 172.234 36.7344C172.078 36.8906 172.078 37.125 172.234 37.2656Z" fill="#ABADAF"/>
</svg>
