<svg width="296" height="141" viewBox="0 0 296 141" fill="none" xmlns="http://www.w3.org/2000/svg">
<path d="M120.5 42C120.5 38.9624 122.962 36.5 126 36.5H170C173.038 36.5 175.5 38.9624 175.5 42V99C175.5 102.038 173.038 104.5 170 104.5H126C122.962 104.5 120.5 102.038 120.5 99V42Z" fill="white"/>
<path d="M120.5 42C120.5 38.9624 122.962 36.5 126 36.5H170C173.038 36.5 175.5 38.9624 175.5 42V99C175.5 102.038 173.038 104.5 170 104.5H126C122.962 104.5 120.5 102.038 120.5 99V42Z" stroke="#D3D4D5"/>
<path d="M131.123 49.4395L129.373 47.7031C129.291 47.6074 129.25 47.498 129.25 47.375C129.25 47.2383 129.291 47.1426 129.373 47.0605L131.123 45.3242C131.246 45.2012 131.438 45.1602 131.602 45.2285C131.766 45.2969 131.875 45.4609 131.875 45.625V49.125C131.875 49.3027 131.766 49.4531 131.602 49.5215C131.438 49.5898 131.246 49.5625 131.123 49.4395Z" fill="#D3D4D5"/>
<rect x="137" y="46" width="22" height="3" rx="1.5" fill="#D3D4D5"/>
<path d="M164.863 45.3242L166.613 47.0605C166.695 47.1562 166.75 47.2656 166.75 47.375C166.75 47.4707 166.695 47.5938 166.613 47.6758L164.863 49.4121C164.74 49.5352 164.549 49.5762 164.385 49.5078C164.221 49.4395 164.125 49.3027 164.125 49.125V45.625C164.125 45.4609 164.221 45.2969 164.385 45.2285C164.549 45.1602 164.74 45.2012 164.863 45.3242Z" fill="#D3D4D5"/>
<rect x="129" y="56" width="6" height="3" rx="1.5" fill="#ABADAF"/>
<rect x="137" y="56" width="6" height="3" rx="1.5" fill="#ABADAF"/>
<rect x="145" y="56" width="6" height="3" rx="1.5" fill="#ABADAF"/>
<rect x="153" y="56" width="6" height="3" rx="1.5" fill="#ABADAF"/>
<rect x="161" y="56" width="6" height="3" rx="1.5" fill="#ABADAF"/>
<rect x="129" y="64" width="6" height="3" rx="1.5" fill="#D3D4D5"/>
<rect x="137" y="64" width="6" height="3" rx="1.5" fill="#D3D4D5"/>
<rect x="145" y="64" width="6" height="3" rx="1.5" fill="#D3D4D5"/>
<rect x="153" y="64" width="6" height="3" rx="1.5" fill="#D3D4D5"/>
<rect x="161" y="64" width="6" height="3" rx="1.5" fill="#D3D4D5"/>
<rect x="129" y="71" width="6" height="3" rx="1.5" fill="#D3D4D5"/>
<rect x="137" y="71" width="6" height="3" rx="1.5" fill="#8952E0"/>
<rect x="145" y="71" width="6" height="3" rx="1.5" fill="#D3D4D5"/>
<rect x="153" y="71" width="6" height="3" rx="1.5" fill="#D3D4D5"/>
<rect x="161" y="71" width="6" height="3" rx="1.5" fill="#D3D4D5"/>
<rect x="129" y="78" width="6" height="3" rx="1.5" fill="#D3D4D5"/>
<rect x="137" y="78" width="6" height="3" rx="1.5" fill="#D3D4D5"/>
<rect x="145" y="78" width="6" height="3" rx="1.5" fill="#D3D4D5"/>
<rect x="153" y="78" width="6" height="3" rx="1.5" fill="#D3D4D5"/>
<rect x="161" y="78" width="6" height="3" rx="1.5" fill="#D3D4D5"/>
<rect x="129" y="85" width="6" height="3" rx="1.5" fill="#D3D4D5"/>
<rect x="137" y="85" width="6" height="3" rx="1.5" fill="#D3D4D5"/>
<rect x="145" y="85" width="6" height="3" rx="1.5" fill="#D3D4D5"/>
<rect x="153" y="85" width="6" height="3" rx="1.5" fill="#D3D4D5"/>
<rect x="161" y="85" width="6" height="3" rx="1.5" fill="#D3D4D5"/>
<rect x="141" y="93" width="12" height="3" rx="1.5" fill="#ABADAF"/>
<rect x="155" y="93" width="12" height="3" rx="1.5" fill="#8952E0"/>
</svg>
