<svg width="296" height="141" viewBox="0 0 296 141" fill="none" xmlns="http://www.w3.org/2000/svg">
<path d="M96.5 47C96.5 43.9624 98.9624 41.5 102 41.5H194C197.038 41.5 199.5 43.9624 199.5 47V94C199.5 97.0376 197.038 99.5 194 99.5H102C98.9624 99.5 96.5 97.0376 96.5 94V47Z" fill="white"/>
<path d="M96.5 47C96.5 43.9624 98.9624 41.5 102 41.5H194C197.038 41.5 199.5 43.9624 199.5 47V94C199.5 97.0376 197.038 99.5 194 99.5H102C98.9624 99.5 96.5 97.0376 96.5 94V47Z" stroke="#D3D4D5"/>
<path d="M107.123 54.4395L105.373 52.7031C105.291 52.6074 105.25 52.498 105.25 52.375C105.25 52.2383 105.291 52.1426 105.373 52.0605L107.123 50.3242C107.246 50.2012 107.438 50.1602 107.602 50.2285C107.766 50.2969 107.875 50.4609 107.875 50.625V54.125C107.875 54.3027 107.766 54.4531 107.602 54.5215C107.438 54.5898 107.246 54.5625 107.123 54.4395Z" fill="#D3D4D5"/>
<rect x="116" y="51" width="20" height="3" rx="1.5" fill="#D3D4D5"/>
<rect x="161" y="51" width="19" height="3" rx="1.5" fill="#D3D4D5"/>
<path d="M188.863 50.3242L190.613 52.0605C190.695 52.1562 190.75 52.2656 190.75 52.375C190.75 52.4707 190.695 52.5938 190.613 52.6758L188.863 54.4121C188.74 54.5352 188.549 54.5762 188.385 54.5078C188.221 54.4395 188.125 54.3027 188.125 54.125V50.625C188.125 50.4609 188.221 50.2969 188.385 50.2285C188.549 50.1602 188.74 50.2012 188.863 50.3242Z" fill="#D3D4D5"/>
<rect x="106" y="61" width="6" height="3" rx="1.5" fill="#ABADAF"/>
<rect x="114" y="61" width="6" height="3" rx="1.5" fill="#ABADAF"/>
<rect x="122" y="61" width="6" height="3" rx="1.5" fill="#ABADAF"/>
<rect x="130" y="61" width="6" height="3" rx="1.5" fill="#ABADAF"/>
<rect x="138" y="61" width="6" height="3" rx="1.5" fill="#ABADAF"/>
<rect x="106" y="68" width="6" height="3" rx="1.5" fill="#D3D4D5"/>
<rect x="114" y="68" width="6" height="3" rx="1.5" fill="#D3D4D5"/>
<rect x="122" y="68" width="6" height="3" rx="1.5" fill="#D3D4D5"/>
<rect x="130" y="68" width="6" height="3" rx="1.5" fill="#D3D4D5"/>
<rect x="138" y="68" width="6" height="3" rx="1.5" fill="#D3D4D5"/>
<rect x="106" y="75" width="6" height="3" rx="1.5" fill="#D3D4D5"/>
<rect x="114" y="75" width="6" height="3" rx="1.5" fill="#D3D4D5"/>
<rect x="122" y="75" width="6" height="3" rx="1.5" fill="#D3D4D5"/>
<rect x="130" y="75" width="6" height="3" rx="1.5" fill="#D3D4D5"/>
<rect x="138" y="75" width="6" height="3" rx="1.5" fill="#D3D4D5"/>
<rect x="106" y="82" width="6" height="3" rx="1.5" fill="#D3D4D5"/>
<rect x="114" y="82" width="6" height="3" rx="1.5" fill="#D3D4D5"/>
<rect x="122" y="82" width="6" height="3" rx="1.5" fill="#D3D4D5"/>
<rect x="130" y="82" width="6" height="3" rx="1.5" fill="#8952E0"/>
<rect width="8" height="7" transform="translate(137 80)" fill="#E5DAF8"/>
<rect x="138" y="82" width="6" height="3" rx="1.5" fill="#B795EC"/>
<rect width="8" height="7" transform="translate(105 87)" fill="#E5DAF8"/>
<rect x="106" y="89" width="6" height="3" rx="1.5" fill="#B795EC"/>
<rect width="8" height="7" transform="translate(113 87)" fill="#E5DAF8"/>
<rect x="114" y="89" width="6" height="3" rx="1.5" fill="#B795EC"/>
<rect width="8" height="7" transform="translate(121 87)" fill="#E5DAF8"/>
<rect x="122" y="89" width="6" height="3" rx="1.5" fill="#B795EC"/>
<rect width="8" height="7" transform="translate(129 87)" fill="#E5DAF8"/>
<rect x="130" y="89" width="6" height="3" rx="1.5" fill="#B795EC"/>
<rect width="8" height="7" transform="translate(137 87)" fill="#E5DAF8"/>
<rect x="138" y="89" width="6" height="3" rx="1.5" fill="#B795EC"/>
<rect x="152" y="61" width="6" height="3" rx="1.5" fill="#ABADAF"/>
<rect x="160" y="61" width="6" height="3" rx="1.5" fill="#ABADAF"/>
<rect x="168" y="61" width="6" height="3" rx="1.5" fill="#ABADAF"/>
<rect x="176" y="61" width="6" height="3" rx="1.5" fill="#ABADAF"/>
<rect x="184" y="61" width="6" height="3" rx="1.5" fill="#ABADAF"/>
<rect width="8" height="7" transform="translate(151 66)" fill="#E5DAF8"/>
<rect x="152" y="68" width="6" height="3" rx="1.5" fill="#B795EC"/>
<rect width="8" height="7" transform="translate(159 66)" fill="#E5DAF8"/>
<rect x="160" y="68" width="6" height="3" rx="1.5" fill="#B795EC"/>
<rect width="8" height="7" transform="translate(167 66)" fill="#E5DAF8"/>
<rect x="168" y="68" width="6" height="3" rx="1.5" fill="#B795EC"/>
<rect width="8" height="7" transform="translate(175 66)" fill="#E5DAF8"/>
<rect x="176" y="68" width="6" height="3" rx="1.5" fill="#B795EC"/>
<rect width="8" height="7" transform="translate(183 66)" fill="#E5DAF8"/>
<rect x="184" y="68" width="6" height="3" rx="1.5" fill="#B795EC"/>
<rect width="8" height="7" transform="translate(151 73)" fill="#E5DAF8"/>
<rect x="152" y="75" width="6" height="3" rx="1.5" fill="#B795EC"/>
<rect x="160" y="75" width="6" height="3" rx="1.5" fill="#8952E0"/>
<rect x="168" y="75" width="6" height="3" rx="1.5" fill="#D3D4D5"/>
<rect x="176" y="75" width="6" height="3" rx="1.5" fill="#D3D4D5"/>
<rect x="184" y="75" width="6" height="3" rx="1.5" fill="#D3D4D5"/>
<rect x="152" y="82" width="6" height="3" rx="1.5" fill="#D3D4D5"/>
<rect x="160" y="82" width="6" height="3" rx="1.5" fill="#D3D4D5"/>
<rect x="168" y="82" width="6" height="3" rx="1.5" fill="#D3D4D5"/>
<rect x="176" y="82" width="6" height="3" rx="1.5" fill="#D3D4D5"/>
<rect x="184" y="82" width="6" height="3" rx="1.5" fill="#D3D4D5"/>
<rect x="152" y="89" width="6" height="3" rx="1.5" fill="#D3D4D5"/>
<rect x="160" y="89" width="6" height="3" rx="1.5" fill="#D3D4D5"/>
<rect x="168" y="89" width="6" height="3" rx="1.5" fill="#D3D4D5"/>
<rect x="176" y="89" width="6" height="3" rx="1.5" fill="#D3D4D5"/>
<rect x="184" y="89" width="6" height="3" rx="1.5" fill="#D3D4D5"/>
</svg>
