<svg width="296" height="141" viewBox="0 0 296 141" fill="none" xmlns="http://www.w3.org/2000/svg">
<rect x="89" y="58" width="28" height="3" rx="1.5" fill="#ABADAF"/>
<path d="M89.5 70C89.5 68.067 91.067 66.5 93 66.5H203C204.933 66.5 206.5 68.067 206.5 70V79C206.5 80.933 204.933 82.5 203 82.5H93C91.067 82.5 89.5 80.933 89.5 79V70Z" fill="white"/>
<path d="M89.5 70C89.5 68.067 91.067 66.5 93 66.5H203C204.933 66.5 206.5 68.067 206.5 70V79C206.5 80.933 204.933 82.5 203 82.5H93C91.067 82.5 89.5 80.933 89.5 79V70Z" stroke="#D3D4D5"/>
<rect x="95" y="73" width="32" height="3" rx="1.5" fill="#E7E7E8"/>
<path d="M196 71C196 70.7344 196.219 70.5 196.5 70.5C196.766 70.5 197 70.7344 197 71V71.5H199V71C199 70.7344 199.219 70.5 199.5 70.5C199.766 70.5 200 70.7344 200 71V71.5H200.75C201.156 71.5 201.5 71.8438 201.5 72.25V73H194.5V72.25C194.5 71.8438 194.828 71.5 195.25 71.5H196V71ZM201.5 77.75C201.5 78.1719 201.156 78.5 200.75 78.5H195.25C194.828 78.5 194.5 78.1719 194.5 77.75V73.5H201.5V77.75Z" fill="#ABADAF"/>
</svg>
