<svg width="296" height="141" viewBox="0 0 296 141" fill="none" xmlns="http://www.w3.org/2000/svg">
<g opacity="0.15">
<rect x="139" y="43.5" width="18" height="18" rx="9" fill="#8952E0"/>
</g>
<path d="M151.812 55.4375L149.938 53.5625C150.359 52.9375 150.578 52.1562 150.469 51.3125C150.266 49.875 149.094 48.7188 147.672 48.5312C145.547 48.2656 143.75 50.0625 144.016 52.1875C144.203 53.6094 145.359 54.7812 146.797 54.9844C147.641 55.0938 148.422 54.875 149.062 54.4531L150.922 56.3281C151.172 56.5625 151.562 56.5625 151.812 56.3281C152.047 56.0781 152.047 55.6875 151.812 55.4375ZM145.234 51.75C145.234 50.6562 146.125 49.75 147.234 49.75C148.328 49.75 149.234 50.6562 149.234 51.75C149.234 52.8594 148.328 53.75 147.234 53.75C146.125 53.75 145.234 52.8594 145.234 51.75Z" fill="#8952E0"/>
<rect x="119" y="69.5" width="58" height="3" rx="1.5" fill="#ABADAF"/>
<rect x="132" y="76.5" width="32" height="3" rx="1.5" fill="#D3D4D5"/>
<path d="M134.5 89.5C134.5 88.3954 135.395 87.5 136.5 87.5H159.5C160.605 87.5 161.5 88.3954 161.5 89.5V95.5C161.5 96.6046 160.605 97.5 159.5 97.5H136.5C135.395 97.5 134.5 96.6046 134.5 95.5V89.5Z" fill="#8952E0"/>
<rect x="138.5" y="91.5" width="19" height="2" rx="1" fill="white"/>
<rect x="102.5" y="32.5" width="91" height="76" rx="5.5" stroke="#ABADAF" stroke-dasharray="2 2"/>
</svg>
