<svg width="296" height="141" viewBox="0 0 296 141" fill="none" xmlns="http://www.w3.org/2000/svg">
<path d="M100.5 43C100.5 39.9624 102.962 37.5 106 37.5H190C193.038 37.5 195.5 39.9624 195.5 43V98C195.5 101.038 193.038 103.5 190 103.5H106C102.962 103.5 100.5 101.038 100.5 98V43Z" fill="#1D2025"/>
<path d="M100.5 43C100.5 39.9624 102.962 37.5 106 37.5H190C193.038 37.5 195.5 39.9624 195.5 43V98C195.5 101.038 193.038 103.5 190 103.5H106C102.962 103.5 100.5 101.038 100.5 98V43Z" stroke="#33373D"/>
<path d="M148 46.25C150.754 46.25 153 48.4961 153 51.25C153 54.0234 150.754 56.25 148 56.25C145.227 56.25 143 54.0234 143 51.25C143 48.4961 145.227 46.25 148 46.25ZM147.531 49.2188V51.7188C147.531 51.9922 147.727 52.1875 148 52.1875C148.254 52.1875 148.469 51.9922 148.469 51.7188V49.2188C148.469 48.9648 148.254 48.75 148 48.75C147.727 48.75 147.531 48.9648 147.531 49.2188ZM148 54.0625C148.332 54.0625 148.605 53.7891 148.605 53.457C148.605 53.125 148.332 52.8516 148 52.8516C147.648 52.8516 147.375 53.125 147.375 53.457C147.375 53.7891 147.648 54.0625 148 54.0625Z" fill="#E53E3E"/>
<rect x="109" y="63" width="78" height="3" rx="1.5" fill="#33373D"/>
<rect x="121" y="71" width="41" height="3" rx="1.5" fill="#52555A"/>
<rect x="165" y="71" width="10" height="3" rx="1.5" fill="#8952E0"/>
<path d="M134 86C134 84.8954 134.895 84 136 84H160C161.105 84 162 84.8954 162 86V92C162 93.1046 161.105 94 160 94H136C134.895 94 134 93.1046 134 92V86Z" fill="#8952E0"/>
<rect x="138" y="88" width="20" height="2" rx="1" fill="white"/>
</svg>
