<svg width="250" height="141" viewBox="0 0 250 141" fill="none" xmlns="http://www.w3.org/2000/svg">
<rect x="66" y="58" width="28" height="3" rx="1.5" fill="#ABADAF"/>
<path d="M66.5 70C66.5 68.067 68.067 66.5 70 66.5H180C181.933 66.5 183.5 68.067 183.5 70V79C183.5 80.933 181.933 82.5 180 82.5H70C68.067 82.5 66.5 80.933 66.5 79V70Z" fill="white"/>
<path d="M66.5 70C66.5 68.067 68.067 66.5 70 66.5H180C181.933 66.5 183.5 68.067 183.5 70V79C183.5 80.933 181.933 82.5 180 82.5H70C68.067 82.5 66.5 80.933 66.5 79V70Z" stroke="#D3D4D5"/>
<rect x="72" y="73" width="32" height="3" rx="1.5" fill="#E7E7E8"/>
</svg>
