<svg width="296" height="141" viewBox="0 0 296 141" fill="none" xmlns="http://www.w3.org/2000/svg">
<path d="M151.125 64.125C151.125 63.793 151.398 63.5 151.75 63.5C152.082 63.5 152.375 63.793 152.375 64.125V65.375C152.375 66.4297 151.535 67.25 150.5 67.25H145.5C144.445 67.25 143.625 66.4297 143.625 65.375V64.125C143.625 63.793 143.898 63.5 144.25 63.5C144.582 63.5 144.875 63.793 144.875 64.125V65.375C144.875 65.7266 145.148 66 145.5 66H150.5C150.832 66 151.125 65.7266 151.125 65.375V64.125ZM147.551 57.4453C147.785 57.1914 148.195 57.1914 148.43 57.4453L150.93 59.9453C151.184 60.1797 151.184 60.5898 150.93 60.8242C150.695 61.0781 150.285 61.0781 150.051 60.8242L148.625 59.3984V63.5C148.625 63.8516 148.332 64.125 148 64.125C147.648 64.125 147.375 63.8516 147.375 63.5V59.3984L145.93 60.8242C145.695 61.0781 145.285 61.0781 145.051 60.8242C144.797 60.5898 144.797 60.1797 145.051 59.9453L147.551 57.4453Z" fill="#33373D"/>
<rect x="108.5" y="46.5" width="79" height="48" rx="5.5" stroke="#8952E0" stroke-dasharray="2 2"/>
<rect x="123" y="76" width="22" height="3" rx="1.5" fill="#8952E0"/>
<rect x="148" y="76" width="25" height="3" rx="1.5" fill="#33373D"/>
<rect x="130" y="83" width="36" height="3" rx="1.5" fill="#33373D"/>
<path d="M166.5 82C166.5 80.9062 167.375 80 168.5 80H173.5V84C173.5 84.5625 173.938 85 174.5 85H178.5V94C178.5 95.125 177.594 96 176.5 96H168.5C167.375 96 166.5 95.125 166.5 94V82ZM174.5 84V80L178.5 84H174.5Z" fill="#8952E0"/>
<path d="M179.586 96.207C179.508 96.3828 179.332 96.5195 179.137 96.5195H177.086L177.984 98.3555C178.16 98.7461 178.004 99.2148 177.613 99.4102C177.223 99.5859 176.754 99.4297 176.559 99.0391L175.66 97.125L174.195 98.8438C174.098 98.9609 173.961 99.0195 173.844 99.0195C173.785 99.0195 173.727 99 173.668 98.9805C173.492 98.9219 173.375 98.7461 173.375 98.5312V91.3633C173.375 91.168 173.473 90.9922 173.648 90.9336C173.805 90.8555 174 90.875 174.137 90.9922L179.43 95.6797C179.605 95.8164 179.645 96.0312 179.586 96.207Z" fill="#171A1D"/>
<path fill-rule="evenodd" clip-rule="evenodd" d="M180.519 96.5689L180.5 96.613C180.293 97.0793 179.799 97.5194 179.137 97.5194H178.689L178.89 97.9303L178.896 97.945C179.285 98.8097 178.946 99.8619 178.06 100.304L178.042 100.314L178.024 100.322C177.159 100.711 176.107 100.371 175.664 99.4862L175.659 99.4751L175.414 98.9548L174.959 99.4892C174.68 99.8203 174.269 100.019 173.844 100.019C173.61 100.019 173.405 99.9477 173.359 99.9315C173.356 99.9304 173.353 99.9296 173.352 99.929C172.701 99.7123 172.375 99.1023 172.375 98.5311V91.3632C172.375 90.8823 172.621 90.2577 173.267 90.0083C173.759 89.7928 174.354 89.8615 174.788 90.2328L174.794 90.2381L180.075 94.915C180.604 95.3487 180.705 96.0132 180.535 96.5231L180.519 96.5689ZM179.43 95.6796L174.137 90.9921C174 90.8749 173.805 90.8553 173.648 90.9335C173.473 90.9921 173.375 91.1678 173.375 91.3632V98.5311C173.375 98.746 173.492 98.9218 173.668 98.9803C173.727 98.9999 173.785 99.0194 173.844 99.0194C173.961 99.0194 174.098 98.9608 174.195 98.8436L175.66 97.1249L176.559 99.0389C176.754 99.4296 177.223 99.5858 177.613 99.41C178.004 99.2147 178.16 98.746 177.984 98.3553L177.086 96.5194H179.137C179.332 96.5194 179.508 96.3827 179.586 96.2069C179.645 96.0311 179.605 95.8163 179.43 95.6796Z" fill="white"/>
</svg>
