<svg width="296" height="141" viewBox="0 0 296 141" fill="none" xmlns="http://www.w3.org/2000/svg">
<path d="M84.5 44C84.5 40.9624 86.9624 38.5 90 38.5H185C188.038 38.5 190.5 40.9624 190.5 44V51C190.5 54.0376 188.038 56.5 185 56.5H90C86.9624 56.5 84.5 54.0376 84.5 51V44Z" fill="#1D2025"/>
<path d="M84.5 44C84.5 40.9624 86.9624 38.5 90 38.5H185C188.038 38.5 190.5 40.9624 190.5 44V51C190.5 54.0376 188.038 56.5 185 56.5H90C86.9624 56.5 84.5 54.0376 84.5 51V44Z" stroke="#33373D"/>
<rect x="92" y="46" width="26" height="3" rx="1.5" fill="#52555A"/>
<rect x="124" y="46" width="12" height="3" rx="1.5" fill="#52555A"/>
<rect width="36" height="17" transform="translate(140 39)" fill="white" fill-opacity="0.06"/>
<rect x="144" y="46" width="28" height="3" rx="1.5" fill="#52555A"/>
<path d="M185.051 45.9395L183.615 47.375L185.051 48.8242C185.229 48.9883 185.229 49.2754 185.051 49.4395C184.887 49.6172 184.6 49.6172 184.436 49.4395L183 48.0039L181.551 49.4395C181.387 49.6172 181.1 49.6172 180.936 49.4395C180.758 49.2754 180.758 48.9883 180.936 48.8242L182.371 47.375L180.936 45.9395C180.758 45.7754 180.758 45.4883 180.936 45.3242C181.1 45.1465 181.387 45.1465 181.551 45.3242L183 46.7598L184.436 45.3242C184.6 45.1465 184.887 45.1465 185.051 45.3242C185.229 45.4883 185.229 45.7754 185.051 45.9395Z" fill="#52555A"/>
<g clip-path="url(#clip0_127_7881)">
<path d="M140 65C140 61.6863 142.686 59 146 59H198C201.314 59 204 61.6863 204 65V97C204 100.314 201.314 103 198 103H146C142.686 103 140 100.314 140 97V65Z" fill="#1D2025"/>
<rect x="149" y="65" width="37" height="3" rx="1.5" fill="#33373D"/>
<rect width="64" height="13" transform="translate(140 74)" fill="#3B1676"/>
<path d="M153.508 78.9922C153.66 79.1328 153.66 79.3789 153.508 79.5195L150.508 82.5195C150.367 82.6719 150.121 82.6719 149.98 82.5195L148.48 81.0195C148.328 80.8789 148.328 80.6328 148.48 80.4922C148.621 80.3398 148.867 80.3398 149.008 80.4922L150.25 81.7227L152.98 78.9922C153.121 78.8398 153.367 78.8398 153.508 78.9922Z" fill="#8952E0"/>
<rect x="157" y="79" width="20" height="3" rx="1.5" fill="#8952E0"/>
<path d="M193 82.5C191.891 82.5 191 81.6094 191 80.5C191 79.3984 191.891 78.5 193 78.5C194.102 78.5 195 79.3984 195 80.5C195 81.6094 194.102 82.5 193 82.5Z" fill="#8952E0"/>
<path d="M148.375 91.875C148.375 91.4648 148.703 91.125 149.125 91.125H152.875C153.285 91.125 153.625 91.4648 153.625 91.875V95.625C153.625 96.0469 153.285 96.375 152.875 96.375H149.125C148.703 96.375 148.375 96.0469 148.375 95.625V91.875Z" fill="#52555A"/>
<rect x="157" y="92" width="20" height="3" rx="1.5" fill="#33373D"/>
<path d="M193 95.5C191.891 95.5 191 94.6094 191 93.5C191 92.3984 191.891 91.5 193 91.5C194.102 91.5 195 92.3984 195 93.5C195 94.6094 194.102 95.5 193 95.5Z" fill="#52555A"/>
</g>
<path d="M140.5 65C140.5 61.9624 142.962 59.5 146 59.5H198C201.038 59.5 203.5 61.9624 203.5 65V97C203.5 100.038 201.038 102.5 198 102.5H146C142.962 102.5 140.5 100.038 140.5 97V65Z" stroke="#33373D"/>
<mask id="path-16-outside-1_127_7881" maskUnits="userSpaceOnUse" x="180" y="82.5" width="9" height="12" fill="black">
<rect fill="white" x="180" y="82.5" width="9" height="12"/>
<path d="M181.062 84.0781C181.062 83.7988 181.277 83.5625 181.557 83.5625C181.664 83.5625 181.793 83.627 181.879 83.6914L187.766 88.9336C187.873 89.0195 187.938 89.1484 187.938 89.2773C187.938 89.5566 187.723 89.75 187.443 89.75H184.908L186.133 92.1992C186.305 92.543 186.176 92.9512 185.832 93.123C185.488 93.2949 185.08 93.166 184.908 92.8223L183.662 90.3086L181.879 92.3496C181.793 92.457 181.664 92.5 181.535 92.5C181.256 92.5 181.062 92.3066 181.062 92.0273V84.0781Z"/>
</mask>
<path d="M181.062 84.0781C181.062 83.7988 181.277 83.5625 181.557 83.5625C181.664 83.5625 181.793 83.627 181.879 83.6914L187.766 88.9336C187.873 89.0195 187.938 89.1484 187.938 89.2773C187.938 89.5566 187.723 89.75 187.443 89.75H184.908L186.133 92.1992C186.305 92.543 186.176 92.9512 185.832 93.123C185.488 93.2949 185.08 93.166 184.908 92.8223L183.662 90.3086L181.879 92.3496C181.793 92.457 181.664 92.5 181.535 92.5C181.256 92.5 181.062 92.3066 181.062 92.0273V84.0781Z" fill="#1D2025"/>
<path d="M181.879 83.6914L182.544 82.9446L182.513 82.9166L182.479 82.8914L181.879 83.6914ZM187.766 88.9336L187.101 89.6804L187.12 89.698L187.141 89.7145L187.766 88.9336ZM184.908 89.75V88.75H183.29L184.014 90.1972L184.908 89.75ZM184.908 92.8223L184.012 93.2664L184.014 93.2695L184.908 92.8223ZM183.662 90.3086L184.558 89.8644L183.893 88.5239L182.909 89.6507L183.662 90.3086ZM181.879 92.3496L181.126 91.6917L181.112 91.708L181.098 91.7249L181.879 92.3496ZM182.062 84.0781C182.062 84.2949 181.884 84.5625 181.557 84.5625V82.5625C180.67 82.5625 180.062 83.3028 180.062 84.0781H182.062ZM181.557 84.5625C181.486 84.5625 181.432 84.5522 181.4 84.5444C181.368 84.5363 181.345 84.5274 181.332 84.5219C181.309 84.5123 181.295 84.5031 181.279 84.4914L182.479 82.8914C182.325 82.7759 181.983 82.5625 181.557 82.5625V84.5625ZM181.214 84.4382L187.101 89.6804L188.431 88.1868L182.544 82.9446L181.214 84.4382ZM187.141 89.7145C187.029 89.6253 186.938 89.475 186.938 89.2773H188.938C188.938 88.8219 188.717 88.4138 188.39 88.1527L187.141 89.7145ZM186.938 89.2773C186.938 89.148 186.993 89.0001 187.11 88.8896C187.223 88.784 187.351 88.75 187.443 88.75V90.75C188.215 90.75 188.938 90.1669 188.938 89.2773H186.938ZM187.443 88.75H184.908V90.75H187.443V88.75ZM184.014 90.1972L185.238 92.6464L187.027 91.752L185.803 89.3028L184.014 90.1972ZM185.238 92.6464C185.171 92.5127 185.218 92.3119 185.385 92.2286L186.279 94.0175C187.133 93.5905 187.438 92.5733 187.027 91.752L185.238 92.6464ZM185.385 92.2286C185.519 92.1617 185.719 92.2085 185.803 92.3751L184.014 93.2695C184.441 94.1235 185.458 94.4281 186.279 94.0175L185.385 92.2286ZM185.804 92.3781L184.558 89.8644L182.766 90.7527L184.012 93.2664L185.804 92.3781ZM182.909 89.6507L181.126 91.6917L182.632 93.0076L184.415 90.9665L182.909 89.6507ZM181.098 91.7249C181.254 91.5305 181.454 91.5 181.535 91.5V93.5C181.874 93.5 182.332 93.3836 182.66 92.9743L181.098 91.7249ZM181.535 91.5C181.632 91.5 181.778 91.5378 181.901 91.6613C182.025 91.7848 182.062 91.9302 182.062 92.0273H180.062C180.062 92.4038 180.197 92.7855 180.487 93.0755C180.777 93.3655 181.159 93.5 181.535 93.5V91.5ZM182.062 92.0273V84.0781H180.062V92.0273H182.062Z" fill="white" mask="url(#path-16-outside-1_127_7881)"/>
<defs>
<clipPath id="clip0_127_7881">
<path d="M140 65C140 61.6863 142.686 59 146 59H198C201.314 59 204 61.6863 204 65V97C204 100.314 201.314 103 198 103H146C142.686 103 140 100.314 140 97V65Z" fill="white"/>
</clipPath>
</defs>
</svg>
