<svg width="296" height="141" viewBox="0 0 296 141" fill="none" xmlns="http://www.w3.org/2000/svg">
<rect x="89" y="32" width="28" height="3" rx="1.5" fill="#33373D"/>
<path d="M89.5 44C89.5 42.067 91.067 40.5 93 40.5H203C204.933 40.5 206.5 42.067 206.5 44V53C206.5 54.933 204.933 56.5 203 56.5H93C91.067 56.5 89.5 54.933 89.5 53V44Z" fill="#1D2025"/>
<path d="M89.5 44C89.5 42.067 91.067 40.5 93 40.5H203C204.933 40.5 206.5 42.067 206.5 44V53C206.5 54.933 204.933 56.5 203 56.5H93C91.067 56.5 89.5 54.933 89.5 53V44Z" stroke="#33373D"/>
<rect x="95" y="47" width="32" height="3" rx="1.5" fill="#52555A"/>
<path d="M89.5 67C89.5 65.067 91.067 63.5 93 63.5H203C204.933 63.5 206.5 65.067 206.5 67V88C206.5 89.933 204.933 91.5 203 91.5H93C91.067 91.5 89.5 89.933 89.5 88V67Z" fill="#1D2025"/>
<path d="M89.5 67C89.5 65.067 91.067 63.5 93 63.5H203C204.933 63.5 206.5 65.067 206.5 67V88C206.5 89.933 204.933 91.5 203 91.5H93C91.067 91.5 89.5 89.933 89.5 88V67Z" stroke="#33373D"/>
<rect x="95" y="70" width="32" height="3" rx="1.5" fill="#52555A"/>
<path d="M180 101C180 99.8954 180.895 99 182 99H205C206.105 99 207 99.8954 207 101V107C207 108.105 206.105 109 205 109H182C180.895 109 180 108.105 180 107V101Z" fill="#8952E0"/>
<rect x="184" y="103" width="19" height="2" rx="1" fill="white"/>
</svg>
