<svg width="296" height="141" viewBox="0 0 296 141" fill="none" xmlns="http://www.w3.org/2000/svg">
<path d="M67.5 30C67.5 26.9624 69.9624 24.5 73 24.5H223C226.038 24.5 228.5 26.9624 228.5 30V111C228.5 114.038 226.038 116.5 223 116.5H73C69.9624 116.5 67.5 114.038 67.5 111V30Z" fill="white"/>
<path d="M67.5 30C67.5 26.9624 69.9624 24.5 73 24.5H223C226.038 24.5 228.5 26.9624 228.5 30V111C228.5 114.038 226.038 116.5 223 116.5H73C69.9624 116.5 67.5 114.038 67.5 111V30Z" stroke="#D3D4D5"/>
<mask id="path-2-inside-1_227_11894" fill="white">
<path d="M68 30C68 27.2386 70.2386 25 73 25H223C225.761 25 228 27.2386 228 30V37H68V30Z"/>
</mask>
<path d="M68 30C68 27.2386 70.2386 25 73 25H223C225.761 25 228 27.2386 228 30V37H68V30Z" fill="#F9FAFA"/>
<path d="M68 25H228H68ZM228 38H68V36H228V38ZM68 37V25V37ZM228 25V37V25Z" fill="#E7E7E8" mask="url(#path-2-inside-1_227_11894)"/>
<rect x="75" y="29" width="4" height="4" rx="2" fill="#E53E3E"/>
<rect x="82" y="29" width="4" height="4" rx="2" fill="#FBC434"/>
<rect x="89" y="29" width="4" height="4" rx="2" fill="#0EA371"/>
<rect x="108" y="45" width="13" height="3" rx="1.5" fill="#8952E0"/>
<rect x="108.5" y="50.5" width="36" height="8" rx="1.5" fill="white"/>
<rect x="108.5" y="50.5" width="36" height="8" rx="1.5" stroke="#8952E0"/>
<rect x="151" y="45" width="13" height="3" rx="1.5" fill="#D3D4D5"/>
<rect x="151.5" y="50.5" width="36" height="8" rx="1.5" fill="white"/>
<rect x="151.5" y="50.5" width="36" height="8" rx="1.5" stroke="#D3D4D5"/>
<rect x="108" y="63" width="13" height="3" rx="1.5" fill="#D3D4D5"/>
<rect x="108.5" y="68.5" width="79" height="8" rx="1.5" fill="white"/>
<rect x="108.5" y="68.5" width="79" height="8" rx="1.5" stroke="#D3D4D5"/>
<rect x="108" y="81" width="13" height="3" rx="1.5" fill="#D3D4D5"/>
<rect x="108.5" y="86.5" width="79" height="19" rx="1.5" fill="white"/>
<rect x="108.5" y="86.5" width="79" height="19" rx="1.5" stroke="#D3D4D5"/>
</svg>
