<svg width="296" height="141" viewBox="0 0 296 141" fill="none" xmlns="http://www.w3.org/2000/svg">
<path d="M67.5 30C67.5 26.9624 69.9624 24.5 73 24.5H223C226.038 24.5 228.5 26.9624 228.5 30V111C228.5 114.038 226.038 116.5 223 116.5H73C69.9624 116.5 67.5 114.038 67.5 111V30Z" fill="#1D2025"/>
<path d="M67.5 30C67.5 26.9624 69.9624 24.5 73 24.5H223C226.038 24.5 228.5 26.9624 228.5 30V111C228.5 114.038 226.038 116.5 223 116.5H73C69.9624 116.5 67.5 114.038 67.5 111V30Z" stroke="#33373D"/>
<mask id="path-2-inside-1_133_8213" fill="white">
<path d="M67 24H229V36H67V24Z"/>
</mask>
<path d="M67 24H229V36H67V24Z" fill="white" fill-opacity="0.04"/>
<path d="M229 35H67V37H229V35Z" fill="#33373D" mask="url(#path-2-inside-1_133_8213)"/>
<rect x="73" y="28" width="4" height="4" rx="2" fill="#E53E3E"/>
<rect x="80" y="28" width="4" height="4" rx="2" fill="#FBC434"/>
<rect x="87" y="28" width="4" height="4" rx="2" fill="#0EA371"/>
<rect x="108" y="45" width="13" height="3" rx="1.5" fill="#8952E0"/>
<rect x="108.5" y="50.5" width="36" height="8" rx="1.5" fill="#1D2025"/>
<rect x="108.5" y="50.5" width="36" height="8" rx="1.5" stroke="#8952E0"/>
<rect x="151" y="45" width="13" height="3" rx="1.5" fill="#52555A"/>
<rect x="151.5" y="50.5" width="36" height="8" rx="1.5" fill="#1D2025"/>
<rect x="151.5" y="50.5" width="36" height="8" rx="1.5" stroke="#33373D"/>
<rect x="108" y="63" width="13" height="3" rx="1.5" fill="#52555A"/>
<rect x="108.5" y="68.5" width="79" height="8" rx="1.5" fill="#1D2025"/>
<rect x="108.5" y="68.5" width="79" height="8" rx="1.5" stroke="#33373D"/>
<rect x="108" y="81" width="13" height="3" rx="1.5" fill="#52555A"/>
<rect x="108.5" y="86.5" width="79" height="19" rx="1.5" fill="#1D2025"/>
<rect x="108.5" y="86.5" width="79" height="19" rx="1.5" stroke="#33373D"/>
</svg>
