<svg width="296" height="141" viewBox="0 0 296 141" fill="none" xmlns="http://www.w3.org/2000/svg">
<path d="M97.5 42C97.5 38.9624 99.9624 36.5 103 36.5H193C196.038 36.5 198.5 38.9624 198.5 42V99C198.5 102.038 196.038 104.5 193 104.5H103C99.9624 104.5 97.5 102.038 97.5 99V42Z" fill="#1D2025"/>
<path d="M97.5 42C97.5 38.9624 99.9624 36.5 103 36.5H193C196.038 36.5 198.5 38.9624 198.5 42V99C198.5 102.038 196.038 104.5 193 104.5H103C99.9624 104.5 97.5 102.038 97.5 99V42Z" stroke="#33373D"/>
<rect x="106" y="47" width="37" height="3" rx="1.5" fill="#33373D"/>
<path d="M190.051 49.8242C190.229 49.9883 190.229 50.2754 190.051 50.4395C189.969 50.5215 189.859 50.5625 189.75 50.5625C189.627 50.5625 189.518 50.5215 189.436 50.4395L188 49.0039L186.551 50.4395C186.469 50.5215 186.359 50.5625 186.25 50.5625C186.127 50.5625 186.018 50.5215 185.936 50.4395C185.758 50.2754 185.758 49.9883 185.936 49.8242L187.371 48.375L185.936 46.9395C185.758 46.7754 185.758 46.4883 185.936 46.3242C186.1 46.1465 186.387 46.1465 186.551 46.3242L188 47.7598L189.436 46.3242C189.6 46.1465 189.887 46.1465 190.051 46.3242C190.229 46.4883 190.229 46.7754 190.051 46.9395L188.615 48.3887L190.051 49.8242Z" fill="#33373D"/>
<rect x="106" y="60" width="20" height="3" rx="1.5" fill="#52555A"/>
<rect x="160" y="56" width="10" height="11" rx="2" fill="#3B1676"/>
<path d="M162 59.875C162 59.2539 162.504 58.75 163.125 58.75C163.746 58.75 164.25 59.2539 164.25 59.875V60.25H165.75V59.875C165.75 59.2539 166.254 58.75 166.875 58.75C167.496 58.75 168 59.2539 168 59.875C168 60.4961 167.496 61 166.875 61H166.5V62.5H166.875C167.496 62.5 168 63.0039 168 63.625C168 64.2461 167.496 64.75 166.875 64.75C166.254 64.75 165.75 64.2461 165.75 63.625V63.25H164.25V63.625C164.25 64.2461 163.746 64.75 163.125 64.75C162.504 64.75 162 64.2461 162 63.625C162 63.0039 162.504 62.5 163.125 62.5H163.5V61H163.125C162.504 61 162 60.4961 162 59.875ZM163.5 60.25V59.875C163.5 59.6758 163.324 59.5 163.125 59.5C162.914 59.5 162.75 59.6758 162.75 59.875C162.75 60.0859 162.914 60.25 163.125 60.25H163.5ZM164.25 62.5H165.75V61H164.25V62.5ZM163.5 63.25H163.125C162.914 63.25 162.75 63.4258 162.75 63.625C162.75 63.8359 162.914 64 163.125 64C163.324 64 163.5 63.8359 163.5 63.625V63.25ZM166.5 63.25V63.625C166.5 63.8359 166.664 64 166.875 64C167.074 64 167.25 63.8359 167.25 63.625C167.25 63.4258 167.074 63.25 166.875 63.25H166.5ZM166.5 60.25H166.875C167.074 60.25 167.25 60.0859 167.25 59.875C167.25 59.6758 167.074 59.5 166.875 59.5C166.664 59.5 166.5 59.6758 166.5 59.875V60.25Z" fill="#8952E0"/>
<path d="M175.375 59.6875V61.375H177.062C177.262 61.375 177.438 61.5508 177.438 61.75C177.438 61.9609 177.262 62.125 177.062 62.125H175.375V63.8125C175.375 64.0234 175.199 64.1875 175 64.1875C174.789 64.1875 174.625 64.0234 174.625 63.8125V62.125H172.938C172.727 62.125 172.562 61.9609 172.562 61.75C172.562 61.5508 172.727 61.375 172.938 61.375H174.625V59.6875C174.625 59.4883 174.789 59.3125 175 59.3125C175.199 59.3125 175.375 59.4883 175.375 59.6875Z" fill="#8952E0"/>
<rect x="180" y="56" width="10" height="11" rx="2" fill="#3B1676"/>
<path d="M186.5 59.5H188.375C188.574 59.5 188.75 59.6758 188.75 59.875C188.75 60.0859 188.574 60.25 188.375 60.25H186.676L183.793 63.8594C183.711 63.9531 183.605 64 183.5 64H181.625C181.414 64 181.25 63.8359 181.25 63.625C181.25 63.4258 181.414 63.25 181.625 63.25H183.312L186.207 59.6406C186.277 59.5586 186.383 59.5 186.5 59.5ZM186.5 63.25H188.375C188.574 63.25 188.75 63.4258 188.75 63.625C188.75 63.8359 188.574 64 188.375 64H186.5C186.289 64 186.125 63.8359 186.125 63.625C186.125 63.4258 186.289 63.25 186.5 63.25Z" fill="#8952E0"/>
<rect x="106" y="75" width="20" height="3" rx="1.5" fill="#52555A"/>
<rect x="160" y="71" width="10" height="11" rx="2" fill="#3B1676"/>
<path d="M165.258 74.2422L167.133 76.1172C167.285 76.2578 167.285 76.5039 167.133 76.6445C166.992 76.7969 166.746 76.7969 166.605 76.6445L165.375 75.4141V79C165.375 79.2109 165.199 79.375 165 79.375C164.789 79.375 164.625 79.2109 164.625 79V75.4141L163.383 76.6445C163.242 76.7969 162.996 76.7969 162.855 76.6445C162.703 76.5039 162.703 76.2578 162.855 76.1172L164.73 74.2422C164.871 74.0898 165.117 74.0898 165.258 74.2422Z" fill="#8952E0"/>
<path d="M175.375 74.6875V76.375H177.062C177.262 76.375 177.438 76.5508 177.438 76.75C177.438 76.9609 177.262 77.125 177.062 77.125H175.375V78.8125C175.375 79.0234 175.199 79.1875 175 79.1875C174.789 79.1875 174.625 79.0234 174.625 78.8125V77.125H172.938C172.727 77.125 172.562 76.9609 172.562 76.75C172.562 76.5508 172.727 76.375 172.938 76.375H174.625V74.6875C174.625 74.4883 174.789 74.3125 175 74.3125C175.199 74.3125 175.375 74.4883 175.375 74.6875Z" fill="#8952E0"/>
<rect x="180" y="71" width="10" height="11" rx="2" fill="#3B1676"/>
<path d="M182 74.875C182 74.2539 182.504 73.75 183.125 73.75C183.746 73.75 184.25 74.2539 184.25 74.875V75.25H185.75V74.875C185.75 74.2539 186.254 73.75 186.875 73.75C187.496 73.75 188 74.2539 188 74.875C188 75.4961 187.496 76 186.875 76H186.5V77.5H186.875C187.496 77.5 188 78.0039 188 78.625C188 79.2461 187.496 79.75 186.875 79.75C186.254 79.75 185.75 79.2461 185.75 78.625V78.25H184.25V78.625C184.25 79.2461 183.746 79.75 183.125 79.75C182.504 79.75 182 79.2461 182 78.625C182 78.0039 182.504 77.5 183.125 77.5H183.5V76H183.125C182.504 76 182 75.4961 182 74.875ZM183.5 75.25V74.875C183.5 74.6758 183.324 74.5 183.125 74.5C182.914 74.5 182.75 74.6758 182.75 74.875C182.75 75.0859 182.914 75.25 183.125 75.25H183.5ZM184.25 77.5H185.75V76H184.25V77.5ZM183.5 78.25H183.125C182.914 78.25 182.75 78.4258 182.75 78.625C182.75 78.8359 182.914 79 183.125 79C183.324 79 183.5 78.8359 183.5 78.625V78.25ZM186.5 78.25V78.625C186.5 78.8359 186.664 79 186.875 79C187.074 79 187.25 78.8359 187.25 78.625C187.25 78.4258 187.074 78.25 186.875 78.25H186.5ZM186.5 75.25H186.875C187.074 75.25 187.25 75.0859 187.25 74.875C187.25 74.6758 187.074 74.5 186.875 74.5C186.664 74.5 186.5 74.6758 186.5 74.875V75.25Z" fill="#8952E0"/>
<rect x="106" y="90" width="20" height="3" rx="1.5" fill="#52555A"/>
<rect x="160" y="86" width="10" height="11" rx="2" fill="#3B1676"/>
<path d="M166.5 89.5H168.375C168.574 89.5 168.75 89.6758 168.75 89.875C168.75 90.0859 168.574 90.25 168.375 90.25H166.676L163.793 93.8594C163.711 93.9531 163.605 94 163.5 94H161.625C161.414 94 161.25 93.8359 161.25 93.625C161.25 93.4258 161.414 93.25 161.625 93.25H163.312L166.207 89.6406C166.277 89.5586 166.383 89.5 166.5 89.5ZM166.5 93.25H168.375C168.574 93.25 168.75 93.4258 168.75 93.625C168.75 93.8359 168.574 94 168.375 94H166.5C166.289 94 166.125 93.8359 166.125 93.625C166.125 93.4258 166.289 93.25 166.5 93.25Z" fill="#8952E0"/>
<path d="M175.375 89.6875V91.375H177.062C177.262 91.375 177.438 91.5508 177.438 91.75C177.438 91.9609 177.262 92.125 177.062 92.125H175.375V93.8125C175.375 94.0234 175.199 94.1875 175 94.1875C174.789 94.1875 174.625 94.0234 174.625 93.8125V92.125H172.938C172.727 92.125 172.562 91.9609 172.562 91.75C172.562 91.5508 172.727 91.375 172.938 91.375H174.625V89.6875C174.625 89.4883 174.789 89.3125 175 89.3125C175.199 89.3125 175.375 89.4883 175.375 89.6875Z" fill="#8952E0"/>
<rect x="180" y="86" width="10" height="11" rx="2" fill="#3B1676"/>
<path d="M187.25 89.5C187.25 89.3008 187.414 89.125 187.625 89.125C187.824 89.125 188 89.3008 188 89.5V91.375C188 91.9961 187.496 92.5 186.875 92.5H183.277L184.133 93.3672C184.285 93.5078 184.285 93.7539 184.133 93.8945C183.992 94.0469 183.746 94.0469 183.605 93.8945L182.105 92.3945C181.953 92.2539 181.953 92.0078 182.105 91.8672L183.605 90.3672C183.746 90.2148 183.992 90.2148 184.133 90.3672C184.285 90.5078 184.285 90.7539 184.133 90.8945L183.277 91.75H186.875C187.074 91.75 187.25 91.5859 187.25 91.375V89.5Z" fill="#8952E0"/>
</svg>
