<svg width="296" height="141" viewBox="0 0 296 141" fill="none" xmlns="http://www.w3.org/2000/svg">
<mask id="path-1-inside-1_99_10102" fill="white">
<path d="M71 33C71 29.6863 73.6863 27 77 27H111C114.314 27 117 29.6863 117 33V108C117 111.314 114.314 114 111 114H77C73.6863 114 71 111.314 71 108V33Z"/>
</mask>
<path d="M71 33C71 29.6863 73.6863 27 77 27H111C114.314 27 117 29.6863 117 33V108C117 111.314 114.314 114 111 114H77C73.6863 114 71 111.314 71 108V33Z" fill="white"/>
<path d="M77 28H111V26H77V28ZM116 33V108H118V33H116ZM111 113H77V115H111V113ZM72 108V33H70V108H72ZM77 113C74.2386 113 72 110.761 72 108H70C70 111.866 73.134 115 77 115V113ZM116 108C116 110.761 113.761 113 111 113V115C114.866 115 118 111.866 118 108H116ZM111 28C113.761 28 116 30.2386 116 33H118C118 29.134 114.866 26 111 26V28ZM77 26C73.134 26 70 29.134 70 33H72C72 30.2386 74.2386 28 77 28V26Z" fill="#D3D4D5" mask="url(#path-1-inside-1_99_10102)"/>
<rect x="77" y="35" width="10" height="3" rx="1.5" fill="#ABADAF"/>
<rect x="105" y="35" width="6" height="3" rx="1.5" fill="#D3D4D5"/>
<rect x="77" y="41" width="25" height="3" rx="1.5" fill="#D3D4D5"/>
<path d="M80 56.5C78.8906 56.5 78 55.6094 78 54.5C78 53.3984 78.8906 52.5 80 52.5C81.1016 52.5 82 53.3984 82 54.5C82 55.6094 81.1016 56.5 80 56.5Z" fill="#D3D4D5"/>
<rect x="85" y="52" width="18" height="3" rx="1.5" fill="#D3D4D5"/>
<rect x="85" y="57" width="10" height="3" rx="1.5" fill="#D3D4D5"/>
<mask id="path-9-inside-2_99_10102" fill="white">
<path d="M124 33C124 29.6863 126.686 27 130 27H165C168.314 27 171 29.6863 171 33V108C171 111.314 168.314 114 165 114H130C126.686 114 124 111.314 124 108V33Z"/>
</mask>
<path d="M124 33C124 29.6863 126.686 27 130 27H165C168.314 27 171 29.6863 171 33V108C171 111.314 168.314 114 165 114H130C126.686 114 124 111.314 124 108V33Z" fill="white"/>
<path d="M130 28H165V26H130V28ZM170 33V108H172V33H170ZM165 113H130V115H165V113ZM125 108V33H123V108H125ZM130 113C127.239 113 125 110.761 125 108H123C123 111.866 126.134 115 130 115V113ZM170 108C170 110.761 167.761 113 165 113V115C168.866 115 172 111.866 172 108H170ZM165 28C167.761 28 170 30.2386 170 33H172C172 29.134 168.866 26 165 26V28ZM130 26C126.134 26 123 29.134 123 33H125C125 30.2386 127.239 28 130 28V26Z" fill="#D3D4D5" mask="url(#path-9-inside-2_99_10102)"/>
<rect x="130" y="35" width="10" height="3" rx="1.5" fill="#ABADAF"/>
<rect x="159" y="35" width="6" height="3" rx="1.5" fill="#FBC434"/>
<rect x="130" y="41" width="25" height="3" rx="1.5" fill="#D3D4D5"/>
<path d="M133 56.5C131.891 56.5 131 55.6094 131 54.5C131 53.3984 131.891 52.5 133 52.5C134.102 52.5 135 53.3984 135 54.5C135 55.6094 134.102 56.5 133 56.5Z" fill="#FBC434"/>
<rect x="138" y="52" width="18" height="3" rx="1.5" fill="#D3D4D5"/>
<rect x="138" y="57" width="10" height="3" rx="1.5" fill="#D3D4D5"/>
<path d="M133 74.5C131.891 74.5 131 73.6094 131 72.5C131 71.3984 131.891 70.5 133 70.5C134.102 70.5 135 71.3984 135 72.5C135 73.6094 134.102 74.5 133 74.5Z" fill="#FBC434"/>
<rect x="138" y="70" width="18" height="3" rx="1.5" fill="#D3D4D5"/>
<rect x="138" y="75" width="10" height="3" rx="1.5" fill="#D3D4D5"/>
<mask id="path-20-inside-3_99_10102" fill="white">
<path d="M178 33C178 29.6863 180.686 27 184 27H219C222.314 27 225 29.6863 225 33V108C225 111.314 222.314 114 219 114H184C180.686 114 178 111.314 178 108V33Z"/>
</mask>
<path d="M178 33C178 29.6863 180.686 27 184 27H219C222.314 27 225 29.6863 225 33V108C225 111.314 222.314 114 219 114H184C180.686 114 178 111.314 178 108V33Z" fill="white"/>
<path d="M184 28H219V26H184V28ZM224 33V108H226V33H224ZM219 113H184V115H219V113ZM179 108V33H177V108H179ZM184 113C181.239 113 179 110.761 179 108H177C177 111.866 180.134 115 184 115V113ZM224 108C224 110.761 221.761 113 219 113V115C222.866 115 226 111.866 226 108H224ZM219 28C221.761 28 224 30.2386 224 33H226C226 29.134 222.866 26 219 26V28ZM184 26C180.134 26 177 29.134 177 33H179C179 30.2386 181.239 28 184 28V26Z" fill="#D3D4D5" mask="url(#path-20-inside-3_99_10102)"/>
<rect x="184" y="35" width="10" height="3" rx="1.5" fill="#ABADAF"/>
<rect x="213" y="35" width="6" height="3" rx="1.5" fill="#0EA371"/>
<rect x="184" y="41" width="25" height="3" rx="1.5" fill="#D3D4D5"/>
<path d="M187 56.5C185.891 56.5 185 55.6094 185 54.5C185 53.3984 185.891 52.5 187 52.5C188.102 52.5 189 53.3984 189 54.5C189 55.6094 188.102 56.5 187 56.5Z" fill="#0EA371"/>
<rect x="192" y="52" width="18" height="3" rx="1.5" fill="#D3D4D5"/>
<rect x="192" y="57" width="10" height="3" rx="1.5" fill="#D3D4D5"/>
<path d="M187 74.5C185.891 74.5 185 73.6094 185 72.5C185 71.3984 185.891 70.5 187 70.5C188.102 70.5 189 71.3984 189 72.5C189 73.6094 188.102 74.5 187 74.5Z" fill="#0EA371"/>
<rect x="192" y="70" width="18" height="3" rx="1.5" fill="#D3D4D5"/>
<rect x="192" y="75" width="10" height="3" rx="1.5" fill="#D3D4D5"/>
<path d="M187 92.5C185.891 92.5 185 91.6094 185 90.5C185 89.3984 185.891 88.5 187 88.5C188.102 88.5 189 89.3984 189 90.5C189 91.6094 188.102 92.5 187 92.5Z" fill="#0EA371"/>
<rect x="192" y="88" width="18" height="3" rx="1.5" fill="#D3D4D5"/>
<rect x="192" y="93" width="10" height="3" rx="1.5" fill="#D3D4D5"/>
</svg>
