<svg width="296" height="141" viewBox="0 0 296 141" fill="none" xmlns="http://www.w3.org/2000/svg">
<g clip-path="url(#clip0_130_6811)">
<path d="M83 36C83 32.6863 85.6863 30 89 30H207C210.314 30 213 32.6863 213 36V105C213 108.314 210.314 111 207 111H89C85.6863 111 83 108.314 83 105V36Z" fill="#1D2025"/>
<mask id="path-3-inside-1_130_6811" fill="white">
<path d="M83 30H213V42H83V30Z"/>
</mask>
<path d="M83 30H213V42H83V30Z" fill="white" fill-opacity="0.04"/>
<path d="M213 41H83V43H213V41Z" fill="#33373D" mask="url(#path-3-inside-1_130_6811)"/>
<rect x="89" y="34" width="4" height="4" rx="2" fill="#E53E3E"/>
<rect x="96" y="34" width="4" height="4" rx="2" fill="#FBC434"/>
<rect x="103" y="34" width="4" height="4" rx="2" fill="#0EA371"/>
<rect x="133" y="53" width="29" height="3" rx="1.5" fill="#52555A"/>
<path d="M116.5 64C116.5 63.1716 117.172 62.5 118 62.5H177C177.828 62.5 178.5 63.1716 178.5 64V69C178.5 69.8284 177.828 70.5 177 70.5H118C117.172 70.5 116.5 69.8284 116.5 69V64Z" fill="#1D2025"/>
<path d="M116.5 64C116.5 63.1716 117.172 62.5 118 62.5H177C177.828 62.5 178.5 63.1716 178.5 64V69C178.5 69.8284 177.828 70.5 177 70.5H118C117.172 70.5 116.5 69.8284 116.5 69V64Z" stroke="#33373D"/>
<path d="M116.5 79C116.5 78.1716 117.172 77.5 118 77.5H177C177.828 77.5 178.5 78.1716 178.5 79V84C178.5 84.8284 177.828 85.5 177 85.5H118C117.172 85.5 116.5 84.8284 116.5 84V79Z" fill="#1D2025"/>
<path d="M116.5 79C116.5 78.1716 117.172 77.5 118 77.5H177C177.828 77.5 178.5 78.1716 178.5 79V84C178.5 84.8284 177.828 85.5 177 85.5H118C117.172 85.5 116.5 84.8284 116.5 84V79Z" stroke="#33373D"/>
<path d="M133 97C133 95.8954 133.895 95 135 95H159C160.105 95 161 95.8954 161 97V101C161 102.105 160.105 103 159 103H135C133.895 103 133 102.105 133 101V97Z" fill="#8952E0"/>
<rect x="137" y="98" width="20" height="2" rx="1" fill="white"/>
<g opacity="0.6">
<rect width="131" height="71" transform="translate(84 42)" fill="#33373D"/>
<path d="M150.219 65.8438C150.219 66.5293 149.66 67.0625 149 67.0625C148.314 67.0625 147.781 66.5293 147.781 65.8438C147.781 65.1836 148.314 64.625 149 64.625C149.66 64.625 150.219 65.1836 150.219 65.8438ZM150.219 76.4062C150.219 77.0918 149.66 77.625 149 77.625C148.314 77.625 147.781 77.0918 147.781 76.4062C147.781 75.7461 148.314 75.1875 149 75.1875C149.66 75.1875 150.219 75.7461 150.219 76.4062ZM142.5 71.125C142.5 70.4648 143.033 69.9062 143.719 69.9062C144.379 69.9062 144.938 70.4648 144.938 71.125C144.938 71.8105 144.379 72.3438 143.719 72.3438C143.033 72.3438 142.5 71.8105 142.5 71.125ZM155.5 71.125C155.5 71.8105 154.941 72.3438 154.281 72.3438C153.596 72.3438 153.062 71.8105 153.062 71.125C153.062 70.4648 153.596 69.9062 154.281 69.9062C154.941 69.9062 155.5 70.4648 155.5 71.125ZM144.379 75.7207C143.922 75.2637 143.922 74.4766 144.379 74.0195C144.861 73.5371 145.648 73.5371 146.105 74.0195C146.588 74.4766 146.588 75.2637 146.105 75.7207C145.648 76.2031 144.861 76.2031 144.379 75.7207ZM146.105 68.2559C145.648 68.7383 144.861 68.7383 144.379 68.2559C143.922 67.7988 143.922 67.0117 144.379 66.5293C144.861 66.0723 145.648 66.0723 146.105 66.5293C146.588 67.0117 146.588 67.7988 146.105 68.2559ZM151.869 74.0195C152.326 73.5371 153.113 73.5371 153.596 74.0195C154.053 74.4766 154.053 75.2637 153.596 75.7207C153.113 76.2031 152.326 76.2031 151.869 75.7207C151.387 75.2637 151.387 74.4766 151.869 74.0195Z" fill="white"/>
</g>
</g>
<path d="M83.5 36C83.5 32.9624 85.9624 30.5 89 30.5H207C210.038 30.5 212.5 32.9624 212.5 36V105C212.5 108.038 210.038 110.5 207 110.5H89C85.9624 110.5 83.5 108.038 83.5 105V36Z" stroke="#33373D"/>
<defs>
<clipPath id="clip0_130_6811">
<path d="M83 36C83 32.6863 85.6863 30 89 30H207C210.314 30 213 32.6863 213 36V105C213 108.314 210.314 111 207 111H89C85.6863 111 83 108.314 83 105V36Z" fill="white"/>
</clipPath>
</defs>
</svg>
