<svg width="296" height="141" viewBox="0 0 296 141" fill="none" xmlns="http://www.w3.org/2000/svg">
<path d="M133.5 40C133.5 36.9624 135.962 34.5 139 34.5H193C196.038 34.5 198.5 36.9624 198.5 40V71C198.5 74.0376 196.038 76.5 193 76.5H139C135.962 76.5 133.5 74.0376 133.5 71V40Z" fill="white"/>
<path d="M133.5 40C133.5 36.9624 135.962 34.5 139 34.5H193C196.038 34.5 198.5 36.9624 198.5 40V71C198.5 74.0376 196.038 76.5 193 76.5H139C135.962 76.5 133.5 74.0376 133.5 71V40Z" stroke="#D3D4D5"/>
<rect x="141" y="42" width="26" height="3" rx="1.5" fill="#8952E0"/>
<rect x="141" y="50" width="50" height="3" rx="1.5" fill="#D3D4D5"/>
<rect x="141" y="56" width="27" height="3" rx="1.5" fill="#D3D4D5"/>
<rect x="166" y="65" width="11" height="3" rx="1.5" fill="#ABADAF"/>
<rect x="180" y="65" width="11" height="3" rx="1.5" fill="#8952E0"/>
<path d="M193.758 43.9922C193.91 44.1328 193.91 44.3789 193.758 44.5195C193.688 44.5898 193.594 44.625 193.5 44.625C193.395 44.625 193.301 44.5898 193.23 44.5195L192 43.2891L190.758 44.5195C190.688 44.5898 190.594 44.625 190.5 44.625C190.395 44.625 190.301 44.5898 190.23 44.5195C190.078 44.3789 190.078 44.1328 190.23 43.9922L191.461 42.75L190.23 41.5195C190.078 41.3789 190.078 41.1328 190.23 40.9922C190.371 40.8398 190.617 40.8398 190.758 40.9922L192 42.2227L193.23 40.9922C193.371 40.8398 193.617 40.8398 193.758 40.9922C193.91 41.1328 193.91 41.3789 193.758 41.5195L192.527 42.7617L193.758 43.9922Z" fill="#ABADAF"/>
<path d="M94.5 70C94.5 66.9624 96.9624 64.5 100 64.5H154C157.038 64.5 159.5 66.9624 159.5 70V101C159.5 104.038 157.038 106.5 154 106.5H100C96.9624 106.5 94.5 104.038 94.5 101V70Z" fill="white"/>
<path d="M94.5 70C94.5 66.9624 96.9624 64.5 100 64.5H154C157.038 64.5 159.5 66.9624 159.5 70V101C159.5 104.038 157.038 106.5 154 106.5H100C96.9624 106.5 94.5 104.038 94.5 101V70Z" stroke="#D3D4D5"/>
<rect x="114" y="72" width="26" height="3" rx="1.5" fill="#8952E0"/>
<rect x="102" y="80" width="50" height="3" rx="1.5" fill="#D3D4D5"/>
<rect x="111" y="86" width="32" height="3" rx="1.5" fill="#D3D4D5"/>
<rect x="114.5" y="95" width="11" height="3" rx="1.5" fill="#ABADAF"/>
<rect x="128.5" y="95" width="11" height="3" rx="1.5" fill="#8952E0"/>
<path d="M154.258 74.4922C154.41 74.6328 154.41 74.8789 154.258 75.0195C154.188 75.0898 154.094 75.125 154 75.125C153.895 75.125 153.801 75.0898 153.73 75.0195L152.5 73.7891L151.258 75.0195C151.188 75.0898 151.094 75.125 151 75.125C150.895 75.125 150.801 75.0898 150.73 75.0195C150.578 74.8789 150.578 74.6328 150.73 74.4922L151.961 73.25L150.73 72.0195C150.578 71.8789 150.578 71.6328 150.73 71.4922C150.871 71.3398 151.117 71.3398 151.258 71.4922L152.5 72.7227L153.73 71.4922C153.871 71.3398 154.117 71.3398 154.258 71.4922C154.41 71.6328 154.41 71.8789 154.258 72.0195L153.027 73.2617L154.258 74.4922Z" fill="#ABADAF"/>
</svg>
