<svg width="296" height="141" viewBox="0 0 296 141" fill="none" xmlns="http://www.w3.org/2000/svg">
<path d="M87.5 34C87.5 30.9624 89.9624 28.5 93 28.5H203C206.038 28.5 208.5 30.9624 208.5 34V107C208.5 110.038 206.038 112.5 203 112.5H93C89.9624 112.5 87.5 110.038 87.5 107V34Z" fill="#1D2025"/>
<path d="M87.5 34C87.5 30.9624 89.9624 28.5 93 28.5H203C206.038 28.5 208.5 30.9624 208.5 34V107C208.5 110.038 206.038 112.5 203 112.5H93C89.9624 112.5 87.5 110.038 87.5 107V34Z" stroke="#33373D"/>
<mask id="path-2-outside-1_141_7707" maskUnits="userSpaceOnUse" x="87" y="28" width="122" height="13" fill="black">
<rect fill="white" x="87" y="28" width="122" height="13"/>
<path d="M87 28H209V40H87V28Z"/>
</mask>
<path d="M87 28H209V40H87V28Z" fill="white" fill-opacity="0.04"/>
<path d="M209 39H87V41H209V39Z" fill="#33373D" mask="url(#path-2-outside-1_141_7707)"/>
<rect x="93" y="32" width="4" height="4" rx="2" fill="#E53E3E"/>
<rect x="100" y="32" width="4" height="4" rx="2" fill="#FBC434"/>
<rect x="107" y="32" width="4" height="4" rx="2" fill="#0EA371"/>
<path fill-rule="evenodd" clip-rule="evenodd" d="M147 41H87V40H147V41Z" fill="#8952E0"/>
<rect x="124" y="51" width="48" height="3" rx="1.5" fill="#33373D"/>
<rect x="139" y="57" width="18" height="3" rx="1.5" fill="#52555A"/>
<rect x="117" y="69" width="10" height="3" rx="1.5" fill="#33373D"/>
<path d="M117.5 76C117.5 75.1716 118.172 74.5 119 74.5H144C144.828 74.5 145.5 75.1716 145.5 76V81C145.5 81.8284 144.828 82.5 144 82.5H119C118.172 82.5 117.5 81.8284 117.5 81V76Z" fill="#1D2025"/>
<path d="M117.5 76C117.5 75.1716 118.172 74.5 119 74.5H144C144.828 74.5 145.5 75.1716 145.5 76V81C145.5 81.8284 144.828 82.5 144 82.5H119C118.172 82.5 117.5 81.8284 117.5 81V76Z" stroke="#33373D"/>
<rect x="150" y="69" width="10" height="3" rx="1.5" fill="#33373D"/>
<path d="M150.5 76C150.5 75.1716 151.172 74.5 152 74.5H177C177.828 74.5 178.5 75.1716 178.5 76V81C178.5 81.8284 177.828 82.5 177 82.5H152C151.172 82.5 150.5 81.8284 150.5 81V76Z" fill="#1D2025"/>
<path d="M150.5 76C150.5 75.1716 151.172 74.5 152 74.5H177C177.828 74.5 178.5 75.1716 178.5 76V81C178.5 81.8284 177.828 82.5 177 82.5H152C151.172 82.5 150.5 81.8284 150.5 81V76Z" stroke="#33373D"/>
<rect x="117" y="87" width="10" height="3" rx="1.5" fill="#33373D"/>
<path d="M117.5 94C117.5 93.1716 118.172 92.5 119 92.5H177C177.828 92.5 178.5 93.1716 178.5 94V99C178.5 99.8284 177.828 100.5 177 100.5H119C118.172 100.5 117.5 99.8284 117.5 99V94Z" fill="#1D2025"/>
<path d="M117.5 94C117.5 93.1716 118.172 92.5 119 92.5H177C177.828 92.5 178.5 93.1716 178.5 94V99C178.5 99.8284 177.828 100.5 177 100.5H119C118.172 100.5 117.5 99.8284 117.5 99V94Z" stroke="#33373D"/>
</svg>
