<svg width="296" height="141" viewBox="0 0 296 141" fill="none" xmlns="http://www.w3.org/2000/svg">
<path d="M100 20.5H196C199.038 20.5 201.5 22.9624 201.5 26V115C201.5 118.038 199.038 120.5 196 120.5H100C96.9624 120.5 94.5 118.038 94.5 115V26C94.5 22.9624 96.9624 20.5 100 20.5Z" fill="#1D2025"/>
<path d="M100 20.5H196C199.038 20.5 201.5 22.9624 201.5 26V115C201.5 118.038 199.038 120.5 196 120.5H100C96.9624 120.5 94.5 118.038 94.5 115V26C94.5 22.9624 96.9624 20.5 100 20.5Z" stroke="#33373D"/>
<rect x="102" y="29" width="28" height="3" rx="1.5" fill="#52555A"/>
<path d="M106 36.5H190C191.933 36.5 193.5 38.067 193.5 40V49C193.5 50.933 191.933 52.5 190 52.5H106C104.067 52.5 102.5 50.933 102.5 49V40C102.5 38.067 104.067 36.5 106 36.5Z" stroke="#33373D"/>
<rect x="108" y="43" width="32" height="3" rx="1.5" fill="#33373D"/>
<rect x="102" y="59" width="28" height="3" rx="1.5" fill="#52555A"/>
<path d="M106 67.5H190C191.933 67.5 193.5 69.067 193.5 71V92C193.5 93.933 191.933 95.5 190 95.5H106C104.067 95.5 102.5 93.933 102.5 92V71C102.5 69.067 104.067 67.5 106 67.5Z" stroke="#33373D"/>
<rect x="110" y="75" width="76" height="3" rx="1.5" fill="#33373D"/>
<rect x="110" y="82" width="23" height="3" rx="1.5" fill="#33373D"/>
<path d="M167 104C167 102.895 167.895 102 169 102H192C193.105 102 194 102.895 194 104V110C194 111.105 193.105 112 192 112H169C167.895 112 167 111.105 167 110V104Z" fill="#8952E0"/>
<rect x="171" y="106" width="19" height="2" rx="1" fill="white"/>
</svg>
