<svg width="296" height="141" viewBox="0 0 296 141" fill="none" xmlns="http://www.w3.org/2000/svg">
<rect x="112.5" y="55.5" width="71" height="30" rx="5.5" stroke="#8952E0" stroke-dasharray="2 2"/>
<rect x="120" y="63" width="20" height="3" rx="1.5" fill="#8952E0"/>
<rect x="120" y="69" width="56" height="3" rx="1.5" fill="#52555A"/>
<rect x="120" y="75" width="26" height="3" rx="1.5" fill="#52555A"/>
<rect x="149" y="75" width="11" height="3" rx="1.5" fill="#52555A"/>
<mask id="path-6-outside-1_133_7487" maskUnits="userSpaceOnUse" x="177.5" y="64.5" width="14" height="9" fill="black">
<rect fill="white" x="177.5" y="64.5" width="14" height="9"/>
<path d="M190.312 69.4219L187.688 71.8594C187.523 72.0234 187.289 72.0469 187.078 71.9531C186.867 71.8828 186.75 71.6719 186.75 71.4375V70.125H182.25V71.4375C182.25 71.6719 182.109 71.8828 181.898 71.9531C181.688 72.0469 181.453 72.0234 181.289 71.8594L178.664 69.4219C178.547 69.3047 178.5 69.1641 178.5 69C178.5 68.8594 178.547 68.6953 178.664 68.6016L181.289 66.1641C181.453 66 181.688 65.9766 181.898 66.0469C182.109 66.1406 182.25 66.3516 182.25 66.5625V67.875H186.75V66.5625C186.75 66.3516 186.867 66.1406 187.078 66.0469C187.289 65.9766 187.523 66 187.688 66.1641L190.312 68.6016C190.43 68.6953 190.5 68.8594 190.5 69C190.5 69.1641 190.43 69.3281 190.312 69.4219Z"/>
</mask>
<path d="M190.312 69.4219L187.688 71.8594C187.523 72.0234 187.289 72.0469 187.078 71.9531C186.867 71.8828 186.75 71.6719 186.75 71.4375V70.125H182.25V71.4375C182.25 71.6719 182.109 71.8828 181.898 71.9531C181.688 72.0469 181.453 72.0234 181.289 71.8594L178.664 69.4219C178.547 69.3047 178.5 69.1641 178.5 69C178.5 68.8594 178.547 68.6953 178.664 68.6016L181.289 66.1641C181.453 66 181.688 65.9766 181.898 66.0469C182.109 66.1406 182.25 66.3516 182.25 66.5625V67.875H186.75V66.5625C186.75 66.3516 186.867 66.1406 187.078 66.0469C187.289 65.9766 187.523 66 187.688 66.1641L190.312 68.6016C190.43 68.6953 190.5 68.8594 190.5 69C190.5 69.1641 190.43 69.3281 190.312 69.4219Z" fill="#1D2025"/>
<path d="M190.312 69.4219L189.688 68.641L189.659 68.664L189.632 68.6891L190.312 69.4219ZM187.688 71.8594L187.007 71.1266L186.993 71.1392L186.98 71.1523L187.688 71.8594ZM187.078 71.9531L187.484 71.0393L187.44 71.0197L187.394 71.0044L187.078 71.9531ZM186.75 70.125H187.75V69.125H186.75V70.125ZM182.25 70.125V69.125H181.25V70.125H182.25ZM181.898 71.9531L181.582 71.0044L181.536 71.0197L181.492 71.0393L181.898 71.9531ZM181.289 71.8594L181.996 71.1523L181.983 71.1392L181.97 71.1266L181.289 71.8594ZM178.664 69.4219L177.957 70.129L177.97 70.1421L177.984 70.1547L178.664 69.4219ZM178.664 68.6016L179.289 69.3824L179.318 69.3594L179.345 69.3344L178.664 68.6016ZM181.289 66.1641L181.97 66.8969L181.983 66.8843L181.996 66.8712L181.289 66.1641ZM181.898 66.0469L182.305 65.1331L182.26 65.1135L182.215 65.0982L181.898 66.0469ZM182.25 67.875H181.25V68.875H182.25V67.875ZM186.75 67.875V68.875H187.75V67.875H186.75ZM187.078 66.0469L186.762 65.0982L186.716 65.1135L186.672 65.1331L187.078 66.0469ZM187.688 66.1641L186.98 66.8712L186.993 66.8843L187.007 66.8969L187.688 66.1641ZM190.312 68.6016L189.632 69.3344L189.659 69.3594L189.688 69.3824L190.312 68.6016ZM189.632 68.6891L187.007 71.1266L188.368 72.5922L190.993 70.1547L189.632 68.6891ZM186.98 71.1523C187.056 71.0763 187.158 71.0269 187.263 71.0124C187.361 70.9988 187.437 71.0185 187.484 71.0393L186.672 72.8669C187.191 73.0978 187.888 73.0735 188.395 72.5665L186.98 71.1523ZM187.394 71.0044C187.533 71.0505 187.632 71.1433 187.688 71.2343C187.739 71.3186 187.75 71.3924 187.75 71.4375H185.75C185.75 71.9733 186.032 72.6586 186.762 72.9018L187.394 71.0044ZM187.75 71.4375V70.125H185.75V71.4375H187.75ZM186.75 69.125H182.25V71.125H186.75V69.125ZM181.25 70.125V71.4375H183.25V70.125H181.25ZM181.25 71.4375C181.25 71.2903 181.34 71.0851 181.582 71.0044L182.215 72.9018C182.878 72.6806 183.25 72.0535 183.25 71.4375H181.25ZM181.492 71.0393C181.539 71.0185 181.616 70.9988 181.714 71.0124C181.818 71.0269 181.92 71.0763 181.996 71.1523L180.582 72.5665C181.089 73.0735 181.785 73.0978 182.305 72.8669L181.492 71.0393ZM181.97 71.1266L179.345 68.6891L177.984 70.1547L180.609 72.5922L181.97 71.1266ZM179.371 68.7148C179.411 68.7545 179.449 68.8106 179.474 68.8774C179.498 68.9403 179.5 68.9868 179.5 69H177.5C177.5 69.3783 177.619 69.7911 177.957 70.129L179.371 68.7148ZM179.5 69C179.5 69.0342 179.495 69.0788 179.474 69.1343C179.454 69.19 179.403 69.2913 179.289 69.3824L178.039 67.8207C177.592 68.1789 177.5 68.6997 177.5 69H179.5ZM179.345 69.3344L181.97 66.8969L180.609 65.4313L177.984 67.8688L179.345 69.3344ZM181.996 66.8712C181.92 66.9478 181.824 66.99 181.741 67.004C181.664 67.0167 181.61 67.0048 181.582 66.9956L182.215 65.0982C181.749 64.9429 181.084 64.9552 180.582 65.457L181.996 66.8712ZM181.492 66.9607C181.42 66.9286 181.364 66.8792 181.325 66.8216C181.287 66.7651 181.25 66.6779 181.25 66.5625H183.25C183.25 65.9264 182.848 65.3748 182.305 65.1331L181.492 66.9607ZM181.25 66.5625V67.875H183.25V66.5625H181.25ZM182.25 68.875H186.75V66.875H182.25V68.875ZM187.75 67.875V66.5625H185.75V67.875H187.75ZM187.75 66.5625C187.75 66.7039 187.672 66.8772 187.484 66.9607L186.672 65.1331C186.062 65.404 185.75 65.9993 185.75 66.5625H187.75ZM187.394 66.9956C187.367 67.0048 187.312 67.0167 187.236 67.004C187.152 66.99 187.057 66.9478 186.98 66.8712L188.395 65.457C187.893 64.9552 187.228 64.9429 186.762 65.0982L187.394 66.9956ZM187.007 66.8969L189.632 69.3344L190.993 67.8688L188.368 65.4313L187.007 66.8969ZM189.688 69.3824C189.605 69.3158 189.562 69.2463 189.541 69.1999C189.52 69.1537 189.5 69.0884 189.5 69H191.5C191.5 68.5831 191.312 68.1208 190.937 67.8207L189.688 69.3824ZM189.5 69C189.5 68.9424 189.512 68.8874 189.535 68.8346C189.558 68.7829 189.602 68.7093 189.688 68.641L190.937 70.2027C191.329 69.8893 191.5 69.4165 191.5 69H189.5Z" fill="#F1F1F2" mask="url(#path-6-outside-1_133_7487)"/>
</svg>
