<svg width="296" height="141" viewBox="0 0 296 141" fill="none" xmlns="http://www.w3.org/2000/svg">
<rect x="112.5" y="55.5" width="71" height="30" rx="5.5" stroke="#8952E0" stroke-dasharray="2 2"/>
<rect x="120" y="63" width="20" height="3" rx="1.5" fill="#8952E0"/>
<rect x="120" y="69" width="56" height="3" rx="1.5" fill="#D3D4D5"/>
<rect x="120" y="75" width="26" height="3" rx="1.5" fill="#D3D4D5"/>
<rect x="149" y="75" width="11" height="3" rx="1.5" fill="#D3D4D5"/>
<mask id="path-6-outside-1_100_10956" maskUnits="userSpaceOnUse" x="178.5" y="65.5" width="12" height="7" fill="black">
<rect fill="white" x="178.5" y="65.5" width="12" height="7"/>
<path d="M188.842 69.4414L186.873 71.2695C186.75 71.3926 186.557 71.4102 186.416 71.3574C186.258 71.2871 186.152 71.1289 186.152 70.9707V69.9863H182.777V70.9531C182.777 71.1289 182.689 71.2871 182.531 71.3398C182.373 71.4102 182.197 71.3926 182.074 71.2695L180.105 69.4414C179.93 69.2832 179.93 68.9844 180.105 68.8262L182.074 66.998C182.197 66.875 182.373 66.8574 182.531 66.9102C182.707 66.9805 182.795 67.1387 182.795 67.2969V68.2812H186.17V67.2969C186.17 67.1211 186.275 66.9629 186.434 66.9102C186.574 66.8398 186.768 66.875 186.891 66.9805L188.859 68.8086C189.018 68.9844 189.018 69.2832 188.842 69.4414Z"/>
</mask>
<path d="M188.842 69.4414L186.873 71.2695C186.75 71.3926 186.557 71.4102 186.416 71.3574C186.258 71.2871 186.152 71.1289 186.152 70.9707V69.9863H182.777V70.9531C182.777 71.1289 182.689 71.2871 182.531 71.3398C182.373 71.4102 182.197 71.3926 182.074 71.2695L180.105 69.4414C179.93 69.2832 179.93 68.9844 180.105 68.8262L182.074 66.998C182.197 66.875 182.373 66.8574 182.531 66.9102C182.707 66.9805 182.795 67.1387 182.795 67.2969V68.2812H186.17V67.2969C186.17 67.1211 186.275 66.9629 186.434 66.9102C186.574 66.8398 186.768 66.875 186.891 66.9805L188.859 68.8086C189.018 68.9844 189.018 69.2832 188.842 69.4414Z" fill="#1D2025"/>
<path d="M188.842 69.4414L188.173 68.6981L188.167 68.7033L188.161 68.7086L188.842 69.4414ZM186.873 71.2695L186.193 70.5367L186.179 70.5493L186.166 70.5624L186.873 71.2695ZM186.416 71.3574L186.01 72.2712L186.037 72.2833L186.065 72.2938L186.416 71.3574ZM186.152 69.9863H187.152V68.9863H186.152V69.9863ZM182.777 69.9863V68.9863H181.777V69.9863H182.777ZM182.531 71.3398L182.215 70.3912L182.169 70.4064L182.125 70.426L182.531 71.3398ZM182.074 71.2695L182.781 70.5624L182.768 70.5493L182.755 70.5367L182.074 71.2695ZM180.105 69.4414L180.786 68.7086L180.78 68.7033L180.774 68.6981L180.105 69.4414ZM180.105 68.8262L180.774 69.5695L180.78 69.5643L180.786 69.559L180.105 68.8262ZM182.074 66.998L182.755 67.7308L182.768 67.7182L182.781 67.7052L182.074 66.998ZM182.531 66.9102L182.903 65.9817L182.875 65.9708L182.847 65.9615L182.531 66.9102ZM182.795 68.2812H181.795V69.2812H182.795V68.2812ZM186.17 68.2812V69.2812H187.17V68.2812H186.17ZM186.434 66.9102L186.75 67.8588L186.817 67.8364L186.881 67.8046L186.434 66.9102ZM186.891 66.9805L187.571 66.2477L187.557 66.2341L187.541 66.2212L186.891 66.9805ZM188.859 68.8086L189.603 68.1396L189.573 68.1063L189.54 68.0758L188.859 68.8086ZM188.161 68.7086L186.193 70.5367L187.553 72.0023L189.522 70.1742L188.161 68.7086ZM186.166 70.5624C186.276 70.4525 186.4 70.4071 186.491 70.3923C186.578 70.3782 186.671 70.385 186.767 70.4211L186.065 72.2938C186.492 72.4537 187.123 72.4335 187.58 71.9766L186.166 70.5624ZM186.822 70.4436C186.921 70.4874 186.998 70.5558 187.053 70.6362C187.106 70.7154 187.152 70.8289 187.152 70.9707H185.152C185.152 71.5541 185.519 72.053 186.01 72.2712L186.822 70.4436ZM187.152 70.9707V69.9863H185.152V70.9707H187.152ZM186.152 68.9863H182.777V70.9863H186.152V68.9863ZM181.777 69.9863V70.9531H183.777V69.9863H181.777ZM181.777 70.9531C181.777 70.8274 181.855 70.5113 182.215 70.3912L182.847 72.2885C183.524 72.0629 183.777 71.4304 183.777 70.9531H181.777ZM182.125 70.426C182.198 70.3935 182.303 70.3694 182.427 70.3867C182.558 70.4049 182.685 70.4659 182.781 70.5624L181.367 71.9766C181.833 72.4427 182.471 72.4611 182.937 72.2537L182.125 70.426ZM182.755 70.5367L180.786 68.7086L179.425 70.1742L181.394 72.0023L182.755 70.5367ZM180.774 68.6981C180.923 68.8316 180.974 69.0008 180.974 69.1338C180.974 69.2667 180.923 69.4359 180.774 69.5695L179.437 68.0829C178.819 68.6383 178.819 69.6293 179.437 70.1847L180.774 68.6981ZM180.786 69.559L182.755 67.7308L181.394 66.2653L179.425 68.0934L180.786 69.559ZM182.781 67.7052C182.567 67.9198 182.312 67.8911 182.215 67.8588L182.847 65.9615C182.434 65.8238 181.828 65.8302 181.367 66.2909L182.781 67.7052ZM182.16 67.8386C181.923 67.744 181.795 67.5113 181.795 67.2969H183.795C183.795 66.7661 183.491 66.2169 182.903 65.9817L182.16 67.8386ZM181.795 67.2969V68.2812H183.795V67.2969H181.795ZM182.795 69.2812H186.17V67.2812H182.795V69.2812ZM187.17 68.2812V67.2969H185.17V68.2812H187.17ZM187.17 67.2969C187.17 67.5027 187.044 67.7606 186.75 67.8588L186.117 65.9615C185.506 66.1651 185.17 66.7395 185.17 67.2969H187.17ZM186.881 67.8046C186.73 67.88 186.594 67.8804 186.509 67.8665C186.422 67.8525 186.328 67.8152 186.24 67.7397L187.541 66.2212C187.161 65.8949 186.54 65.7389 185.986 66.0157L186.881 67.8046ZM186.21 67.7133L188.179 69.5414L189.54 68.0758L187.571 66.2477L186.21 67.7133ZM188.116 69.4776C188.009 69.3588 187.974 69.2243 187.976 69.1127C187.978 68.9991 188.023 68.8334 188.173 68.6981L189.511 70.1847C190.144 69.6152 190.087 68.6779 189.603 68.1396L188.116 69.4776Z" fill="#F9FAFA" mask="url(#path-6-outside-1_100_10956)"/>
</svg>
