<svg width="296" height="141" viewBox="0 0 296 141" fill="none" xmlns="http://www.w3.org/2000/svg">
<rect x="89" y="58" width="28" height="3" rx="1.5" fill="#ABADAF"/>
<path d="M89.5 70C89.5 68.067 91.067 66.5 93 66.5H203C204.933 66.5 206.5 68.067 206.5 70V79C206.5 80.933 204.933 82.5 203 82.5H93C91.067 82.5 89.5 80.933 89.5 79V70Z" fill="white"/>
<path d="M89.5 70C89.5 68.067 91.067 66.5 93 66.5H203C204.933 66.5 206.5 68.067 206.5 70V79C206.5 80.933 204.933 82.5 203 82.5H93C91.067 82.5 89.5 80.933 89.5 79V70Z" stroke="#D3D4D5"/>
<rect x="95" y="73" width="32" height="3" rx="1.5" fill="#E7E7E8"/>
<path d="M197.641 76.3594L195.641 74.3594C195.5 74.2188 195.453 74 195.531 73.8125C195.609 73.625 195.797 73.5 196 73.5H200C200.203 73.5 200.375 73.625 200.453 73.8125C200.531 74 200.484 74.2188 200.344 74.3594L198.344 76.3594C198.156 76.5625 197.828 76.5625 197.641 76.3594Z" fill="#1D2025"/>
</svg>
