<svg width="250" height="141" viewBox="0 0 250 141" fill="none" xmlns="http://www.w3.org/2000/svg">
<rect x="66" y="58" width="28" height="3" rx="1.5" fill="#52555A"/>
<path d="M66.5 70C66.5 68.067 68.067 66.5 70 66.5H180C181.933 66.5 183.5 68.067 183.5 70V79C183.5 80.933 181.933 82.5 180 82.5H70C68.067 82.5 66.5 80.933 66.5 79V70Z" stroke="#33373D"/>
<rect x="72" y="73" width="32" height="3" rx="1.5" fill="#33373D"/>
<path d="M174.641 76.3594L172.641 74.3594C172.5 74.2188 172.453 74 172.531 73.8125C172.609 73.625 172.797 73.5 173 73.5H177C177.203 73.5 177.375 73.625 177.453 73.8125C177.531 74 177.484 74.2188 177.344 74.3594L175.344 76.3594C175.156 76.5625 174.828 76.5625 174.641 76.3594Z" fill="#33373D"/>
</svg>
