<svg width="296" height="141" viewBox="0 0 296 141" fill="none" xmlns="http://www.w3.org/2000/svg">
<g clip-path="url(#clip0_78_6431)">
<path d="M87 44C87 40.6863 89.6863 38 93 38H203C206.314 38 209 40.6863 209 44V97C209 100.314 206.314 103 203 103H93C89.6863 103 87 100.314 87 97V44Z" fill="white"/>
<mask id="path-3-inside-1_78_6431" fill="white">
<path d="M87 38H209V50H87V38Z"/>
</mask>
<path d="M87 38H209V50H87V38Z" fill="#F9FAFA"/>
<path d="M209 49H87V51H209V49Z" fill="#E7E7E8" mask="url(#path-3-inside-1_78_6431)"/>
<rect x="93" y="42" width="4" height="4" rx="2" fill="#E53E3E"/>
<rect x="100" y="42" width="4" height="4" rx="2" fill="#FBC434"/>
<rect x="107" y="42" width="4" height="4" rx="2" fill="#0EA371"/>
<rect x="97" y="60" width="29" height="3" rx="1.5" fill="#ABADAF"/>
<rect x="108" y="66" width="18" height="3" rx="1.5" fill="#D3D4D5"/>
<rect x="136" y="60" width="10" height="3" rx="1.5" fill="#8952E0"/>
<path d="M136.5 67C136.5 66.1716 137.172 65.5 138 65.5H163.5C164.328 65.5 165 66.1716 165 67V72C165 72.8284 164.328 73.5 163.5 73.5H138C137.172 73.5 136.5 72.8284 136.5 72V67Z" fill="white"/>
<path d="M136.5 67C136.5 66.1716 137.172 65.5 138 65.5H163.5C164.328 65.5 165 66.1716 165 67V72C165 72.8284 164.328 73.5 163.5 73.5H138C137.172 73.5 136.5 72.8284 136.5 72V67Z" stroke="#8952E0"/>
<rect x="169.5" y="60" width="10" height="3" rx="1.5" fill="#D3D4D5"/>
<path d="M170 67C170 66.1716 170.672 65.5 171.5 65.5H197C197.828 65.5 198.5 66.1716 198.5 67V72C198.5 72.8284 197.828 73.5 197 73.5H171.5C170.672 73.5 170 72.8284 170 72V67Z" fill="white"/>
<path d="M170 67C170 66.1716 170.672 65.5 171.5 65.5H197C197.828 65.5 198.5 66.1716 198.5 67V72C198.5 72.8284 197.828 73.5 197 73.5H171.5C170.672 73.5 170 72.8284 170 72V67Z" stroke="#E7E7E8"/>
<rect x="136" y="78" width="10" height="3" rx="1.5" fill="#D3D4D5"/>
<path d="M136.5 85C136.5 84.1716 137.172 83.5 138 83.5H197C197.828 83.5 198.5 84.1716 198.5 85V90C198.5 90.8284 197.828 91.5 197 91.5H138C137.172 91.5 136.5 90.8284 136.5 90V85Z" fill="white"/>
<path d="M136.5 85C136.5 84.1716 137.172 83.5 138 83.5H197C197.828 83.5 198.5 84.1716 198.5 85V90C198.5 90.8284 197.828 91.5 197 91.5H138C137.172 91.5 136.5 90.8284 136.5 90V85Z" stroke="#E7E7E8"/>
</g>
<path d="M87.5 44C87.5 40.9624 89.9624 38.5 93 38.5H203C206.038 38.5 208.5 40.9624 208.5 44V97C208.5 100.038 206.038 102.5 203 102.5H93C89.9624 102.5 87.5 100.038 87.5 97V44Z" stroke="#D3D4D5"/>
<defs>
<clipPath id="clip0_78_6431">
<path d="M87 44C87 40.6863 89.6863 38 93 38H203C206.314 38 209 40.6863 209 44V97C209 100.314 206.314 103 203 103H93C89.6863 103 87 100.314 87 97V44Z" fill="white"/>
</clipPath>
</defs>
</svg>
