<svg width="296" height="151" viewBox="0 0 296 151" fill="none" xmlns="http://www.w3.org/2000/svg">
<g clip-path="url(#clip0_227_12810)">
<path d="M64.5 47C64.5 43.9624 66.9624 41.5 70 41.5H226C229.038 41.5 231.5 43.9624 231.5 47V184C231.5 187.038 229.038 189.5 226 189.5H70C66.9624 189.5 64.5 187.038 64.5 184V47Z" fill="white" fill-opacity="0.04"/>
<path d="M64.5 47C64.5 43.9624 66.9624 41.5 70 41.5H226C229.038 41.5 231.5 43.9624 231.5 47V184C231.5 187.038 229.038 189.5 226 189.5H70C66.9624 189.5 64.5 187.038 64.5 184V47Z" stroke="#33373D"/>
<mask id="path-2-inside-1_227_12810" fill="white">
<path d="M65 46C65 43.2386 67.2386 41 70 41H226C228.761 41 231 43.2386 231 46V53H65V46Z"/>
</mask>
<path d="M65 41H231H65ZM231 54H65V52H231V54ZM65 53V41V53ZM231 41V53V41Z" fill="#33373D" mask="url(#path-2-inside-1_227_12810)"/>
<rect x="71" y="45" width="4" height="4" rx="2" fill="#E53E3E"/>
<rect x="78" y="45" width="4" height="4" rx="2" fill="#FBC434"/>
<rect x="85" y="45" width="4" height="4" rx="2" fill="#0EA371"/>
<mask id="path-7-inside-2_227_12810" fill="white">
<path d="M65 53H231V68H65V53Z"/>
</mask>
<path d="M65 53H231V68H65V53Z" fill="#1D2025"/>
<path d="M231 67H65V69H231V67Z" fill="#33373D" mask="url(#path-7-inside-2_227_12810)"/>
<rect x="74" y="57" width="7" height="7" rx="3.5" fill="#52555A"/>
<rect x="87" y="59" width="17" height="3" rx="1.5" fill="#52555A"/>
<rect x="110" y="59" width="17" height="3" rx="1.5" fill="#52555A"/>
<rect x="133" y="59" width="17" height="3" rx="1.5" fill="#52555A"/>
<path d="M155 75C155 73.3431 156.343 72 158 72H223C224.657 72 226 73.3431 226 75V87C226 88.6569 224.657 90 223 90H158C156.343 90 155 88.6569 155 87V75Z" fill="#8952E0"/>
<path d="M166 78.75C166 80.4141 164.652 81.75 163 81.75C161.336 81.75 160 80.4141 160 78.75C160 77.0977 161.336 75.75 163 75.75C164.652 75.75 166 77.0977 166 78.75Z" fill="#A379E7"/>
<rect x="169" y="77" width="32" height="3" rx="1.5" fill="#A379E7"/>
<rect x="169" y="82" width="20" height="3" rx="1.5" fill="#B795EC"/>
<rect x="212" y="77" width="9" height="3" rx="1.5" fill="#B795EC"/>
</g>
<defs>
<clipPath id="clip0_227_12810">
<rect width="296" height="151" fill="white"/>
</clipPath>
</defs>
</svg>
