<svg width="296" height="141" viewBox="0 0 296 141" fill="none" xmlns="http://www.w3.org/2000/svg">
<path d="M55.5 51C55.5 47.9624 57.9624 45.5 61 45.5H139C142.038 45.5 144.5 47.9624 144.5 51V90C144.5 93.0376 142.038 95.5 139 95.5H61C57.9624 95.5 55.5 93.0376 55.5 90V51Z" fill="#1D2025"/>
<path d="M55.5 51C55.5 47.9624 57.9624 45.5 61 45.5H139C142.038 45.5 144.5 47.9624 144.5 51V90C144.5 93.0376 142.038 95.5 139 95.5H61C57.9624 95.5 55.5 93.0376 55.5 90V51Z" stroke="#33373D"/>
<rect x="63" y="53" width="10" height="3" rx="1.5" fill="#52555A"/>
<rect x="131" y="53" width="6" height="3" rx="1.5" fill="#E53E3E"/>
<path d="M63 61.5C63 60.1193 64.1193 59 65.5 59H83.5C84.8807 59 86 60.1193 86 61.5C86 62.8807 84.8807 64 83.5 64H65.5C64.1193 64 63 62.8807 63 61.5Z" fill="#33373D"/>
<path d="M63 69.4615L71.9396 79.6923L80.8792 82H81.5392L91.3087 74.3333L97.4253 82H111.174L118.128 68L126.074 71.8974L137 69.4615V82H111.174L108.691 87L100.248 85.5385L97.4253 82H81.5392L81.3758 82.1282L80.8792 82H63V69.4615Z" fill="white" fill-opacity="0.08"/>
<path d="M63 69.4615L71.9396 79.6923L81.3758 82.1282L91.3087 74.3333L100.248 85.5385L108.691 87L118.128 68L126.074 71.8974L137 69.4615" stroke="#A379E7"/>
<path d="M151.5 51C151.5 47.9624 153.962 45.5 157 45.5H235C238.038 45.5 240.5 47.9624 240.5 51V90C240.5 93.0376 238.038 95.5 235 95.5H157C153.962 95.5 151.5 93.0376 151.5 90V51Z" fill="#1D2025"/>
<path d="M151.5 51C151.5 47.9624 153.962 45.5 157 45.5H235C238.038 45.5 240.5 47.9624 240.5 51V90C240.5 93.0376 238.038 95.5 235 95.5H157C153.962 95.5 151.5 93.0376 151.5 90V51Z" stroke="#33373D"/>
<rect x="159" y="53" width="10" height="3" rx="1.5" fill="#52555A"/>
<rect x="227" y="53" width="6" height="3" rx="1.5" fill="#0EA371"/>
<path d="M159 61.5C159 60.1193 160.119 59 161.5 59H179.5C180.881 59 182 60.1193 182 61.5C182 62.8807 180.881 64 179.5 64H161.5C160.119 64 159 62.8807 159 61.5Z" fill="#33373D"/>
<path d="M159 86.5L163.5 87.5L169.5 81.5L175 78H184L186.5 80.5L190 79.5L194 81.5H199L200.5 79.5L207.5 83.5L219 75L222.5 76.5L233 70" stroke="#A379E7"/>
<rect x="170" y="77" width="5" height="5" rx="2.5" fill="#A379E7" stroke="#1D2025" stroke-width="2"/>
<rect x="216" y="74" width="5" height="5" rx="2.5" fill="#A379E7" stroke="#1D2025" stroke-width="2"/>
</svg>
