<svg width="296" height="141" viewBox="0 0 296 141" fill="none" xmlns="http://www.w3.org/2000/svg">
<path d="M64 70.375C64 66.2441 67.3398 62.875 71.5 62.875C75.6309 62.875 79 66.2441 79 70.375C79 74.5352 75.6309 77.875 71.5 77.875C67.3398 77.875 64 74.5352 64 70.375ZM74.8691 69.0859C75.1914 68.7637 75.1914 68.2656 74.8691 67.9434C74.5469 67.6211 74.0488 67.6211 73.7266 67.9434L70.5625 71.1074L69.2441 69.8184C68.9219 69.4961 68.4238 69.4961 68.1016 69.8184C67.7793 70.1406 67.7793 70.6387 68.1016 70.9609L69.9766 72.8359C70.2988 73.1582 70.7969 73.1582 71.1191 72.8359L74.8691 69.0859Z" fill="#8952E0"/>
<path fill-rule="evenodd" clip-rule="evenodd" d="M85 70.5C85 69.1193 86.0063 68 87.2477 68H131.752C132.994 68 134 69.1193 134 70.5C134 71.8807 132.994 73 131.752 73H87.2477C86.0063 73 85 71.8807 85 70.5Z" fill="#8952E0"/>
<path d="M140 70.375C140 66.2441 143.34 62.875 147.5 62.875C151.631 62.875 155 66.2441 155 70.375C155 74.5352 151.631 77.875 147.5 77.875C143.34 77.875 140 74.5352 140 70.375ZM147.5 73.1875C149.053 73.1875 150.312 71.9277 150.312 70.375C150.312 68.8223 149.053 67.5625 147.5 67.5625C145.918 67.5625 144.688 68.8223 144.688 70.375C144.688 71.9277 145.918 73.1875 147.5 73.1875Z" fill="#8952E0"/>
<path fill-rule="evenodd" clip-rule="evenodd" d="M161 70.5C161 69.1193 162.027 68 163.294 68H208.706C209.973 68 211 69.1193 211 70.5C211 71.8807 209.973 73 208.706 73H163.294C162.027 73 161 71.8807 161 70.5Z" fill="#33373D"/>
<path d="M232 70.375C232 74.5352 228.631 77.875 224.5 77.875C220.34 77.875 217 74.5352 217 70.375C217 66.2441 220.34 62.875 224.5 62.875C228.631 62.875 232 66.2441 232 70.375Z" fill="#33373D"/>
</svg>
