<svg width="296" height="141" viewBox="0 0 296 141" fill="none" xmlns="http://www.w3.org/2000/svg">
<rect x="90.5" y="33.5" width="115" height="74" rx="5.5" fill="white"/>
<rect x="90.5" y="33.5" width="115" height="74" rx="5.5" stroke="#D3D4D5"/>
<rect x="98" y="41" width="36" height="3" rx="1.5" fill="#ABADAF"/>
<rect width="114" height="26" transform="translate(91 52)" fill="#F1F1F2"/>
<rect x="99" y="56" width="18" height="18" rx="9" fill="#E7E7E8"/>
<path d="M108 65C106.891 65 106 64.1094 106 63C106 61.9062 106.891 61 108 61C109.094 61 110 61.9062 110 63C110 64.1094 109.094 65 108 65ZM108.781 65.75C110.281 65.75 111.5 66.9688 111.5 68.4688C111.5 68.7656 111.25 69 110.953 69H105.031C104.734 69 104.5 68.7656 104.5 68.4688C104.5 66.9688 105.703 65.75 107.203 65.75H108.781Z" fill="#ABADAF"/>
<rect x="121" y="60" width="55" height="3" rx="1.5" fill="#ABADAF"/>
<rect x="121" y="67" width="32" height="3" rx="1.5" fill="#D3D4D5"/>
<path d="M196 61.5C196.547 61.5 197 61.9531 197 62.5V67.5C197 68.0625 196.547 68.5 196 68.5H191C190.438 68.5 190 68.0625 190 67.5V62.5C190 61.9531 190.438 61.5 191 61.5H196ZM195.297 64.3125C195.469 64.1406 195.469 63.875 195.297 63.7031C195.125 63.5312 194.859 63.5312 194.688 63.7031L193 65.3906L192.297 64.7031C192.125 64.5312 191.859 64.5312 191.688 64.7031C191.516 64.875 191.516 65.1406 191.688 65.3125L192.688 66.3125C192.859 66.4844 193.125 66.4844 193.297 66.3125L195.297 64.3125Z" fill="#8952E0"/>
<rect x="99" y="82" width="18" height="18" rx="9" fill="#E7E7E8"/>
<path d="M108 91C106.891 91 106 90.1094 106 89C106 87.9062 106.891 87 108 87C109.094 87 110 87.9062 110 89C110 90.1094 109.094 91 108 91ZM108.781 91.75C110.281 91.75 111.5 92.9688 111.5 94.4688C111.5 94.7656 111.25 95 110.953 95H105.031C104.734 95 104.5 94.7656 104.5 94.4688C104.5 92.9688 105.703 91.75 107.203 91.75H108.781Z" fill="#ABADAF"/>
<rect x="121" y="86" width="55" height="3" rx="1.5" fill="#ABADAF"/>
<rect x="121" y="93" width="32" height="3" rx="1.5" fill="#D3D4D5"/>
<path d="M190 88.5C190 87.9531 190.438 87.5 191 87.5H196C196.547 87.5 197 87.9531 197 88.5V93.5C197 94.0625 196.547 94.5 196 94.5H191C190.438 94.5 190 94.0625 190 93.5V88.5Z" fill="#D3D4D5"/>
</svg>
