<svg width="296" height="141" viewBox="0 0 296 141" fill="none" xmlns="http://www.w3.org/2000/svg">
<path d="M106 34.5H190C193.038 34.5 195.5 36.9624 195.5 40V101C195.5 104.038 193.038 106.5 190 106.5H106C102.962 106.5 100.5 104.038 100.5 101V40C100.5 36.9624 102.962 34.5 106 34.5Z" fill="white"/>
<path d="M106 34.5H190C193.038 34.5 195.5 36.9624 195.5 40V101C195.5 104.038 193.038 106.5 190 106.5H106C102.962 106.5 100.5 104.038 100.5 101V40C100.5 36.9624 102.962 34.5 106 34.5Z" stroke="#D3D4D5"/>
<rect x="108" y="44" width="9" height="9" rx="4.5" fill="#ABADAF"/>
<rect x="112" y="55.5" width="1" height="8" rx="0.5" fill="#E7E7E8"/>
<rect x="122" y="43.5" width="33" height="3" rx="1.5" fill="#D3D4D5"/>
<rect x="122" y="50.5" width="16" height="3" rx="1.5" fill="#E7E7E8"/>
<rect x="108" y="66" width="9" height="9" rx="4.5" fill="#ABADAF"/>
<rect x="112" y="77.5" width="1" height="8" rx="0.5" fill="#E7E7E8"/>
<rect x="122" y="65.5" width="33" height="3" rx="1.5" fill="#D3D4D5"/>
<rect x="122" y="72.5" width="16" height="3" rx="1.5" fill="#E7E7E8"/>
<rect x="108" y="88" width="9" height="9" rx="4.5" fill="#ABADAF"/>
<rect x="122" y="87.5" width="33" height="3" rx="1.5" fill="#D3D4D5"/>
<rect x="122" y="94.5" width="16" height="3" rx="1.5" fill="#E7E7E8"/>
</svg>
