<svg width="296" height="141" viewBox="0 0 296 141" fill="none" xmlns="http://www.w3.org/2000/svg">
<path d="M110 61C110 57.9624 112.462 55.5 115.5 55.5H180.5C183.538 55.5 186 57.9624 186 61V80C186 83.0376 183.538 85.5 180.5 85.5H115.5C112.462 85.5 110 83.0376 110 80V61Z" fill="white"/>
<path d="M110 61C110 57.9624 112.462 55.5 115.5 55.5H180.5C183.538 55.5 186 57.9624 186 61V80C186 83.0376 183.538 85.5 180.5 85.5H115.5C112.462 85.5 110 83.0376 110 80V61Z" stroke="#D3D4D5"/>
<rect x="116.5" y="62" width="17" height="17" rx="4" fill="#E5DAF8"/>
<path d="M121.625 67.25C121.625 66.9512 121.871 66.6875 122.188 66.6875H123.031H123.312H125.562C126.793 66.6875 127.812 67.707 127.812 68.9375C127.812 69.5 127.602 70.0098 127.285 70.3965C127.936 70.7832 128.375 71.5039 128.375 72.3125C128.375 73.5605 127.355 74.5625 126.125 74.5625H123.312H123.031H122.188C121.871 74.5625 121.625 74.3164 121.625 74C121.625 73.7012 121.871 73.4375 122.188 73.4375H122.469V70.625V67.8125H122.188C121.871 67.8125 121.625 67.5664 121.625 67.25ZM125.562 70.0625C126.178 70.0625 126.688 69.5703 126.688 68.9375C126.688 68.3223 126.178 67.8125 125.562 67.8125H123.594V70.0625H125.562ZM123.594 71.1875V73.4375H126.125C126.74 73.4375 127.25 72.9453 127.25 72.3125C127.25 71.6973 126.74 71.1875 126.125 71.1875H125.562H123.594Z" fill="#8952E0"/>
<path d="M146.875 67.25C146.875 66.9512 147.121 66.6875 147.438 66.6875H150.812C151.111 66.6875 151.375 66.9512 151.375 67.25C151.375 67.5664 151.111 67.8125 150.812 67.8125H149.775L147.438 73.4375H148.562C148.861 73.4375 149.125 73.7012 149.125 74C149.125 74.3164 148.861 74.5625 148.562 74.5625H145.188C144.871 74.5625 144.625 74.3164 144.625 74C144.625 73.7012 144.871 73.4375 145.188 73.4375H146.207L148.562 67.8125H147.438C147.121 67.8125 146.875 67.5664 146.875 67.25Z" fill="#7D7F83"/>
<path d="M167.344 67.25C167.344 66.9512 167.59 66.6875 167.906 66.6875H169.594C169.893 66.6875 170.156 66.9512 170.156 67.25C170.156 67.5664 169.893 67.8125 169.594 67.8125H169.312V70.0625C169.312 70.9941 170.068 71.75 171 71.75C171.932 71.75 172.688 70.9941 172.688 70.0625V67.8125H172.406C172.09 67.8125 171.844 67.5664 171.844 67.25C171.844 66.9512 172.09 66.6875 172.406 66.6875H174.094C174.393 66.6875 174.656 66.9512 174.656 67.25C174.656 67.5664 174.393 67.8125 174.094 67.8125H173.812V70.0625C173.812 71.627 172.547 72.875 171 72.875C169.436 72.875 168.188 71.627 168.188 70.0625V67.8125H167.906C167.59 67.8125 167.344 67.5664 167.344 67.25ZM167.062 74C167.062 73.7012 167.309 73.4375 167.625 73.4375H174.375C174.674 73.4375 174.938 73.7012 174.938 74C174.938 74.3164 174.674 74.5625 174.375 74.5625H167.625C167.309 74.5625 167.062 74.3164 167.062 74Z" fill="#7D7F83"/>
</svg>
