<svg width="296" height="141" viewBox="0 0 296 141" fill="none" xmlns="http://www.w3.org/2000/svg">
<path d="M109.5 61C109.5 57.9624 111.962 55.5 115 55.5H181C184.038 55.5 186.5 57.9624 186.5 61V80C186.5 83.0376 184.038 85.5 181 85.5H115C111.962 85.5 109.5 83.0376 109.5 80V61Z" fill="#1D2025"/>
<path d="M109.5 61C109.5 57.9624 111.962 55.5 115 55.5H181C184.038 55.5 186.5 57.9624 186.5 61V80C186.5 83.0376 184.038 85.5 181 85.5H115C111.962 85.5 109.5 83.0376 109.5 80V61Z" stroke="#33373D"/>
<rect x="116" y="62" width="17" height="17" rx="3" fill="#3B1676"/>
<path d="M126.768 70.3965C127.418 70.7832 127.875 71.5039 127.875 72.3301C127.875 73.5605 126.855 74.5801 125.625 74.5801H121.688C121.371 74.5801 121.125 74.3164 121.125 74.0176C121.125 73.7012 121.371 73.4551 121.688 73.4551H121.969V67.8301H121.688C121.371 67.8301 121.125 67.5664 121.125 67.2676C121.125 66.9512 121.371 66.7051 121.688 66.7051L125.062 66.6875C126.293 66.6875 127.312 67.707 127.312 68.9375C127.312 69.5 127.102 70.0098 126.768 70.3965ZM123.094 67.8301V70.0801H125.062C125.678 70.0801 126.188 69.5703 126.188 68.9551C126.188 68.3223 125.678 67.8301 125.062 67.8301H123.094ZM125.625 73.4375C126.24 73.4375 126.75 72.9102 126.75 72.3125C126.75 71.6973 126.24 71.1875 125.625 71.1875H123.094V73.4375H125.625Z" fill="#8952E0"/>
<path d="M150.875 67.2676C150.875 67.5664 150.611 67.8301 150.312 67.8301H149.275L146.938 73.4551H148.062C148.361 73.4551 148.625 73.7012 148.625 74.0176C148.625 74.3164 148.361 74.5801 148.062 74.5801H144.688C144.371 74.5801 144.125 74.3164 144.125 74.0176C144.125 73.7012 144.371 73.4551 144.688 73.4551H145.707L148.045 67.8301H146.938C146.621 67.8301 146.375 67.5664 146.375 67.2676C146.375 66.9512 146.621 66.7051 146.938 66.7051H150.312C150.611 66.7051 150.875 66.9512 150.875 67.2676Z" fill="#52555A"/>
<path d="M173.875 74C174.174 74 174.438 74.2637 174.438 74.5625C174.438 74.8789 174.174 75.125 173.875 75.125H167.125C166.809 75.125 166.562 74.8789 166.562 74.5625C166.562 74.2637 166.809 74 167.125 74H173.875ZM167.406 67.2676C167.09 67.2676 166.844 66.9688 166.844 66.6875C166.844 66.3887 167.09 66.1426 167.406 66.1426L169.094 66.125C169.393 66.125 169.656 66.3887 169.656 66.6875C169.656 67.0039 169.393 67.25 169.094 67.25H168.812V70.0625C168.812 70.9941 169.568 71.7676 170.5 71.7676C171.414 71.7676 172.188 71.0117 172.188 70.0801V67.2676H171.906C171.59 67.2676 171.344 67.0215 171.344 66.7051C171.344 66.4062 171.59 66.1426 171.906 66.1426H173.594C173.893 66.1426 174.156 66.3887 174.156 66.7051C174.156 67.0039 173.893 67.2676 173.594 67.2676H173.312V70.0801C173.312 71.6094 172.047 72.875 170.5 72.875C168.936 72.875 167.688 71.627 167.688 70.0801V67.2676H167.406Z" fill="#52555A"/>
</svg>
