<svg width="296" height="141" viewBox="0 0 296 141" fill="none" xmlns="http://www.w3.org/2000/svg">
<path d="M134.5 51C134.5 50.1716 135.172 49.5 136 49.5H160C160.828 49.5 161.5 50.1716 161.5 51V58C161.5 58.8284 160.828 59.5 160 59.5H136C135.172 59.5 134.5 58.8284 134.5 58V51Z" fill="white"/>
<path d="M134.5 51C134.5 50.1716 135.172 49.5 136 49.5H160C160.828 49.5 161.5 50.1716 161.5 51V58C161.5 58.8284 160.828 59.5 160 59.5H136C135.172 59.5 134.5 58.8284 134.5 58V51Z" stroke="#8952E0"/>
<rect x="138" y="53" width="20" height="3" rx="1.5" fill="#ABADAF"/>
<path d="M147.624 63.43C147.823 63.2024 148.177 63.2024 148.376 63.43L151.5 67H144.5L147.624 63.43Z" fill="#8952E0"/>
<path d="M112 70C112 68.3431 113.343 67 115 67H181C182.657 67 184 68.3431 184 70V89C184 90.6569 182.657 92 181 92H115C113.343 92 112 90.6569 112 89V70Z" fill="#8952E0"/>
<rect x="118" y="73" width="32" height="3" rx="1.5" fill="#A379E7"/>
<rect x="118" y="78" width="20" height="3" rx="1.5" fill="#B795EC"/>
<rect x="118" y="84" width="11" height="3" rx="1.5" fill="#A379E7"/>
<rect x="153" y="84" width="11" height="3" rx="1.5" fill="#B795EC"/>
<rect x="167" y="84" width="11" height="3" rx="1.5" fill="#A379E7"/>
<path d="M177.051 72.4395L175.615 73.875L177.051 75.3242C177.229 75.4883 177.229 75.7754 177.051 75.9395C176.887 76.1172 176.6 76.1172 176.436 75.9395L175 74.5039L173.551 75.9395C173.387 76.1172 173.1 76.1172 172.936 75.9395C172.758 75.7754 172.758 75.4883 172.936 75.3242L174.371 73.875L172.936 72.4395C172.758 72.2754 172.758 71.9883 172.936 71.8242C173.1 71.6465 173.387 71.6465 173.551 71.8242L175 73.2598L176.436 71.8242C176.6 71.6465 176.887 71.6465 177.051 71.8242C177.229 71.9883 177.229 72.2754 177.051 72.4395Z" fill="#B795EC"/>
</svg>
