<svg width="296" height="141" viewBox="0 0 296 141" fill="none" xmlns="http://www.w3.org/2000/svg">
<path d="M106.5 66C106.5 62.9624 108.962 60.5 112 60.5H184C187.038 60.5 189.5 62.9624 189.5 66V75C189.5 78.0376 187.038 80.5 184 80.5H112C108.962 80.5 106.5 78.0376 106.5 75V66Z" fill="#1D2025"/>
<path d="M106.5 66C106.5 62.9624 108.962 60.5 112 60.5H184C187.038 60.5 189.5 62.9624 189.5 66V75C189.5 78.0376 187.038 80.5 184 80.5H112C108.962 80.5 106.5 78.0376 106.5 75V66Z" stroke="#33373D"/>
<rect x="115" y="69" width="29" height="3" rx="1.5" fill="#8952E0"/>
<path d="M149.044 73.0341C148.938 73.0341 148.848 72.9964 148.773 72.9212C148.698 72.8459 148.66 72.7557 148.66 72.6506C148.66 72.5455 148.698 72.4553 148.773 72.38C148.848 72.3047 148.938 72.267 149.044 72.267C149.149 72.267 149.239 72.3047 149.314 72.38C149.389 72.4553 149.427 72.5455 149.427 72.6506C149.427 72.7202 149.409 72.7841 149.374 72.8423C149.34 72.9006 149.294 72.9474 149.235 72.983C149.178 73.017 149.115 73.0341 149.044 73.0341ZM150.696 73.0341C150.591 73.0341 150.501 72.9964 150.425 72.9212C150.35 72.8459 150.312 72.7557 150.312 72.6506C150.312 72.5455 150.35 72.4553 150.425 72.38C150.501 72.3047 150.591 72.267 150.696 72.267C150.801 72.267 150.891 72.3047 150.966 72.38C151.042 72.4553 151.079 72.5455 151.079 72.6506C151.079 72.7202 151.062 72.7841 151.026 72.8423C150.992 72.9006 150.946 72.9474 150.888 72.983C150.831 73.017 150.767 73.0341 150.696 73.0341ZM152.348 73.0341C152.243 73.0341 152.153 72.9964 152.078 72.9212C152.002 72.8459 151.965 72.7557 151.965 72.6506C151.965 72.5455 152.002 72.4553 152.078 72.38C152.153 72.3047 152.243 72.267 152.348 72.267C152.453 72.267 152.544 72.3047 152.619 72.38C152.694 72.4553 152.732 72.5455 152.732 72.6506C152.732 72.7202 152.714 72.7841 152.678 72.8423C152.644 72.9006 152.598 72.9474 152.54 72.983C152.483 73.017 152.419 73.0341 152.348 73.0341ZM154.001 73.0341C153.895 73.0341 153.805 72.9964 153.73 72.9212C153.655 72.8459 153.617 72.7557 153.617 72.6506C153.617 72.5455 153.655 72.4553 153.73 72.38C153.805 72.3047 153.895 72.267 154.001 72.267C154.106 72.267 154.196 72.3047 154.271 72.38C154.346 72.4553 154.384 72.5455 154.384 72.6506C154.384 72.7202 154.366 72.7841 154.331 72.8423C154.297 72.9006 154.251 72.9474 154.192 72.983C154.135 73.017 154.072 73.0341 154.001 73.0341ZM155.653 73.0341C155.548 73.0341 155.458 72.9964 155.382 72.9212C155.307 72.8459 155.269 72.7557 155.269 72.6506C155.269 72.5455 155.307 72.4553 155.382 72.38C155.458 72.3047 155.548 72.267 155.653 72.267C155.758 72.267 155.848 72.3047 155.923 72.38C155.999 72.4553 156.036 72.5455 156.036 72.6506C156.036 72.7202 156.019 72.7841 155.983 72.8423C155.949 72.9006 155.903 72.9474 155.845 72.983C155.788 73.017 155.724 73.0341 155.653 73.0341ZM157.305 73.0341C157.2 73.0341 157.11 72.9964 157.035 72.9212C156.959 72.8459 156.922 72.7557 156.922 72.6506C156.922 72.5455 156.959 72.4553 157.035 72.38C157.11 72.3047 157.2 72.267 157.305 72.267C157.41 72.267 157.501 72.3047 157.576 72.38C157.651 72.4553 157.689 72.5455 157.689 72.6506C157.689 72.7202 157.671 72.7841 157.635 72.8423C157.601 72.9006 157.555 72.9474 157.497 72.983C157.44 73.017 157.376 73.0341 157.305 73.0341ZM158.958 73.0341C158.852 73.0341 158.762 72.9964 158.687 72.9212C158.612 72.8459 158.574 72.7557 158.574 72.6506C158.574 72.5455 158.612 72.4553 158.687 72.38C158.762 72.3047 158.852 72.267 158.958 72.267C159.063 72.267 159.153 72.3047 159.228 72.38C159.303 72.4553 159.341 72.5455 159.341 72.6506C159.341 72.7202 159.323 72.7841 159.288 72.8423C159.254 72.9006 159.208 72.9474 159.149 72.983C159.093 73.017 159.029 73.0341 158.958 73.0341Z" fill="#8952E0"/>
<rect x="164" y="69" width="16" height="3" rx="1.5" fill="#8952E0"/>
</svg>
