<svg width="250" height="141" viewBox="0 0 250 141" fill="none" xmlns="http://www.w3.org/2000/svg">
<path d="M72 42H116C119.038 42 121.5 44.4624 121.5 47.5V61.5C121.5 64.5376 119.038 67 116 67H72C68.9624 67 66.5 64.5376 66.5 61.5V47.5C66.5 44.4624 68.9624 42 72 42Z" fill="white"/>
<path d="M72 42H116C119.038 42 121.5 44.4624 121.5 47.5V61.5C121.5 64.5376 119.038 67 116 67H72C68.9624 67 66.5 64.5376 66.5 61.5V47.5C66.5 44.4624 68.9624 42 72 42Z" stroke="#D3D4D5"/>
<rect x="74" y="50" width="9" height="9" rx="4.5" fill="#ABADAF"/>
<rect x="88" y="49.5" width="14" height="3" rx="1.5" fill="#ABADAF"/>
<rect x="88" y="56.5" width="22" height="3" rx="1.5" fill="#D3D4D5"/>
<path d="M134 42H178C181.038 42 183.5 44.4624 183.5 47.5V61.5C183.5 64.5376 181.038 67 178 67H134C130.962 67 128.5 64.5376 128.5 61.5V47.5C128.5 44.4624 130.962 42 134 42Z" fill="white"/>
<path d="M134 42H178C181.038 42 183.5 44.4624 183.5 47.5V61.5C183.5 64.5376 181.038 67 178 67H134C130.962 67 128.5 64.5376 128.5 61.5V47.5C128.5 44.4624 130.962 42 134 42Z" stroke="#D3D4D5"/>
<rect x="136" y="50" width="9" height="9" rx="4.5" fill="#ABADAF"/>
<rect x="150" y="49.5" width="14" height="3" rx="1.5" fill="#ABADAF"/>
<rect x="150" y="56.5" width="22" height="3" rx="1.5" fill="#D3D4D5"/>
<path d="M72 74H116C119.038 74 121.5 76.4624 121.5 79.5V93.5C121.5 96.5376 119.038 99 116 99H72C68.9624 99 66.5 96.5376 66.5 93.5V79.5C66.5 76.4624 68.9624 74 72 74Z" fill="white"/>
<path d="M72 74H116C119.038 74 121.5 76.4624 121.5 79.5V93.5C121.5 96.5376 119.038 99 116 99H72C68.9624 99 66.5 96.5376 66.5 93.5V79.5C66.5 76.4624 68.9624 74 72 74Z" stroke="#D3D4D5"/>
<rect x="74" y="82" width="9" height="9" rx="4.5" fill="#ABADAF"/>
<rect x="88" y="81.5" width="14" height="3" rx="1.5" fill="#ABADAF"/>
<rect x="88" y="88.5" width="22" height="3" rx="1.5" fill="#D3D4D5"/>
<path d="M134 74H178C181.038 74 183.5 76.4624 183.5 79.5V93.5C183.5 96.5376 181.038 99 178 99H134C130.962 99 128.5 96.5376 128.5 93.5V79.5C128.5 76.4624 130.962 74 134 74Z" fill="white"/>
<path d="M134 74H178C181.038 74 183.5 76.4624 183.5 79.5V93.5C183.5 96.5376 181.038 99 178 99H134C130.962 99 128.5 96.5376 128.5 93.5V79.5C128.5 76.4624 130.962 74 134 74Z" stroke="#D3D4D5"/>
<rect x="136" y="82" width="9" height="9" rx="4.5" fill="#ABADAF"/>
<rect x="150" y="81.5" width="14" height="3" rx="1.5" fill="#ABADAF"/>
<rect x="150" y="88.5" width="22" height="3" rx="1.5" fill="#D3D4D5"/>
</svg>
