<svg width="250" height="141" viewBox="0 0 250 141" fill="none" xmlns="http://www.w3.org/2000/svg">
<g clip-path="url(#clip0_4644_8742)">
<path d="M60 28.5C60 25.1863 62.6863 22.5 66 22.5H184C187.314 22.5 190 25.1863 190 28.5V112.5C190 115.814 187.314 118.5 184 118.5H66C62.6863 118.5 60 115.814 60 112.5V28.5Z" fill="white"/>
<mask id="path-3-inside-1_4644_8742" fill="white">
<path d="M60 22.5H190V34.5H60V22.5Z"/>
</mask>
<path d="M60 22.5H190V34.5H60V22.5Z" fill="#F9FAFA"/>
<path d="M190 33.5H60V35.5H190V33.5Z" fill="#E7E7E8" mask="url(#path-3-inside-1_4644_8742)"/>
<rect x="66" y="26.5" width="4" height="4" rx="2" fill="#E53E3E"/>
<rect x="73" y="26.5" width="4" height="4" rx="2" fill="#FBC434"/>
<rect x="80" y="26.5" width="4" height="4" rx="2" fill="#0EA371"/>
<path d="M94 49H120C120.828 49 121.5 49.6716 121.5 50.5V55.5C121.5 56.3284 120.828 57 120 57H94C93.1716 57 92.5 56.3284 92.5 55.5V50.5C92.5 49.6716 93.1716 49 94 49Z" fill="white"/>
<path d="M94 49H120C120.828 49 121.5 49.6716 121.5 50.5V55.5C121.5 56.3284 120.828 57 120 57H94C93.1716 57 92.5 56.3284 92.5 55.5V50.5C92.5 49.6716 93.1716 49 94 49Z" stroke="#8952E0"/>
<rect x="92" y="42.5" width="16" height="3" rx="1.5" fill="#8952E0"/>
<path d="M129 49H155C155.828 49 156.5 49.6716 156.5 50.5V55.5C156.5 56.3284 155.828 57 155 57H129C128.172 57 127.5 56.3284 127.5 55.5V50.5C127.5 49.6716 128.172 49 129 49Z" fill="white"/>
<path d="M129 49H155C155.828 49 156.5 49.6716 156.5 50.5V55.5C156.5 56.3284 155.828 57 155 57H129C128.172 57 127.5 56.3284 127.5 55.5V50.5C127.5 49.6716 128.172 49 129 49Z" stroke="#E7E7E8"/>
<rect x="127" y="42.5" width="16" height="3" rx="1.5" fill="#D3D4D5"/>
<path d="M94 67H155C155.828 67 156.5 67.6716 156.5 68.5V73.5C156.5 74.3284 155.828 75 155 75H94C93.1716 75 92.5 74.3284 92.5 73.5V68.5C92.5 67.6716 93.1716 67 94 67Z" fill="white"/>
<path d="M94 67H155C155.828 67 156.5 67.6716 156.5 68.5V73.5C156.5 74.3284 155.828 75 155 75H94C93.1716 75 92.5 74.3284 92.5 73.5V68.5C92.5 67.6716 93.1716 67 94 67Z" stroke="#E7E7E8"/>
<rect x="92" y="60.5" width="16" height="3" rx="1.5" fill="#D3D4D5"/>
<path d="M94 85H155C155.828 85 156.5 85.6716 156.5 86.5V91.5C156.5 92.3284 155.828 93 155 93H94C93.1716 93 92.5 92.3284 92.5 91.5V86.5C92.5 85.6716 93.1716 85 94 85Z" fill="white"/>
<path d="M94 85H155C155.828 85 156.5 85.6716 156.5 86.5V91.5C156.5 92.3284 155.828 93 155 93H94C93.1716 93 92.5 92.3284 92.5 91.5V86.5C92.5 85.6716 93.1716 85 94 85Z" stroke="#E7E7E8"/>
<rect x="92" y="78.5" width="16" height="3" rx="1.5" fill="#D3D4D5"/>
</g>
<path d="M66 23H184C187.038 23 189.5 25.4624 189.5 28.5V112.5C189.5 115.538 187.038 118 184 118H66C62.9624 118 60.5 115.538 60.5 112.5V28.5C60.5 25.4624 62.9624 23 66 23Z" stroke="#D3D4D5"/>
<defs>
<clipPath id="clip0_4644_8742">
<path d="M60 28.5C60 25.1863 62.6863 22.5 66 22.5H184C187.314 22.5 190 25.1863 190 28.5V112.5C190 115.814 187.314 118.5 184 118.5H66C62.6863 118.5 60 115.814 60 112.5V28.5Z" fill="white"/>
</clipPath>
</defs>
</svg>
