<svg width="250" height="141" viewBox="0 0 250 141" fill="none" xmlns="http://www.w3.org/2000/svg">
<path d="M72 54.5H116C119.038 54.5 121.5 56.9624 121.5 60V81C121.5 84.0376 119.038 86.5 116 86.5H72C68.9624 86.5 66.5 84.0376 66.5 81V60C66.5 56.9624 68.9624 54.5 72 54.5Z" fill="white"/>
<path d="M72 54.5H116C119.038 54.5 121.5 56.9624 121.5 60V81C121.5 84.0376 119.038 86.5 116 86.5H72C68.9624 86.5 66.5 84.0376 66.5 81V60C66.5 56.9624 68.9624 54.5 72 54.5Z" stroke="#D3D4D5"/>
<rect x="74" y="62" width="10" height="3" rx="1.5" fill="#D3D4D5"/>
<rect x="108" y="62" width="6" height="3" rx="1.5" fill="#E53E3E"/>
<path d="M74 70.5C74 69.1193 75.1193 68 76.5 68H88.5C89.8807 68 91 69.1193 91 70.5V70.5C91 71.8807 89.8807 73 88.5 73H76.5C75.1193 73 74 71.8807 74 70.5V70.5Z" fill="#ABADAF"/>
<rect x="74" y="76" width="28" height="3" rx="1.5" fill="#D3D4D5"/>
<path d="M134 54.5H178C181.038 54.5 183.5 56.9624 183.5 60V81C183.5 84.0376 181.038 86.5 178 86.5H134C130.962 86.5 128.5 84.0376 128.5 81V60C128.5 56.9624 130.962 54.5 134 54.5Z" fill="white"/>
<path d="M134 54.5H178C181.038 54.5 183.5 56.9624 183.5 60V81C183.5 84.0376 181.038 86.5 178 86.5H134C130.962 86.5 128.5 84.0376 128.5 81V60C128.5 56.9624 130.962 54.5 134 54.5Z" stroke="#D3D4D5"/>
<rect x="136" y="62" width="10" height="3" rx="1.5" fill="#D3D4D5"/>
<rect x="170" y="62" width="6" height="3" rx="1.5" fill="#0EA371"/>
<path d="M136 70.5C136 69.1193 137.119 68 138.5 68H150.5C151.881 68 153 69.1193 153 70.5V70.5C153 71.8807 151.881 73 150.5 73H138.5C137.119 73 136 71.8807 136 70.5V70.5Z" fill="#ABADAF"/>
<rect x="136" y="76" width="28" height="3" rx="1.5" fill="#D3D4D5"/>
</svg>
