<svg width="250" height="141" viewBox="0 0 250 141" fill="none" xmlns="http://www.w3.org/2000/svg">
<g clip-path="url(#clip0_5603_52682)">
<path d="M64.5 43C64.5 39.6863 67.1863 37 70.5 37H179.5C182.814 37 185.5 39.6863 185.5 43V98C185.5 101.314 182.814 104 179.5 104H70.5C67.1863 104 64.5 101.314 64.5 98V43Z" fill="white"/>
<mask id="path-3-inside-1_5603_52682" fill="white">
<path d="M64.5 37H185.5V49H64.5V37Z"/>
</mask>
<path d="M64.5 37H185.5V49H64.5V37Z" fill="#F9FAFA"/>
<path d="M185.5 48H64.5V50H185.5V48Z" fill="#E7E7E8" mask="url(#path-3-inside-1_5603_52682)"/>
<rect x="70.5" y="41" width="4" height="4" rx="2" fill="#E53E3E"/>
<rect x="77.5" y="41" width="4" height="4" rx="2" fill="#FBC434"/>
<rect x="84.5" y="41" width="4" height="4" rx="2" fill="#0EA371"/>
<rect x="74.5" y="59" width="29" height="3" rx="1.5" fill="#ABADAF"/>
<rect x="85.5" y="65" width="18" height="3" rx="1.5" fill="#D3D4D5"/>
<rect x="113.5" y="59" width="10" height="3" rx="1.5" fill="#8952E0"/>
<path d="M115.5 64.5H140.5C141.328 64.5 142 65.1716 142 66V71C142 71.8284 141.328 72.5 140.5 72.5H115.5C114.672 72.5 114 71.8284 114 71V66C114 65.1716 114.672 64.5 115.5 64.5Z" fill="white"/>
<path d="M115.5 64.5H140.5C141.328 64.5 142 65.1716 142 66V71C142 71.8284 141.328 72.5 140.5 72.5H115.5C114.672 72.5 114 71.8284 114 71V66C114 65.1716 114.672 64.5 115.5 64.5Z" stroke="#8952E0"/>
<rect x="146.5" y="59" width="10" height="3" rx="1.5" fill="#D3D4D5"/>
<path d="M148.5 64.5H173.5C174.328 64.5 175 65.1716 175 66V71C175 71.8284 174.328 72.5 173.5 72.5H148.5C147.672 72.5 147 71.8284 147 71V66C147 65.1716 147.672 64.5 148.5 64.5Z" fill="white"/>
<path d="M148.5 64.5H173.5C174.328 64.5 175 65.1716 175 66V71C175 71.8284 174.328 72.5 173.5 72.5H148.5C147.672 72.5 147 71.8284 147 71V66C147 65.1716 147.672 64.5 148.5 64.5Z" stroke="#E7E7E8"/>
<rect x="113.5" y="77" width="10" height="3" rx="1.5" fill="#D3D4D5"/>
<path d="M115.5 82.5H173.5C174.328 82.5 175 83.1716 175 84V89C175 89.8284 174.328 90.5 173.5 90.5H115.5C114.672 90.5 114 89.8284 114 89V84C114 83.1716 114.672 82.5 115.5 82.5Z" fill="white"/>
<path d="M115.5 82.5H173.5C174.328 82.5 175 83.1716 175 84V89C175 89.8284 174.328 90.5 173.5 90.5H115.5C114.672 90.5 114 89.8284 114 89V84C114 83.1716 114.672 82.5 115.5 82.5Z" stroke="#E7E7E8"/>
</g>
<path d="M70.5 37.5H179.5C182.538 37.5 185 39.9624 185 43V98C185 101.038 182.538 103.5 179.5 103.5H70.5C67.4624 103.5 65 101.038 65 98V43C65 39.9624 67.4624 37.5 70.5 37.5Z" stroke="#D3D4D5"/>
<defs>
<clipPath id="clip0_5603_52682">
<path d="M64.5 43C64.5 39.6863 67.1863 37 70.5 37H179.5C182.814 37 185.5 39.6863 185.5 43V98C185.5 101.314 182.814 104 179.5 104H70.5C67.1863 104 64.5 101.314 64.5 98V43Z" fill="white"/>
</clipPath>
</defs>
</svg>
