<svg width="250" height="141" viewBox="0 0 250 141" fill="none" xmlns="http://www.w3.org/2000/svg">
<g clip-path="url(#clip0_4704_11007)">
<path d="M50.5 46.5C50.5 43.1863 53.1863 40.5 56.5 40.5H193.5C196.814 40.5 199.5 43.1863 199.5 46.5V94.5C199.5 97.8137 196.814 100.5 193.5 100.5H56.5C53.1863 100.5 50.5 97.8137 50.5 94.5V46.5Z" fill="#1D2025"/>
<mask id="path-3-inside-1_4704_11007" fill="white">
<path d="M50.5 40.5H101.5V55.5H50.5V40.5Z"/>
</mask>
<path d="M50.5 40.5H101.5V55.5H50.5V40.5Z" fill="#33373D"/>
<path d="M101.5 54.5H50.5V56.5H101.5V54.5Z" fill="#33373D" mask="url(#path-3-inside-1_4704_11007)"/>
<rect x="54.5" y="46.5" width="20" height="3" rx="1.5" fill="#52555A"/>
<mask id="path-6-inside-2_4704_11007" fill="white">
<path d="M101.5 40.5H127.5V55.5H101.5V40.5Z"/>
</mask>
<path d="M101.5 40.5H127.5V55.5H101.5V40.5Z" fill="#33373D"/>
<path d="M127.5 54.5H101.5V56.5H127.5V54.5Z" fill="#33373D" mask="url(#path-6-inside-2_4704_11007)"/>
<rect x="105.5" y="46.5" width="18" height="3" rx="1.5" fill="#52555A"/>
<mask id="path-9-inside-3_4704_11007" fill="white">
<path d="M127.5 40.5H153.5V55.5H127.5V40.5Z"/>
</mask>
<path d="M127.5 40.5H153.5V55.5H127.5V40.5Z" fill="#33373D"/>
<path d="M153.5 54.5H127.5V56.5H153.5V54.5Z" fill="#33373D" mask="url(#path-9-inside-3_4704_11007)"/>
<rect x="131.5" y="46.5" width="18" height="3" rx="1.5" fill="#52555A"/>
<mask id="path-12-inside-4_4704_11007" fill="white">
<path d="M153.5 40.5H179.5V55.5H153.5V40.5Z"/>
</mask>
<path d="M153.5 40.5H179.5V55.5H153.5V40.5Z" fill="#33373D"/>
<path d="M179.5 54.5H153.5V56.5H179.5V54.5Z" fill="#33373D" mask="url(#path-12-inside-4_4704_11007)"/>
<rect x="157.5" y="46.5" width="18" height="3" rx="1.5" fill="#52555A"/>
<mask id="path-15-inside-5_4704_11007" fill="white">
<path d="M179.5 40.5H199.5V55.5H179.5V40.5Z"/>
</mask>
<path d="M179.5 40.5H199.5V55.5H179.5V40.5Z" fill="#33373D"/>
<path d="M199.5 54.5H179.5V56.5H199.5V54.5Z" fill="#33373D" mask="url(#path-15-inside-5_4704_11007)"/>
<rect x="183.5" y="46.5" width="12" height="3" rx="1.5" fill="#52555A"/>
<path d="M101.5 69.5H50.5V71.5H101.5V69.5Z" fill="#33373D" mask="url(#path-18-inside-6_4704_11007)"/>
<rect x="54.5" y="61.5" width="30" height="3" rx="1.5" fill="#52555A"/>
<path d="M127.5 69.5H101.5V71.5H127.5V69.5Z" fill="#33373D" mask="url(#path-21-inside-7_4704_11007)"/>
<rect x="105.5" y="61.5" width="14" height="3" rx="1.5" fill="#33373D"/>
<path d="M153.5 69.5H127.5V71.5H153.5V69.5Z" fill="#33373D" mask="url(#path-24-inside-8_4704_11007)"/>
<rect x="131.5" y="61.5" width="14" height="3" rx="1.5" fill="#33373D"/>
<path d="M179.5 69.5H153.5V71.5H179.5V69.5Z" fill="#33373D" mask="url(#path-27-inside-9_4704_11007)"/>
<rect x="157.5" y="61.5" width="14" height="3" rx="1.5" fill="#33373D"/>
<path d="M199.5 69.5H179.5V71.5H199.5V69.5Z" fill="#33373D" mask="url(#path-30-inside-10_4704_11007)"/>
<rect x="188.5" y="61.5" width="7" height="3" rx="1.5" fill="#8952E0"/>
<path d="M101.5 84.5H50.5V86.5H101.5V84.5Z" fill="#33373D" mask="url(#path-33-inside-11_4704_11007)"/>
<rect x="54.5" y="76.5" width="30" height="3" rx="1.5" fill="#52555A"/>
<path d="M127.5 84.5H101.5V86.5H127.5V84.5Z" fill="#33373D" mask="url(#path-36-inside-12_4704_11007)"/>
<rect x="105.5" y="76.5" width="14" height="3" rx="1.5" fill="#33373D"/>
<path d="M153.5 84.5H127.5V86.5H153.5V84.5Z" fill="#33373D" mask="url(#path-39-inside-13_4704_11007)"/>
<rect x="131.5" y="76.5" width="14" height="3" rx="1.5" fill="#33373D"/>
<path d="M179.5 84.5H153.5V86.5H179.5V84.5Z" fill="#33373D" mask="url(#path-42-inside-14_4704_11007)"/>
<rect x="157.5" y="76.5" width="14" height="3" rx="1.5" fill="#33373D"/>
<path d="M199.5 84.5H179.5V86.5H199.5V84.5Z" fill="#33373D" mask="url(#path-45-inside-15_4704_11007)"/>
<rect x="188.5" y="76.5" width="7" height="3" rx="1.5" fill="#8952E0"/>
<rect x="54.5" y="91.5" width="30" height="3" rx="1.5" fill="#52555A"/>
<rect x="105.5" y="91.5" width="14" height="3" rx="1.5" fill="#33373D"/>
<rect x="131.5" y="91.5" width="14" height="3" rx="1.5" fill="#33373D"/>
<rect x="157.5" y="91.5" width="14" height="3" rx="1.5" fill="#33373D"/>
<rect x="188.5" y="91.5" width="7" height="3" rx="1.5" fill="#8952E0"/>
</g>
<path d="M51 46.5C51 43.4624 53.4624 41 56.5 41H193.5C196.538 41 199 43.4624 199 46.5V94.5C199 97.5376 196.538 100 193.5 100H56.5C53.4624 100 51 97.5376 51 94.5V46.5Z" stroke="#33373D"/>
<defs>
<clipPath id="clip0_4704_11007">
<path d="M50.5 46.5C50.5 43.1863 53.1863 40.5 56.5 40.5H193.5C196.814 40.5 199.5 43.1863 199.5 46.5V94.5C199.5 97.8137 196.814 100.5 193.5 100.5H56.5C53.1863 100.5 50.5 97.8137 50.5 94.5V46.5Z" fill="white"/>
</clipPath>
</defs>
</svg>
