<svg xmlns="http://www.w3.org/2000/svg" xmlns:xlink="http://www.w3.org/1999/xlink" viewBox="0 0 381.25 91.08" height="24" width="100"><defs><style>.cls-1{fill:#231f20;}.cls-2{fill:none;stroke-miterlimit:10;stroke-width:4px;stroke:url(#linear-gradient);}</style><linearGradient id="linear-gradient" x1="290.17" y1="45.54" x2="381.25" y2="45.54" gradientUnits="userSpaceOnUse"><stop offset="0" stop-color="#652ee3"/><stop offset="0.55" stop-color="#4662e4"/><stop offset="1" stop-color="#48a2e5"/></linearGradient></defs><path class="cls-1" d="M59.9,114.62A40.21,40.21,0,0,1,48,109.76L54,96.63a38.4,38.4,0,0,0,10.2,4.4A42.81,42.81,0,0,0,76,102.73q11.6,0,11.6-5.75,0-2.69-3.16-3.87a47.31,47.31,0,0,0-9.73-2,94.61,94.61,0,0,1-12.78-2.69A19.92,19.92,0,0,1,53.16,83q-3.69-3.87-3.69-11a17.23,17.23,0,0,1,3.46-10.61A22.26,22.26,0,0,1,63,54.2a43.22,43.22,0,0,1,15.64-2.57A61.26,61.26,0,0,1,92,53.09a37.51,37.51,0,0,1,11,4l-6.09,13a36.44,36.44,0,0,0-18.17-4.68c-3.9,0-6.84.54-8.79,1.64s-2.93,2.5-2.93,4.22q0,2.93,3.17,4.1a56,56,0,0,0,10.08,2.22A107.24,107.24,0,0,1,92.83,80.4a19,19,0,0,1,8.56,5.33Q105,89.6,105,96.51a16.65,16.65,0,0,1-3.51,10.43A22.49,22.49,0,0,1,91.25,114a45.66,45.66,0,0,1-16,2.52A61.21,61.21,0,0,1,59.9,114.62Z" transform="translate(-47.95 -40.07)"/><path class="cls-1" d="M164.21,58.6q7.84,7,7.85,21v36H155v-7.86q-5.16,8.79-19.22,8.79a29.81,29.81,0,0,1-12.6-2.46A18.79,18.79,0,0,1,115,107.3a17.78,17.78,0,0,1-2.81-9.85,16.44,16.44,0,0,1,6.62-13.83q6.63-5,20.45-5h14.54q0-6-3.64-9.2t-10.9-3.22a31.93,31.93,0,0,0-9.9,1.58A26,26,0,0,0,121.08,72l-6.56-12.78a39.52,39.52,0,0,1,12.36-5.62,55.29,55.29,0,0,1,14.82-2Q156.36,51.63,164.21,58.6Zm-15.59,43.48a11.89,11.89,0,0,0,5.16-6.39V89.25H141.24Q130,89.25,130,96.63a6.58,6.58,0,0,0,2.76,5.57,12.43,12.43,0,0,0,7.56,2A15.89,15.89,0,0,0,148.62,102.08Z" transform="translate(-47.95 -40.07)"/><path class="cls-1" d="M236.52,58.6q7.84,7,7.85,21v36H227.26v-7.86q-5.16,8.79-19.22,8.79a29.81,29.81,0,0,1-12.6-2.46,18.79,18.79,0,0,1-8.15-6.79,17.78,17.78,0,0,1-2.81-9.85,16.44,16.44,0,0,1,6.62-13.83q6.63-5,20.45-5h14.54q0-6-3.64-9.2t-10.9-3.22a31.93,31.93,0,0,0-9.9,1.58A26,26,0,0,0,193.39,72l-6.56-12.78a39.52,39.52,0,0,1,12.36-5.62,55.31,55.31,0,0,1,14.83-2Q228.66,51.63,236.52,58.6Zm-15.59,43.48a11.89,11.89,0,0,0,5.16-6.39V89.25H213.55q-11.25,0-11.25,7.38a6.58,6.58,0,0,0,2.75,5.57,12.43,12.43,0,0,0,7.56,2A15.89,15.89,0,0,0,220.93,102.08Z" transform="translate(-47.95 -40.07)"/><path class="cls-1" d="M266.75,114.62a40.21,40.21,0,0,1-11.95-4.86l6.09-13.13a38.55,38.55,0,0,0,10.2,4.4,42.81,42.81,0,0,0,11.72,1.7q11.6,0,11.6-5.75,0-2.69-3.16-3.87a47.16,47.16,0,0,0-9.73-2,94.09,94.09,0,0,1-12.77-2.69A20,20,0,0,1,260,83q-3.69-3.87-3.69-11a17.23,17.23,0,0,1,3.46-10.61,22.26,22.26,0,0,1,10.08-7.21,43.22,43.22,0,0,1,15.64-2.57,61.26,61.26,0,0,1,13.31,1.46,37.69,37.69,0,0,1,11,4l-6.1,13a36.44,36.44,0,0,0-18.17-4.68c-3.9,0-6.83.54-8.79,1.64s-2.92,2.5-2.92,4.22q0,2.93,3.16,4.1A56,56,0,0,0,287,77.64a107.47,107.47,0,0,1,12.66,2.76,19,19,0,0,1,8.55,5.33q3.63,3.87,3.64,10.78a16.65,16.65,0,0,1-3.52,10.43A22.43,22.43,0,0,1,298.1,114a45.64,45.64,0,0,1-16,2.52A61.23,61.23,0,0,1,266.75,114.62Z" transform="translate(-47.95 -40.07)"/><path class="cls-1" d="M360.73,102.31Q356,97.54,356,88.63V65.48h7.61V88.33q0,12.08,10.43,12.07t10.38-12.07V65.48h7.5V88.63q0,8.9-4.72,13.68T374,107.09Q365.48,107.09,360.73,102.31Z" transform="translate(-47.95 -40.07)"/><path class="cls-1" d="M402.57,65.48h7.62v41h-7.62Z" transform="translate(-47.95 -40.07)"/><rect class="cls-2" x="292.17" y="2" width="87.08" height="87.08" rx="12"/></svg>