<svg width="250" height="141" viewBox="0 0 250 141" fill="none" xmlns="http://www.w3.org/2000/svg">
<path d="M87 36.5H163C166.038 36.5 168.5 38.9624 168.5 42V99C168.5 102.038 166.038 104.5 163 104.5H87C83.9624 104.5 81.5 102.038 81.5 99V42C81.5 38.9624 83.9624 36.5 87 36.5Z" fill="#33373D"/>
<path d="M87 36.5H163C166.038 36.5 168.5 38.9624 168.5 42V99C168.5 102.038 166.038 104.5 163 104.5H87C83.9624 104.5 81.5 102.038 81.5 99V42C81.5 38.9624 83.9624 36.5 87 36.5Z" stroke="#52555A"/>
<rect x="89" y="44" width="36" height="3" rx="1.5" fill="#8952E0"/>
<path d="M90.125 54.25C90.125 53.6348 90.6172 53.125 91.25 53.125H94.0625V55.375C94.0625 55.6914 94.3086 55.9375 94.625 55.9375H96.875V61C96.875 61.6328 96.3652 62.125 95.75 62.125H91.25C90.6172 62.125 90.125 61.6328 90.125 61V54.25ZM96.875 55.375H94.625V53.125L96.875 55.375Z" fill="#52555A"/>
<rect x="101" y="53" width="60" height="3" rx="1.5" fill="#7D7F83"/>
<rect x="101" y="59" width="24" height="3" rx="1.5" fill="#52555A"/>
<path d="M90.125 88.25C90.125 87.6348 90.6172 87.125 91.25 87.125H94.0625V89.375C94.0625 89.6914 94.3086 89.9375 94.625 89.9375H96.875V95C96.875 95.6328 96.3652 96.125 95.75 96.125H91.25C90.6172 96.125 90.125 95.6328 90.125 95V88.25ZM96.875 89.375H94.625V87.125L96.875 89.375Z" fill="#52555A"/>
<rect x="101" y="87" width="60" height="3" rx="1.5" fill="#7D7F83"/>
<rect x="101" y="93" width="24" height="3" rx="1.5" fill="#52555A"/>
<rect x="101.5" y="65.5" width="81" height="18" rx="3.5" fill="#33373D"/>
<rect x="101.5" y="65.5" width="81" height="18" rx="3.5" stroke="#52555A"/>
<path d="M106.75 70.5C106.75 69.8164 107.297 69.25 108 69.25H111.125V71.75C111.125 72.1016 111.398 72.375 111.75 72.375H114.25V78C114.25 78.7031 113.684 79.25 113 79.25H108C107.297 79.25 106.75 78.7031 106.75 78V70.5ZM111.75 71.75V69.25L114.25 71.75H111.75Z" fill="#52555A"/>
<rect x="118" y="70" width="60" height="3" rx="1.5" fill="#7D7F83"/>
<rect x="118" y="77" width="24" height="3" rx="1.5" fill="#52555A"/>
<path d="M176.375 79.3438C176.375 79.0898 176.57 78.875 176.824 78.875C176.922 78.875 177.039 78.9336 177.117 78.9922L182.469 83.7578C182.566 83.8359 182.625 83.9531 182.625 84.0703C182.625 84.3242 182.43 84.5 182.176 84.5H179.871L180.984 86.7266C181.141 87.0391 181.023 87.4102 180.711 87.5664C180.398 87.7227 180.027 87.6055 179.871 87.293L178.738 85.0078L177.117 86.8633C177.039 86.9609 176.922 87 176.805 87C176.551 87 176.375 86.8242 176.375 86.5703V79.3438Z" fill="#ABADAF"/>
</svg>
